<svg xmlns="http://www.w3.org/2000/svg" xmlns:xlink="http://www.w3.org/1999/xlink" width="22.474" height="22.474" viewBox="0 0 22.474 22.474">
  <defs>
    <linearGradient id="linear-gradient" x1="0.5" x2="0.5" y2="1" gradientUnits="objectBoundingBox">
      <stop offset="0" stop-color="#f2666a"/>
      <stop offset="1" stop-color="#ff9d64"/>
    </linearGradient>
  </defs>
  <g id="Raggruppa_5641" data-name="Raggruppa 5641" transform="translate(0 0)">
    <g id="Livello_1" data-name="Livello 1">
      <g id="Component_17_2" data-name="Component 17 2">
        <g id="Path_1674" data-name="Path 1674">
          <path id="Tracciato_5560" data-name="Tracciato 5560" d="M469.224-251.213a11.25,11.25,0,0,1-11.237-11.237,11.249,11.249,0,0,1,11.237-11.236h0a11.252,11.252,0,0,1,11.236,11.236A11.25,11.25,0,0,1,469.224-251.213Zm0-20.646a9.419,9.419,0,0,0-9.408,9.408,9.419,9.419,0,0,0,9.408,9.408,9.419,9.419,0,0,0,9.408-9.408,9.423,9.423,0,0,0-9.408-9.408Z" transform="translate(-457.987 273.687)" fill="url(#linear-gradient)"/>
        </g>
      </g>
      <path id="Unione_1" data-name="Unione 1" d="M2.708,13.038v-1.1A3.669,3.669,0,0,1,.8,11.012,2.755,2.755,0,0,1,0,9a.915.915,0,0,1,1.83,0c0,1.129,1.414,1.192,1.7,1.193a1.348,1.348,0,0,0,1.515-1.16C5.037,8.1,3.787,7.977,3.536,7.962H3.53a3.326,3.326,0,0,1-2.507-.935A2.706,2.706,0,0,1,.3,5.133a3.2,3.2,0,0,1,.944-2.4,3.189,3.189,0,0,1,1.463-.771V.914a.914.914,0,0,1,1.828,0V1.96a2.934,2.934,0,0,1,1.429.8,3.482,3.482,0,0,1,.9,2.371.914.914,0,0,1-1.828-.046,1.664,1.664,0,0,0-.39-1.057,1.375,1.375,0,0,0-1.026-.339A1.709,1.709,0,0,0,2.5,4.067a1.5,1.5,0,0,0-.368,1.116.877.877,0,0,0,.235.6,1.789,1.789,0,0,0,1.219.353c1.162.049,3.283.741,3.283,3.005A3.154,3.154,0,0,1,4.536,11.9v1.134a.914.914,0,1,1-1.828,0Z" transform="translate(7.707 4.188)" stroke="rgba(0,0,0,0)" stroke-miterlimit="10" stroke-width="1" fill="url(#linear-gradient)"/>
    </g>
  </g>
</svg>
