<svg xmlns="http://www.w3.org/2000/svg" xmlns:xlink="http://www.w3.org/1999/xlink" width="19.069" height="22.689" viewBox="0 0 19.069 22.689">
  <defs>
    <linearGradient id="linear-gradient" x1="0.5" x2="0.5" y2="1" gradientUnits="objectBoundingBox">
      <stop offset="0" stop-color="#f2666a"/>
      <stop offset="1" stop-color="#ff9d64"/>
    </linearGradient>
  </defs>
  <g id="Raggruppa_5635" data-name="Raggruppa 5635" transform="translate(0.4 0.35)">
    <path id="Tracciato_2372" data-name="Tracciato 2372" d="M10.591,6.72a.456.456,0,0,1-.133.321L5.616,11.883a.446.446,0,0,1-.16.1.335.335,0,0,1-.161.031.451.451,0,0,1-.321-.132L.133,7.041A.454.454,0,1,1,.775,6.4L4.8,10.423V.5a.5.5,0,1,1,.994,0v9.926L9.817,6.4a.454.454,0,0,1,.774.321Z" transform="translate(14.43 12.015) rotate(180)" stroke="#ff9d64" stroke-linecap="round" stroke-miterlimit="10" stroke-width="0.7" fill="url(#linear-gradient)"/>
    <g id="Raggruppa_3281" data-name="Raggruppa 3281" transform="translate(0 11.442)">
      <g id="Raggruppa_3280" data-name="Raggruppa 3280">
        <path id="Tracciato_2373" data-name="Tracciato 2373" d="M469.9,649.81H457.8a.536.536,0,0,1-.536-.535v-5.9l-2.439-3.255a.536.536,0,1,1,.858-.643l2.545,3.4a.536.536,0,0,1,.107.321v5.542h11.034V643.2a.543.543,0,0,1,.106-.321l2.547-3.4a.535.535,0,1,1,.856.643l-2.44,3.255v5.9A.535.535,0,0,1,469.9,649.81Z" transform="translate(-454.713 -639.264)" stroke="#ff9d64" stroke-linecap="round" stroke-miterlimit="10" stroke-width="0.7" fill="url(#linear-gradient)"/>
      </g>
      <path id="Tracciato_2374" data-name="Tracciato 2374" d="M469.652,643.4h-12.1a.536.536,0,1,1,0-1.071h12.1a.536.536,0,0,1,0,1.071Z" transform="translate(-454.465 -638.932)" stroke="#ff9d64" stroke-linecap="round" stroke-miterlimit="10" stroke-width="0.7" fill="url(#linear-gradient)"/>
    </g>
  </g>
</svg>
