<svg id="Raggruppa_5279" data-name="Raggruppa 5279" xmlns="http://www.w3.org/2000/svg" width="111.063" height="92.707" viewBox="0 0 111.063 92.707">
  <path id="Tracciato_4698" data-name="Tracciato 4698" d="M248.477,70.594l-5.889-1.255.022-2.114.244-.215a18.83,18.83,0,0,0,6.226-11.783l.385-2.91a36.719,36.719,0,0,0,.385-5.479c0-.689,0-1.488-.067-2.262a16.643,16.643,0,0,0-1.925-6.678l-1.273-23.273a2.049,2.049,0,0,0-3.48-1.366c-4.942,4.853-14.292,14.067-19.516,19.364a15.691,15.691,0,0,0-1.307,1.022,16.583,16.583,0,0,0-5.108,10.961,38.2,38.2,0,0,0,.318,7.7l.385,2.928a20.9,20.9,0,0,0,2.606,7.366,18.96,18.96,0,0,0,3.628,4.338l.241.211.063,2.11-5.934,1.307A21.226,21.226,0,0,0,212.459,73l0-.407a13.41,13.41,0,0,0,4.346-8.307l.259-1.947a25.358,25.358,0,0,0,.266-3.791c0-.485,0-1.044-.048-1.57a11.71,11.71,0,0,0-19.745-7.84,11.905,11.905,0,0,0-3.665,7.874,26.467,26.467,0,0,0,.222,5.312l.263,1.984a14.745,14.745,0,0,0,1.847,5.227,13.62,13.62,0,0,0,2.506,3.013l.015.492-3.391.744a14.983,14.983,0,0,0-5.212,2.251s-1.159.977-1.481,1.229c-.237.174-1.544,1.421-1.714,1.592a5.44,5.44,0,0,0-.422.474,15.838,15.838,0,0,0-3.461,8.229,6.269,6.269,0,0,0,.322,3.372,2.56,2.56,0,0,0,2.084,1.136l15.5,0a5.213,5.213,0,0,0,.466,2.4,2.785,2.785,0,0,0,2.136,1.114l34.885,0,.363.019a2.93,2.93,0,0,0,.03-5.86l-31.894.07.207-.907a16.775,16.775,0,0,1,12.671-12.645l8.21-1.788a2.914,2.914,0,0,0,2.225-2.847v-5.79a3.068,3.068,0,0,0-1.14-2.306,14.143,14.143,0,0,1-3.546-3.85,12.83,12.83,0,0,1-1.825-5.145l-.385-2.917a35.466,35.466,0,0,1-.267-6.578,10.478,10.478,0,0,1,3.276-7.093c.059-.056.126-.093.185-.144l16.58,3.52a10.356,10.356,0,0,1,.918,3.742,17.489,17.489,0,0,1,.067,1.925,34.964,34.964,0,0,1-.315,4.7l-.385,2.913a13.449,13.449,0,0,1-5.379,9.058,2.745,2.745,0,0,0-1.155,2.314v5.786a2.958,2.958,0,0,0,2.236,2.85L247.3,76.38a16.9,16.9,0,0,1,12.664,12.43l.226.918-10.195,0a2.928,2.928,0,0,0,.041,5.856l.274-.015h12.96a3.127,3.127,0,0,0,2.051-.833,2.747,2.747,0,0,0,.87-2.117A23.061,23.061,0,0,0,248.477,70.594ZM211.2,73.681l0,0h0Zm-4.672,4.135a5.42,5.42,0,0,0-.544.618,22.521,22.521,0,0,0-4.235,8.24l-13.078.026a10.532,10.532,0,0,1,7.881-7.651l5.541-1.207a2.7,2.7,0,0,0,2.066-2.632V71.316a2.815,2.815,0,0,0-1.066-2.143,8.878,8.878,0,0,1-2.2-2.38,8.024,8.024,0,0,1-1.129-3.176l-.255-1.966a23.215,23.215,0,0,1-.174-4.294,6.4,6.4,0,0,1,6.308-6.03,6.235,6.235,0,0,1,4.324,1.755,6.516,6.516,0,0,1,1.988,4.35A10.385,10.385,0,0,1,212,58.637a22.564,22.564,0,0,1-.2,3.065l-.259,1.958a8.31,8.31,0,0,1-3.3,5.579,2.576,2.576,0,0,0-1.1,2.169V75.3a2.685,2.685,0,0,0,.381,1.329l.089.152C207.106,77.25,206.64,77.7,206.525,77.816Z" transform="translate(-172.91 -2.881)" fill="#fff"/>
  <path id="Tracciato_4699" data-name="Tracciato 4699" d="M186.922,25.023a3.219,3.219,0,0,1,2.24-.848,6,6,0,0,0,4.361-5.56h-3.7a2.251,2.251,0,0,1-1.577,1.966,5.757,5.757,0,0,0-5.475,6.282l3.687-.355A2.371,2.371,0,0,1,186.922,25.023Z" transform="translate(-173.46 13.176)" fill="#fff"/>
  <path id="Tracciato_4700" data-name="Tracciato 4700" d="M195.125,14.914a6.088,6.088,0,0,0,2.891,3.65,5.742,5.742,0,0,0,2.684.644,6.076,6.076,0,0,0,1.707-.237l-1.085-3.539c-.737.215-2.1.255-2.869-2.158a5.966,5.966,0,0,0-6.337-3.117l.766,3.62A2.236,2.236,0,0,1,195.125,14.914Z" transform="translate(-148.162 -10.027)" fill="#fff"/>
  <path id="Tracciato_4701" data-name="Tracciato 4701" d="M210.038,26.816A5.967,5.967,0,0,0,203.7,23.7l.766,3.62a2.219,2.219,0,0,1,2.247,1.136,6.088,6.088,0,0,0,2.891,3.65,5.742,5.742,0,0,0,2.684.644,5.932,5.932,0,0,0,1.71-.241l-1.088-3.539C212.167,29.189,210.808,29.23,210.038,26.816Z" transform="translate(-116.873 26.574)" fill="#fff"/>
  <path id="Tracciato_4702" data-name="Tracciato 4702" d="M195.18,15.244h-3.7a4.393,4.393,0,0,1-1.781,3.587l2.221,2.965A8.157,8.157,0,0,0,195.18,15.244Z" transform="translate(-154.695 4.068)" fill="#fff"/>
  <path id="Tracciato_4703" data-name="Tracciato 4703" d="M206.1,24.637l3.531-1.114a8.121,8.121,0,0,0-5.108-5.242l-1.214,3.491A4.4,4.4,0,0,1,206.1,24.637Z" transform="translate(-117.916 12.274)" fill="#fff"/>
  <path id="Tracciato_4704" data-name="Tracciato 4704" d="M184.221,26.2a2.978,2.978,0,0,1,.433,2.28,3.016,3.016,0,0,1-1.488,1.536,5.3,5.3,0,0,0-2.839,3.635,6.262,6.262,0,0,0,1.3,4.712l2.891-2.31a2.623,2.623,0,0,1-.555-1.718,1.715,1.715,0,0,1,.881-1.029,6.53,6.53,0,0,0,3.309-3.628,6.459,6.459,0,0,0-.681-5.242Z" transform="translate(-180.242 28.911)" fill="#fff"/>
  <path id="Tracciato_4705" data-name="Tracciato 4705" d="M215.26,27.4l-3.254,1.762a2.984,2.984,0,0,1,.437,2.28,2.987,2.987,0,0,1-1.488,1.533,5.309,5.309,0,0,0-2.839,3.639,6.262,6.262,0,0,0,1.3,4.712l2.891-2.31a2.626,2.626,0,0,1-.555-1.721,1.719,1.719,0,0,1,.881-1.025,6.53,6.53,0,0,0,3.309-3.628A6.434,6.434,0,0,0,215.26,27.4Z" transform="translate(-105.163 36.916)" fill="#fff"/>
  <path id="Tracciato_4706" data-name="Tracciato 4706" d="M188.618,24.109a5.374,5.374,0,0,0,4.953-3.287l-3.409-1.436a1.68,1.68,0,1,1-1.544-2.332v-3.7a5.379,5.379,0,1,0,0,10.757Z" transform="translate(-172.165 -1.043)" fill="#fff"/>
  <path id="Tracciato_4707" data-name="Tracciato 4707" d="M217.753,26.816l-3.413-1.44a1.678,1.678,0,1,1-1.547-2.332v-3.7a5.379,5.379,0,1,0,4.96,7.474Z" transform="translate(-106.831 15.14)" fill="#fff"/>
</svg>
