<svg id="polls" xmlns="http://www.w3.org/2000/svg" width="80.774" height="73.69" viewBox="0 0 80.774 73.69">
  <path id="Tracciato_4693" data-name="Tracciato 4693" d="M82.254,14.877H42.408a2.835,2.835,0,0,0,0,5.67H82.254A6.909,6.909,0,0,1,89.1,27.5V64.46a6.909,6.909,0,0,1-6.85,6.951H77.848a2.834,2.834,0,0,0-2.835,2.835v6.179l-12.75-8.534a2.859,2.859,0,0,0-1.579-.481H26.516A6.905,6.905,0,0,1,19.67,64.46V27.5a6.905,6.905,0,0,1,6.846-6.951h3.255a2.835,2.835,0,0,0,0-5.67H26.516A12.583,12.583,0,0,0,14,27.5V64.46A12.583,12.583,0,0,0,26.516,77.081H59.823L76.268,88.087a2.833,2.833,0,0,0,4.41-2.355V77.081h1.575A12.584,12.584,0,0,0,94.774,64.46V27.5A12.584,12.584,0,0,0,82.254,14.877Z" transform="translate(-14 -14.877)" fill="#fff"/>
  <path id="Tracciato_4694" data-name="Tracciato 4694" d="M17.993,35.05a2.4,2.4,0,0,0,4.027,1.838L25.105,33.8l2.968,2.964a2.4,2.4,0,0,0,3.514-3.259l-3.094-3.094,2.985-2.985a2.393,2.393,0,1,0-3.384-3.384L25.105,27.03l-2.964-2.968a2.378,2.378,0,0,0-1.672-.759,2.329,2.329,0,0,0-1.716.642,2.4,2.4,0,0,0-.125,3.376l3.094,3.094-2.968,2.968A2.386,2.386,0,0,0,17.993,35.05ZM30.978,33.9h0v0Z" transform="translate(-1.871 10.708)" fill="#fff"/>
  <path id="Tracciato_4695" data-name="Tracciato 4695" d="M26.571,30.027H48.8a2.835,2.835,0,0,0,0-5.67H26.571a2.835,2.835,0,0,0,0,5.67Z" transform="translate(15.597 13.93)" fill="#fff"/>
  <path id="Tracciato_4696" data-name="Tracciato 4696" d="M19.828,22.947a2.405,2.405,0,0,0-.893,4.354l4.075,2.779a2.413,2.413,0,0,0,3.122-.376l6.6-7.274a2.393,2.393,0,0,0-1.607-4.124,2.463,2.463,0,0,0-1.7.662,1.941,1.941,0,0,0-.21.222l-5.2,5.735-2.379-1.611A2.39,2.39,0,0,0,19.828,22.947Z" transform="translate(-2.215 -4.454)" fill="#fff"/>
  <path id="Tracciato_4697" data-name="Tracciato 4697" d="M26.571,24.78H48.8a2.833,2.833,0,1,0,0-5.666H26.571a2.833,2.833,0,0,0,0,5.666Z" transform="translate(15.597 -2.002)" fill="#fff"/>
</svg>
