<svg xmlns="http://www.w3.org/2000/svg" xmlns:xlink="http://www.w3.org/1999/xlink" width="231.493" height="36" viewBox="0 0 231.493 36">
  <defs>
    <linearGradient id="linear-gradient" x1="0.792" y1="0.429" x2="-0.279" y2="0.576" gradientUnits="objectBoundingBox">
      <stop offset="0" stop-color="#414042" stop-opacity="0"/>
      <stop offset="0.44" stop-color="#414042" stop-opacity="0.129"/>
      <stop offset="1" stop-color="#414042" stop-opacity="0.4"/>
    </linearGradient>
    <linearGradient id="linear-gradient-2" x1="0.923" y1="0.415" x2="-0.2" y2="0.605" xlink:href="#linear-gradient"/>
    <linearGradient id="linear-gradient-3" x1="0.338" y1="0.59" x2="0.686" y2="0.279" xlink:href="#linear-gradient"/>
    <linearGradient id="linear-gradient-4" x1="0.842" y1="0.462" x2="-0.362" y2="0.705" xlink:href="#linear-gradient"/>
    <linearGradient id="linear-gradient-5" x1="0.178" y1="0.661" x2="0.975" y2="0.258" xlink:href="#linear-gradient"/>
    <linearGradient id="linear-gradient-6" x1="0.181" y1="0.387" x2="1.542" y2="0.678" xlink:href="#linear-gradient"/>
    <linearGradient id="linear-gradient-8" x1="0.923" y1="0.415" x2="-0.2" y2="0.605" gradientUnits="objectBoundingBox">
      <stop offset="0" stop-color="#414042" stop-opacity="0"/>
      <stop offset="0.383" stop-color="#414042" stop-opacity="0.075"/>
      <stop offset="0.827" stop-color="#414042" stop-opacity="0.286"/>
      <stop offset="1" stop-color="#414042" stop-opacity="0.4"/>
    </linearGradient>
    <linearGradient id="linear-gradient-9" x1="0.338" y1="0.59" x2="0.686" y2="0.279" gradientUnits="objectBoundingBox">
      <stop offset="0" stop-color="#414042" stop-opacity="0"/>
      <stop offset="0.394" stop-color="#414042" stop-opacity="0.059"/>
      <stop offset="0.768" stop-color="#414042" stop-opacity="0.231"/>
      <stop offset="1" stop-color="#414042" stop-opacity="0.4"/>
    </linearGradient>
    <linearGradient id="linear-gradient-10" x1="0.842" y1="0.462" x2="-0.362" y2="0.705" gradientUnits="objectBoundingBox">
      <stop offset="0" stop-color="#414042" stop-opacity="0"/>
      <stop offset="0.572" stop-color="#414042" stop-opacity="0.2"/>
      <stop offset="1" stop-color="#414042" stop-opacity="0.4"/>
    </linearGradient>
    <linearGradient id="linear-gradient-11" x1="0.181" y1="0.387" x2="1.542" y2="0.678" gradientUnits="objectBoundingBox">
      <stop offset="0" stop-color="#414042" stop-opacity="0"/>
      <stop offset="0.504" stop-color="#464546" stop-opacity="0.173"/>
      <stop offset="1" stop-color="#4d4d4d" stop-opacity="0.4"/>
    </linearGradient>
    <linearGradient id="linear-gradient-12" x1="1" y1="0.5" x2="0" y2="0.5" gradientUnits="objectBoundingBox">
      <stop offset="0" stop-color="#ffa361"/>
      <stop offset="0.101" stop-color="#ff9c55"/>
      <stop offset="0.495" stop-color="#ff842e"/>
      <stop offset="0.808" stop-color="#ff7615"/>
      <stop offset="1" stop-color="#ff710d"/>
    </linearGradient>
  </defs>
  <g id="Raggruppa_5979" data-name="Raggruppa 5979" transform="translate(-514 -5221)">
    <text id="by_" data-name="by " transform="translate(514 5248)" fill="#414042" font-size="24" font-family="TitilliumWeb-Italic, Titillium Web" font-style="italic"><tspan x="0" y="0">by </tspan></text>
    <g id="Raggruppa_5381" data-name="Raggruppa 5381" transform="translate(308.801 4962.08)">
      <rect id="Rettangolo_1267" data-name="Rettangolo 1267" width="4.535" height="4.535" rx="1.644" transform="translate(408.445 282.669)" fill="#ea544c"/>
      <path id="Tracciato_4811" data-name="Tracciato 4811" d="M299.4,278.512a3.109,3.109,0,0,0-3.908,1.911c-.077.195-.15.349-.349.789a12.164,12.164,0,0,1-1.7,2.8,9.56,9.56,0,0,1-2.357,2.176,5.1,5.1,0,0,1-2.784.81,2.566,2.566,0,0,1-2.143-.951,5.681,5.681,0,0,1-1.017-3.45l-.01-.287a19.247,19.247,0,0,0,3.362-.68,15.562,15.562,0,0,0,4.374-2.046,11.991,11.991,0,0,0,2.462-2.214,6.893,6.893,0,0,0,.823-1.093h0a1.308,1.308,0,0,0,.083-.144,6.874,6.874,0,0,0-5.964-10.292,6.77,6.77,0,0,0-4.147,1.352l-.525.39a14.533,14.533,0,0,0-3.687,4.238,20.127,20.127,0,0,0-1.8,3.974c-.266-.1-.854-.34-.991-.42l-.054-.035a30.189,30.189,0,0,0,.3-3.73,16.136,16.136,0,0,0-.238-2.536c0-.015-.007-.029-.01-.044a4.228,4.228,0,0,0-4.149-3.419,3.942,3.942,0,0,0-2.749,1.082,4.674,4.674,0,0,0-1.47,2.876,10.456,10.456,0,0,0,1.791,7.62,19.813,19.813,0,0,1-3.8,8.075c-2.343,2.685-4.515.387-4.515.387a53,53,0,0,0,2.626-5.728,16.385,16.385,0,0,0,.837-5.26,6.717,6.717,0,0,0-1.071-3.461,4.118,4.118,0,0,0-3.875-1.787,5.094,5.094,0,0,0-3.4,1.354,7.5,7.5,0,0,0-1.868,2.764,13.024,13.024,0,0,0-.789,3.155,18.633,18.633,0,0,0-.153,2.884,24.444,24.444,0,0,0,.242,2.622,15.879,15.879,0,0,0,.585,2.437,10.287,10.287,0,0,1-1.13,1.148,3.46,3.46,0,0,1-2.5.742c-1.871-.442-2.736-3.139-2.091-8.488.144-1.193.3-2.321.47-3.389s.3-1.58.515-2.54c.155-.692.574-2.439.574-2.441a3.266,3.266,0,0,0-2.444-3.871,3.33,3.33,0,0,0-3.85,2.576s-.39,1.366-.606,2.433c-.224,1.1-.353,1.663-.53,2.867-.185,1.249-.335,2.561-.445,3.9a34.687,34.687,0,0,0-.1,4.049,27.613,27.613,0,0,0,.37,3.506,13.377,13.377,0,0,0,1.184,3.728,8.178,8.178,0,0,0,2.543,3.045,7.922,7.922,0,0,0,4.375,1.183c.107,0,.216,0,.326-.006a8.394,8.394,0,0,0,4.233-1.326c.25-.157.5-.3.738-.445a15.854,15.854,0,0,0,1.535-.988,10.343,10.343,0,0,0,2.076,1.658,7.762,7.762,0,0,0,4.378,1.063,8.015,8.015,0,0,0,5.847-2.833,22.541,22.541,0,0,0,3.683-5.705,30.152,30.152,0,0,0,1.234-3.163,12.551,12.551,0,0,0,1.314.411c-.009.357-.01.711,0,1.061a16.248,16.248,0,0,0,.549,3.612,9.8,9.8,0,0,0,1.622,3.389,8.249,8.249,0,0,0,2.96,2.421,8.694,8.694,0,0,0,3.915.838c.139,0,.28,0,.423-.007a11.177,11.177,0,0,0,5.628-1.63,15.891,15.891,0,0,0,3.986-3.511,19.438,19.438,0,0,0,2.494-4.06c.582-1.22.478-.991.638-1.347A3.065,3.065,0,0,0,299.4,278.512Zm-12.659-2.885a12.5,12.5,0,0,1,1.337-2.044,7.907,7.907,0,0,1,1.71-1.583l.007,0,.016-.01a.252.252,0,0,1,.031-.014,1,1,0,0,1,1.14.072.872.872,0,0,1,.147.2.679.679,0,0,1,.033.062c.007.017.015.034.021.051s.013.04.018.061a1.066,1.066,0,0,1-.231.847.383.383,0,0,1-.042.057l-.026.026,0,.006,0,0a6.62,6.62,0,0,1-1.7,1.324,11.573,11.573,0,0,1-2.452,1.057l-.069.021Z" transform="translate(0 0)" fill="#ea544c"/>
      <g id="Raggruppa_5373" data-name="Raggruppa 5373" transform="translate(310.195 271.978)">
        <path id="Tracciato_4812" data-name="Tracciato 4812" d="M1049.624,392.284a7.169,7.169,0,0,1-.505,2.815,5.67,5.67,0,0,1-1.336,1.965,5.387,5.387,0,0,1-1.908,1.152,6.661,6.661,0,0,1-2.22.378,8.3,8.3,0,0,1-1.28-.1,7.111,7.111,0,0,1-1.237-.307,6.475,6.475,0,0,1-1.143-.524,5.013,5.013,0,0,1-.987-.751.5.5,0,0,1-.179-.368.437.437,0,0,1,.047-.2,1.4,1.4,0,0,1,.123-.2l1.039-1.521a.673.673,0,0,1,.231-.231.53.53,0,0,1,.26-.071.685.685,0,0,1,.453.189,3.148,3.148,0,0,0,1.011.562,4.416,4.416,0,0,0,1.436.2,3.072,3.072,0,0,0,.949-.151,2.745,2.745,0,0,0,.836-.435,2.332,2.332,0,0,0,.6-.694,1.981,1.981,0,0,0,.255-.93,4.655,4.655,0,0,1-1.308.827,3.947,3.947,0,0,1-1.535.3,5.7,5.7,0,0,1-5.285-3.462,6.173,6.173,0,0,1,0-4.713,6.326,6.326,0,0,1,1.261-1.927,6.022,6.022,0,0,1,1.837-1.308,5.159,5.159,0,0,1,2.187-.482,4.2,4.2,0,0,1,1.8.378,4.752,4.752,0,0,1,1.431,1.03q.114-.321.189-.552a2.645,2.645,0,0,1,.156-.387.581.581,0,0,1,.2-.231.6.6,0,0,1,.326-.076h1.719a.681.681,0,0,1,.421.118.536.536,0,0,1,.156.449Zm-3.363-3.892a2.726,2.726,0,0,0-.208-1.063,2.808,2.808,0,0,0-.567-.869,2.655,2.655,0,0,0-1.927-.808,2.4,2.4,0,0,0-1.048.222,2.322,2.322,0,0,0-.779.6,2.653,2.653,0,0,0-.487.874,3.3,3.3,0,0,0-.17,1.067,3.017,3.017,0,0,0,.18,1.053,2.562,2.562,0,0,0,.51.85,2.343,2.343,0,0,0,.8.571,2.6,2.6,0,0,0,1.058.208,2.545,2.545,0,0,0,1.02-.208,2.635,2.635,0,0,0,.841-.571,2.7,2.7,0,0,0,.774-1.922Z" transform="translate(-1037.476 -379.088)" fill="#414042"/>
        <path id="Tracciato_4813" data-name="Tracciato 4813" d="M1279.934,394.075a.484.484,0,0,1-.548.548h-2.069a.488.488,0,0,1-.3-.094.941.941,0,0,1-.222-.236,1.733,1.733,0,0,1-.161-.3q-.066-.16-.113-.283l-.019-.085.009.047c-.019-.05-.027-.069-.023-.057s0-.006-.024-.057a4.662,4.662,0,0,1-1.4.926,4.216,4.216,0,0,1-1.672.331,5.992,5.992,0,0,1-2.253-.435,5.812,5.812,0,0,1-1.9-1.233,6,6,0,0,1-1.313-1.917,6.259,6.259,0,0,1,1.228-6.792,5.976,5.976,0,0,1,1.894-1.308,5.743,5.743,0,0,1,2.347-.482,5.944,5.944,0,0,1,1.87.283,3.47,3.47,0,0,1,1.464.926l.283-.586.1-.217a.787.787,0,0,1,.09-.156.3.3,0,0,1,.128-.094.6.6,0,0,1,.222-.033h1.832a.484.484,0,0,1,.548.548Zm-3.75-5.356a2.791,2.791,0,0,0-.2-1.044,2.708,2.708,0,0,0-.553-.869,2.636,2.636,0,0,0-.836-.59,2.552,2.552,0,0,0-2.017-.019,2.532,2.532,0,0,0-.822.557,2.659,2.659,0,0,0-.562.86,2.856,2.856,0,0,0-.208,1.105,2.958,2.958,0,0,0,.194,1.077,2.6,2.6,0,0,0,.538.864,2.567,2.567,0,0,0,2.876.562,2.631,2.631,0,0,0,.836-.59,2.707,2.707,0,0,0,.553-.869A2.79,2.79,0,0,0,1276.184,388.719Z" transform="translate(-1248.572 -379.405)" fill="#414042"/>
        <path id="Tracciato_4814" data-name="Tracciato 4814" d="M1499.374,352.239v7.812a.53.53,0,0,1-.137.435.676.676,0,0,1-.411.1h-2.711a.476.476,0,0,1-.538-.538v-7.812h-1.124a.451.451,0,0,1-.51-.51v-2.446a.466.466,0,0,1,.51-.5h1.124v-1.719a.733.733,0,0,1,.1-.406.779.779,0,0,1,.434-.264l2.371-.784a1.054,1.054,0,0,1,.127-.028.8.8,0,0,1,.118-.009.645.645,0,0,1,.453.175.681.681,0,0,1,.189.524v2.513h1.379a.454.454,0,0,1,.373.156.532.532,0,0,1,.127.345v2.446a.447.447,0,0,1-.5.51Z" transform="translate(-1456.495 -345.372)" fill="#414042"/>
        <path id="Tracciato_4815" data-name="Tracciato 4815" d="M1670.535,352.173a3.354,3.354,0,0,0-.127-.963,2.192,2.192,0,0,0-.354-.718,1.559,1.559,0,0,0-.538-.449,1.5,1.5,0,0,0-.68-.156,1.76,1.76,0,0,0-.685.132,1.519,1.519,0,0,0-.552.4,1.868,1.868,0,0,0-.368.657,2.847,2.847,0,0,0-.132.912V357.8a.576.576,0,0,1-.146.411.549.549,0,0,1-.42.156H1663.9a.5.5,0,0,1-.567-.567V343.719a.545.545,0,0,1,.156-.425.587.587,0,0,1,.411-.142h2.626a.546.546,0,0,1,.411.161.559.559,0,0,1,.156.406v3.826a5.663,5.663,0,0,1,1.261-.836,3.291,3.291,0,0,1,1.45-.326,4.69,4.69,0,0,1,2.248.472,3.544,3.544,0,0,1,1.37,1.3,5.462,5.462,0,0,1,.685,1.951,14.867,14.867,0,0,1,.184,2.413v5.28a.577.577,0,0,1-.146.411.549.549,0,0,1-.42.156H1671.1a.5.5,0,0,1-.567-.567Z" transform="translate(-1611.993 -343.152)" fill="#414042"/>
        <path id="Tracciato_4816" data-name="Tracciato 4816" d="M1885.865,390.867a.513.513,0,0,1,.331-.113.712.712,0,0,1,.2.047.4.4,0,0,1,.17.142l1.162,1.606a.783.783,0,0,1,.17.416.513.513,0,0,1-.208.387,7.338,7.338,0,0,1-1.152.836,6.172,6.172,0,0,1-1.119.51,5.879,5.879,0,0,1-1.091.255,8.256,8.256,0,0,1-1.077.071,5.722,5.722,0,0,1-2.3-.477,6.3,6.3,0,0,1-3.278-3.235,5.706,5.706,0,0,1-.5-2.362,6.4,6.4,0,0,1,.435-2.361,5.888,5.888,0,0,1,1.223-1.932,5.73,5.73,0,0,1,1.889-1.3,6.055,6.055,0,0,1,2.432-.477,5.172,5.172,0,0,1,1.181.146,5.573,5.573,0,0,1,1.233.453,5.846,5.846,0,0,1,1.171.789,5.247,5.247,0,0,1,.992,1.148,5.883,5.883,0,0,1,.685,1.525,6.807,6.807,0,0,1,.255,1.936,2.236,2.236,0,0,1-.081.666.764.764,0,0,1-.26.387,1.028,1.028,0,0,1-.463.184,4.267,4.267,0,0,1-.69.047h-6.348a2.639,2.639,0,0,0,.387.694,2.754,2.754,0,0,0,.557.543,2.572,2.572,0,0,0,.685.354,2.366,2.366,0,0,0,.77.128,4.37,4.37,0,0,0,1.039-.1,3.182,3.182,0,0,0,.7-.255,2.462,2.462,0,0,0,.491-.331A4.957,4.957,0,0,1,1885.865,390.867Zm-2.815-4.969a1.918,1.918,0,0,0-1.2.383,2.748,2.748,0,0,0-.8,1.006h4.128a2.6,2.6,0,0,0-.888-1.03A2.209,2.209,0,0,0,1883.051,385.9Z" transform="translate(-1808.289 -379.617)" fill="#414042"/>
        <path id="Tracciato_4817" data-name="Tracciato 4817" d="M2101.037,383.432a.488.488,0,0,1,.548-.557h1.549c.082,0,.16,0,.236.009a.507.507,0,0,1,.213.066.679.679,0,0,1,.189.17,1.409,1.409,0,0,1,.175.312l.312.8.019-.019v.009q.265-.293.524-.557a3.306,3.306,0,0,1,.576-.468,2.785,2.785,0,0,1,.713-.321,3.259,3.259,0,0,1,.926-.118,3.415,3.415,0,0,1,1.129.189,6.1,6.1,0,0,1,.987.439,5.956,5.956,0,0,1,.756.5q.312.246.435.35a.933.933,0,0,1,.222.264.545.545,0,0,1,.062.246.7.7,0,0,1-.161.406q-.283.416-.586.841t-.6.831a.5.5,0,0,1-.4.236.552.552,0,0,1-.345-.156q-.184-.156-.43-.345a3.027,3.027,0,0,0-.586-.345,1.936,1.936,0,0,0-.812-.156,2.243,2.243,0,0,0-.732.118,1.632,1.632,0,0,0-.6.359,1.766,1.766,0,0,0-.406.59,2.062,2.062,0,0,0-.151.822v6.234a.489.489,0,0,1-.558.548h-2.664a.564.564,0,0,1-.4-.137.536.536,0,0,1-.146-.411Z" transform="translate(-2013.786 -379.512)" fill="#414042"/>
      </g>
      <g id="Raggruppa_5374" data-name="Raggruppa 5374" transform="translate(255.06 266.821)">
        <path id="Tracciato_4818" data-name="Tracciato 4818" d="M455.4,388.849s-2.164-1.981-1.922-8.531c.025-.66.232-1.909.225-2.287,1.066,1.793,3.11.119,3.708,6.669-.187.433-.466,1.1-.774,1.746C455.966,387.857,455.4,388.849,455.4,388.849Z" transform="translate(-446.236 -370.013)" fill="url(#linear-gradient)"/>
        <path id="Tracciato_4819" data-name="Tracciato 4819" d="M733.521,377.974a12.8,12.8,0,0,0-1.137,3.048,13.8,13.8,0,0,0-.4,3.505q.432-.044.883-.112a18.114,18.114,0,0,0,4.471-1.291,8.613,8.613,0,0,0-.084-3.413,3.9,3.9,0,0,0-1.325-2.748,12.142,12.142,0,0,1-1.156.566C734.146,377.79,733.521,377.974,733.521,377.974Z" transform="translate(-701.907 -369.032)" fill="url(#linear-gradient-2)"/>
        <path id="Tracciato_4820" data-name="Tracciato 4820" d="M572.315,407.282c-.258-.349-.314-.431-.374-.531a17.978,17.978,0,0,1-.587,2.177c1.137,2.267,2.656,3.494,4.494,5.249.018-.04.038-.078.056-.117a30.1,30.1,0,0,0,1.235-3.163A10.441,10.441,0,0,1,572.315,407.282Z" transform="translate(-554.458 -396.377)" fill="url(#linear-gradient-3)"/>
        <path id="Tracciato_4821" data-name="Tracciato 4821" d="M633.49,285.085a16.14,16.14,0,0,0-.238-2.536c0-.015-.007-.029-.01-.044a4.222,4.222,0,0,0-1.2-2.216,5.975,5.975,0,0,0-.943,2.237,14.922,14.922,0,0,0-.117,2.6,7.4,7.4,0,0,0,.125.757,5.449,5.449,0,0,0,.969,1.987,3.913,3.913,0,0,0,.465.489,7.8,7.8,0,0,0,.642.46A30.2,30.2,0,0,0,633.49,285.085Z" transform="translate(-609.181 -280.29)" fill="url(#linear-gradient-4)"/>
        <path id="Tracciato_4822" data-name="Tracciato 4822" d="M367.7,497.481a12.638,12.638,0,0,0,1.264,3.031,14.579,14.579,0,0,0,1.9,2.652c-.172.126-.439.318-.767.528-.234.149-.567.342-.774.464-.277.164-.5.3-.994.6a4.416,4.416,0,0,1-2.233-1.853,5.024,5.024,0,0,1-.69-2.739,3.206,3.206,0,0,1,.174-.977,4.967,4.967,0,0,0,.994-.558A10.541,10.541,0,0,0,367.7,497.481Z" transform="translate(-365.399 -479.663)" fill="url(#linear-gradient-5)"/>
        <path id="Tracciato_4823" data-name="Tracciato 4823" d="M612.557,380.887a20.256,20.256,0,0,0-1.055,5.953,11.817,11.817,0,0,1-1.657-.547,10.4,10.4,0,0,1-1-.47c-3.4-1.965-.321-7.081,2.667-5.391A10.028,10.028,0,0,0,612.557,380.887Z" transform="translate(-587.507 -371.908)" fill="url(#linear-gradient-6)"/>
      </g>
      <path id="Tracciato_4824" data-name="Tracciato 4824" d="M455.413,388.847s-2.164-1.981-1.922-8.531c.024-.66.232-1.909.225-2.287,1.066,1.794,3.11.119,3.708,6.669-.187.433-.466,1.1-.774,1.746C455.979,387.855,455.413,388.847,455.413,388.847Z" transform="translate(-191.187 -103.19)" fill="url(#linear-gradient)"/>
      <path id="Tracciato_4825" data-name="Tracciato 4825" d="M733.534,377.973a12.8,12.8,0,0,0-1.137,3.048,13.8,13.8,0,0,0-.4,3.505q.432-.044.883-.112a18.116,18.116,0,0,0,4.471-1.291,8.616,8.616,0,0,0-.084-3.413,3.9,3.9,0,0,0-1.325-2.748,12.131,12.131,0,0,1-1.156.566C734.158,377.789,733.534,377.973,733.534,377.973Z" transform="translate(-446.858 -102.211)" fill="url(#linear-gradient-8)"/>
      <path id="Tracciato_4826" data-name="Tracciato 4826" d="M572.327,407.281c-.258-.349-.314-.431-.374-.531a17.971,17.971,0,0,1-.587,2.177c1.137,2.268,2.656,3.494,4.494,5.25.018-.04.038-.078.056-.118a30.1,30.1,0,0,0,1.235-3.163A10.439,10.439,0,0,1,572.327,407.281Z" transform="translate(-299.409 -129.555)" fill="url(#linear-gradient-9)"/>
      <path id="Tracciato_4827" data-name="Tracciato 4827" d="M633.5,285.083a16.133,16.133,0,0,0-.238-2.536c0-.015-.007-.029-.01-.044a4.222,4.222,0,0,0-1.2-2.216,5.976,5.976,0,0,0-.943,2.237,14.915,14.915,0,0,0-.117,2.6,7.362,7.362,0,0,0,.125.757,5.451,5.451,0,0,0,.969,1.987,3.909,3.909,0,0,0,.465.489,7.77,7.77,0,0,0,.642.46A30.193,30.193,0,0,0,633.5,285.083Z" transform="translate(-354.132 -13.467)" fill="url(#linear-gradient-10)"/>
      <path id="Tracciato_4828" data-name="Tracciato 4828" d="M612.569,380.885a20.262,20.262,0,0,0-1.055,5.953,11.831,11.831,0,0,1-1.657-.547,10.414,10.414,0,0,1-1-.47c-3.4-1.965-.322-7.081,2.667-5.391A9.992,9.992,0,0,0,612.569,380.885Z" transform="translate(-332.458 -105.086)" fill="url(#linear-gradient-11)"/>
      <g id="Raggruppa_5376" data-name="Raggruppa 5376" transform="translate(245.199 265.617)">
        <path id="Tracciato_4829" data-name="Tracciato 4829" d="M299.4,278.512a3.109,3.109,0,0,0-3.908,1.911c-.077.195-.15.349-.349.789a12.164,12.164,0,0,1-1.7,2.8,9.56,9.56,0,0,1-2.357,2.176,5.1,5.1,0,0,1-2.784.81,2.566,2.566,0,0,1-2.143-.951,5.681,5.681,0,0,1-1.017-3.45l-.01-.287a19.247,19.247,0,0,0,3.362-.68,15.562,15.562,0,0,0,4.374-2.046,11.991,11.991,0,0,0,2.462-2.214,6.893,6.893,0,0,0,.823-1.093h0a1.308,1.308,0,0,0,.083-.144,6.874,6.874,0,0,0-5.964-10.292,6.77,6.77,0,0,0-4.147,1.352l-.525.39a14.533,14.533,0,0,0-3.687,4.238,20.127,20.127,0,0,0-1.8,3.974c-.266-.1-.854-.34-.991-.42l-.054-.035a30.189,30.189,0,0,0,.3-3.73,16.136,16.136,0,0,0-.238-2.536c0-.015-.007-.029-.01-.044a4.228,4.228,0,0,0-4.149-3.419,3.942,3.942,0,0,0-2.749,1.082,4.674,4.674,0,0,0-1.47,2.876,10.456,10.456,0,0,0,1.791,7.62,19.813,19.813,0,0,1-3.8,8.075c-2.343,2.685-4.515.387-4.515.387a53,53,0,0,0,2.626-5.728,16.385,16.385,0,0,0,.837-5.26,6.717,6.717,0,0,0-1.071-3.461,4.118,4.118,0,0,0-3.875-1.787,5.094,5.094,0,0,0-3.4,1.354,7.5,7.5,0,0,0-1.868,2.764,13.024,13.024,0,0,0-.789,3.155,18.633,18.633,0,0,0-.153,2.884,24.444,24.444,0,0,0,.242,2.622,15.879,15.879,0,0,0,.585,2.437,10.287,10.287,0,0,1-1.13,1.148,3.46,3.46,0,0,1-2.5.742c-1.871-.442-2.736-3.139-2.091-8.488.144-1.193.3-2.321.47-3.389s.3-1.58.515-2.54c.155-.692.574-2.439.574-2.441a3.266,3.266,0,0,0-2.444-3.871,3.33,3.33,0,0,0-3.85,2.576s-.39,1.366-.606,2.433c-.224,1.1-.353,1.663-.53,2.867-.185,1.249-.335,2.561-.445,3.9a34.687,34.687,0,0,0-.1,4.049,27.613,27.613,0,0,0,.37,3.506,13.377,13.377,0,0,0,1.184,3.728,8.178,8.178,0,0,0,2.543,3.045,7.922,7.922,0,0,0,4.375,1.183c.107,0,.216,0,.326-.006a8.394,8.394,0,0,0,4.233-1.326c.25-.157.5-.3.738-.445a15.854,15.854,0,0,0,1.535-.988,10.343,10.343,0,0,0,2.076,1.658,7.762,7.762,0,0,0,4.378,1.063,8.015,8.015,0,0,0,5.847-2.833,22.541,22.541,0,0,0,3.683-5.705,30.152,30.152,0,0,0,1.234-3.163,12.551,12.551,0,0,0,1.314.411c-.009.357-.01.711,0,1.061a16.248,16.248,0,0,0,.549,3.612,9.8,9.8,0,0,0,1.622,3.389,8.249,8.249,0,0,0,2.96,2.421,8.694,8.694,0,0,0,3.915.838c.139,0,.28,0,.423-.007a11.177,11.177,0,0,0,5.628-1.63,15.891,15.891,0,0,0,3.986-3.511,19.438,19.438,0,0,0,2.494-4.06c.582-1.22.478-.991.638-1.347A3.065,3.065,0,0,0,299.4,278.512Zm-12.659-2.885a12.5,12.5,0,0,1,1.337-2.044,7.907,7.907,0,0,1,1.71-1.583l.007,0,.016-.01a.252.252,0,0,1,.031-.014,1,1,0,0,1,1.14.072.872.872,0,0,1,.147.2.679.679,0,0,1,.033.062c.007.017.015.034.021.051s.013.04.018.061a1.066,1.066,0,0,1-.231.847.383.383,0,0,1-.042.057l-.026.026,0,.006,0,0a6.62,6.62,0,0,1-1.7,1.324,11.573,11.573,0,0,1-2.452,1.057l-.069.021Z" transform="translate(-245.199 -265.617)" fill="url(#linear-gradient-12)"/>
        <g id="Raggruppa_5375" data-name="Raggruppa 5375" transform="translate(9.861 1.204)">
          <path id="Tracciato_4830" data-name="Tracciato 4830" d="M455.4,388.849s-2.164-1.981-1.922-8.531c.025-.66.232-1.909.225-2.287,1.066,1.793,3.11.119,3.708,6.669-.187.433-.466,1.1-.774,1.746C455.966,387.857,455.4,388.849,455.4,388.849Z" transform="translate(-446.236 -370.013)" fill="url(#linear-gradient)"/>
          <path id="Tracciato_4831" data-name="Tracciato 4831" d="M733.521,377.974a12.8,12.8,0,0,0-1.137,3.048,13.8,13.8,0,0,0-.4,3.505q.432-.044.883-.112a18.114,18.114,0,0,0,4.471-1.291,8.613,8.613,0,0,0-.084-3.413,3.9,3.9,0,0,0-1.325-2.748,12.142,12.142,0,0,1-1.156.566C734.146,377.79,733.521,377.974,733.521,377.974Z" transform="translate(-701.907 -369.032)" fill="url(#linear-gradient-2)"/>
          <path id="Tracciato_4832" data-name="Tracciato 4832" d="M572.315,407.282c-.258-.349-.314-.431-.374-.531a17.978,17.978,0,0,1-.587,2.177c1.137,2.267,2.656,3.494,4.494,5.249.018-.04.038-.078.056-.117a30.1,30.1,0,0,0,1.235-3.163A10.441,10.441,0,0,1,572.315,407.282Z" transform="translate(-554.458 -396.377)" fill="url(#linear-gradient-3)"/>
          <path id="Tracciato_4833" data-name="Tracciato 4833" d="M633.49,285.085a16.14,16.14,0,0,0-.238-2.536c0-.015-.007-.029-.01-.044a4.222,4.222,0,0,0-1.2-2.216,5.975,5.975,0,0,0-.943,2.237,14.922,14.922,0,0,0-.117,2.6,7.4,7.4,0,0,0,.125.757,5.449,5.449,0,0,0,.969,1.987,3.913,3.913,0,0,0,.465.489,7.8,7.8,0,0,0,.642.46A30.2,30.2,0,0,0,633.49,285.085Z" transform="translate(-609.181 -280.29)" fill="url(#linear-gradient-4)"/>
          <path id="Tracciato_4834" data-name="Tracciato 4834" d="M367.7,497.481a12.638,12.638,0,0,0,1.264,3.031,14.579,14.579,0,0,0,1.9,2.652c-.172.126-.439.318-.767.528-.234.149-.567.342-.774.464-.277.164-.5.3-.994.6a4.416,4.416,0,0,1-2.233-1.853,5.024,5.024,0,0,1-.69-2.739,3.206,3.206,0,0,1,.174-.977,4.967,4.967,0,0,0,.994-.558A10.541,10.541,0,0,0,367.7,497.481Z" transform="translate(-365.399 -479.663)" fill="url(#linear-gradient-5)"/>
          <path id="Tracciato_4835" data-name="Tracciato 4835" d="M612.557,380.887a20.256,20.256,0,0,0-1.055,5.953,11.817,11.817,0,0,1-1.657-.547,10.4,10.4,0,0,1-1-.47c-3.4-1.965-.321-7.081,2.667-5.391A10.028,10.028,0,0,0,612.557,380.887Z" transform="translate(-587.507 -371.908)" fill="url(#linear-gradient-6)"/>
        </g>
        <path id="Tracciato_4836" data-name="Tracciato 4836" d="M455.413,388.847s-2.164-1.981-1.922-8.531c.024-.66.232-1.909.225-2.287,1.066,1.794,3.11.119,3.708,6.669-.187.433-.466,1.1-.774,1.746C455.979,387.855,455.413,388.847,455.413,388.847Z" transform="translate(-436.387 -368.807)" fill="url(#linear-gradient)"/>
        <path id="Tracciato_4837" data-name="Tracciato 4837" d="M733.534,377.973a12.8,12.8,0,0,0-1.137,3.048,13.8,13.8,0,0,0-.4,3.505q.432-.044.883-.112a18.116,18.116,0,0,0,4.471-1.291,8.616,8.616,0,0,0-.084-3.413,3.9,3.9,0,0,0-1.325-2.748,12.131,12.131,0,0,1-1.156.566C734.158,377.789,733.534,377.973,733.534,377.973Z" transform="translate(-692.057 -367.828)" fill="url(#linear-gradient-8)"/>
        <path id="Tracciato_4838" data-name="Tracciato 4838" d="M572.327,407.281c-.258-.349-.314-.431-.374-.531a17.971,17.971,0,0,1-.587,2.177c1.137,2.268,2.656,3.494,4.494,5.25.018-.04.038-.078.056-.118a30.1,30.1,0,0,0,1.235-3.163A10.439,10.439,0,0,1,572.327,407.281Z" transform="translate(-544.608 -395.172)" fill="url(#linear-gradient-9)"/>
        <path id="Tracciato_4839" data-name="Tracciato 4839" d="M633.5,285.083a16.133,16.133,0,0,0-.238-2.536c0-.015-.007-.029-.01-.044a4.222,4.222,0,0,0-1.2-2.216,5.976,5.976,0,0,0-.943,2.237,14.915,14.915,0,0,0-.117,2.6,7.362,7.362,0,0,0,.125.757,5.451,5.451,0,0,0,.969,1.987,3.909,3.909,0,0,0,.465.489,7.77,7.77,0,0,0,.642.46A30.193,30.193,0,0,0,633.5,285.083Z" transform="translate(-599.331 -279.084)" fill="url(#linear-gradient-10)"/>
        <path id="Tracciato_4840" data-name="Tracciato 4840" d="M612.569,380.885a20.262,20.262,0,0,0-1.055,5.953,11.831,11.831,0,0,1-1.657-.547,10.414,10.414,0,0,1-1-.47c-3.4-1.965-.322-7.081,2.667-5.391A9.992,9.992,0,0,0,612.569,380.885Z" transform="translate(-577.658 -370.703)" fill="url(#linear-gradient-11)"/>
      </g>
      <g id="Raggruppa_5380" data-name="Raggruppa 5380" transform="translate(245.199 265.617)">
        <path id="Tracciato_4841" data-name="Tracciato 4841" d="M299.4,278.512a3.109,3.109,0,0,0-3.908,1.911c-.077.195-.15.349-.349.789a12.164,12.164,0,0,1-1.7,2.8,9.56,9.56,0,0,1-2.357,2.176,5.1,5.1,0,0,1-2.784.81,2.566,2.566,0,0,1-2.143-.951,5.681,5.681,0,0,1-1.017-3.45l-.01-.287a19.247,19.247,0,0,0,3.362-.68,15.562,15.562,0,0,0,4.374-2.046,11.991,11.991,0,0,0,2.462-2.214,6.893,6.893,0,0,0,.823-1.093h0a1.308,1.308,0,0,0,.083-.144,6.874,6.874,0,0,0-5.964-10.292,6.77,6.77,0,0,0-4.147,1.352l-.525.39a14.533,14.533,0,0,0-3.687,4.238,20.127,20.127,0,0,0-1.8,3.974c-.266-.1-.854-.34-.991-.42l-.054-.035a30.189,30.189,0,0,0,.3-3.73,16.136,16.136,0,0,0-.238-2.536c0-.015-.007-.029-.01-.044a4.228,4.228,0,0,0-4.149-3.419,3.942,3.942,0,0,0-2.749,1.082,4.674,4.674,0,0,0-1.47,2.876,10.456,10.456,0,0,0,1.791,7.62,19.813,19.813,0,0,1-3.8,8.075c-2.343,2.685-4.515.387-4.515.387a53,53,0,0,0,2.626-5.728,16.385,16.385,0,0,0,.837-5.26,6.717,6.717,0,0,0-1.071-3.461,4.118,4.118,0,0,0-3.875-1.787,5.094,5.094,0,0,0-3.4,1.354,7.5,7.5,0,0,0-1.868,2.764,13.024,13.024,0,0,0-.789,3.155,18.633,18.633,0,0,0-.153,2.884,24.444,24.444,0,0,0,.242,2.622,15.879,15.879,0,0,0,.585,2.437,10.287,10.287,0,0,1-1.13,1.148,3.46,3.46,0,0,1-2.5.742c-1.871-.442-2.736-3.139-2.091-8.488.144-1.193.3-2.321.47-3.389s.3-1.58.515-2.54c.155-.692.574-2.439.574-2.441a3.266,3.266,0,0,0-2.444-3.871,3.33,3.33,0,0,0-3.85,2.576s-.39,1.366-.606,2.433c-.224,1.1-.353,1.663-.53,2.867-.185,1.249-.335,2.561-.445,3.9a34.687,34.687,0,0,0-.1,4.049,27.613,27.613,0,0,0,.37,3.506,13.377,13.377,0,0,0,1.184,3.728,8.178,8.178,0,0,0,2.543,3.045,7.922,7.922,0,0,0,4.375,1.183c.107,0,.216,0,.326-.006a8.394,8.394,0,0,0,4.233-1.326c.25-.157.5-.3.738-.445a15.854,15.854,0,0,0,1.535-.988,10.343,10.343,0,0,0,2.076,1.658,7.762,7.762,0,0,0,4.378,1.063,8.015,8.015,0,0,0,5.847-2.833,22.541,22.541,0,0,0,3.683-5.705,30.152,30.152,0,0,0,1.234-3.163,12.551,12.551,0,0,0,1.314.411c-.009.357-.01.711,0,1.061a16.248,16.248,0,0,0,.549,3.612,9.8,9.8,0,0,0,1.622,3.389,8.249,8.249,0,0,0,2.96,2.421,8.694,8.694,0,0,0,3.915.838c.139,0,.28,0,.423-.007a11.177,11.177,0,0,0,5.628-1.63,15.891,15.891,0,0,0,3.986-3.511,19.438,19.438,0,0,0,2.494-4.06c.582-1.22.478-.991.638-1.347A3.065,3.065,0,0,0,299.4,278.512Zm-12.659-2.885a12.5,12.5,0,0,1,1.337-2.044,7.907,7.907,0,0,1,1.71-1.583l.007,0,.016-.01a.252.252,0,0,1,.031-.014,1,1,0,0,1,1.14.072.872.872,0,0,1,.147.2.679.679,0,0,1,.033.062c.007.017.015.034.021.051s.013.04.018.061a1.066,1.066,0,0,1-.231.847.383.383,0,0,1-.042.057l-.026.026,0,.006,0,0a6.62,6.62,0,0,1-1.7,1.324,11.573,11.573,0,0,1-2.452,1.057l-.069.021Z" transform="translate(-245.199 -265.617)" fill="#ea544c"/>
        <g id="Raggruppa_5377" data-name="Raggruppa 5377" transform="translate(9.861 1.204)">
          <path id="Tracciato_4842" data-name="Tracciato 4842" d="M455.4,388.849s-2.164-1.981-1.922-8.531c.025-.66.232-1.909.225-2.287,1.066,1.793,3.11.119,3.708,6.669-.187.433-.466,1.1-.774,1.746C455.966,387.857,455.4,388.849,455.4,388.849Z" transform="translate(-446.236 -370.013)" fill="url(#linear-gradient)"/>
          <path id="Tracciato_4843" data-name="Tracciato 4843" d="M733.521,377.974a12.8,12.8,0,0,0-1.137,3.048,13.8,13.8,0,0,0-.4,3.505q.432-.044.883-.112a18.114,18.114,0,0,0,4.471-1.291,8.613,8.613,0,0,0-.084-3.413,3.9,3.9,0,0,0-1.325-2.748,12.142,12.142,0,0,1-1.156.566C734.146,377.79,733.521,377.974,733.521,377.974Z" transform="translate(-701.907 -369.032)" fill="url(#linear-gradient-2)"/>
          <path id="Tracciato_4844" data-name="Tracciato 4844" d="M572.315,407.282c-.258-.349-.314-.431-.374-.531a17.978,17.978,0,0,1-.587,2.177c1.137,2.267,2.656,3.494,4.494,5.249.018-.04.038-.078.056-.117a30.1,30.1,0,0,0,1.235-3.163A10.441,10.441,0,0,1,572.315,407.282Z" transform="translate(-554.458 -396.377)" fill="url(#linear-gradient-3)"/>
          <path id="Tracciato_4845" data-name="Tracciato 4845" d="M633.49,285.085a16.14,16.14,0,0,0-.238-2.536c0-.015-.007-.029-.01-.044a4.222,4.222,0,0,0-1.2-2.216,5.975,5.975,0,0,0-.943,2.237,14.922,14.922,0,0,0-.117,2.6,7.4,7.4,0,0,0,.125.757,5.449,5.449,0,0,0,.969,1.987,3.913,3.913,0,0,0,.465.489,7.8,7.8,0,0,0,.642.46A30.2,30.2,0,0,0,633.49,285.085Z" transform="translate(-609.181 -280.29)" fill="url(#linear-gradient-4)"/>
          <path id="Tracciato_4846" data-name="Tracciato 4846" d="M367.7,497.481a12.638,12.638,0,0,0,1.264,3.031,14.579,14.579,0,0,0,1.9,2.652c-.172.126-.439.318-.767.528-.234.149-.567.342-.774.464-.277.164-.5.3-.994.6a4.416,4.416,0,0,1-2.233-1.853,5.024,5.024,0,0,1-.69-2.739,3.206,3.206,0,0,1,.174-.977,4.967,4.967,0,0,0,.994-.558A10.541,10.541,0,0,0,367.7,497.481Z" transform="translate(-365.399 -479.663)" fill="url(#linear-gradient-5)"/>
          <path id="Tracciato_4847" data-name="Tracciato 4847" d="M612.557,380.887a20.256,20.256,0,0,0-1.055,5.953,11.817,11.817,0,0,1-1.657-.547,10.4,10.4,0,0,1-1-.47c-3.4-1.965-.321-7.081,2.667-5.391A10.028,10.028,0,0,0,612.557,380.887Z" transform="translate(-587.507 -371.908)" fill="url(#linear-gradient-6)"/>
        </g>
        <path id="Tracciato_4848" data-name="Tracciato 4848" d="M455.413,388.847s-2.164-1.981-1.922-8.531c.024-.66.232-1.909.225-2.287,1.066,1.794,3.11.119,3.708,6.669-.187.433-.466,1.1-.774,1.746C455.979,387.855,455.413,388.847,455.413,388.847Z" transform="translate(-436.387 -368.807)" fill="url(#linear-gradient)"/>
        <path id="Tracciato_4849" data-name="Tracciato 4849" d="M733.534,377.973a12.8,12.8,0,0,0-1.137,3.048,13.8,13.8,0,0,0-.4,3.505q.432-.044.883-.112a18.116,18.116,0,0,0,4.471-1.291,8.616,8.616,0,0,0-.084-3.413,3.9,3.9,0,0,0-1.325-2.748,12.131,12.131,0,0,1-1.156.566C734.158,377.789,733.534,377.973,733.534,377.973Z" transform="translate(-692.057 -367.828)" fill="url(#linear-gradient-8)"/>
        <path id="Tracciato_4850" data-name="Tracciato 4850" d="M572.327,407.281c-.258-.349-.314-.431-.374-.531a17.971,17.971,0,0,1-.587,2.177c1.137,2.268,2.656,3.494,4.494,5.25.018-.04.038-.078.056-.118a30.1,30.1,0,0,0,1.235-3.163A10.439,10.439,0,0,1,572.327,407.281Z" transform="translate(-544.608 -395.172)" fill="url(#linear-gradient-9)"/>
        <path id="Tracciato_4851" data-name="Tracciato 4851" d="M633.5,285.083a16.133,16.133,0,0,0-.238-2.536c0-.015-.007-.029-.01-.044a4.222,4.222,0,0,0-1.2-2.216,5.976,5.976,0,0,0-.943,2.237,14.915,14.915,0,0,0-.117,2.6,7.362,7.362,0,0,0,.125.757,5.451,5.451,0,0,0,.969,1.987,3.909,3.909,0,0,0,.465.489,7.77,7.77,0,0,0,.642.46A30.193,30.193,0,0,0,633.5,285.083Z" transform="translate(-599.331 -279.084)" fill="url(#linear-gradient-10)"/>
        <path id="Tracciato_4852" data-name="Tracciato 4852" d="M612.569,380.885a20.262,20.262,0,0,0-1.055,5.953,11.831,11.831,0,0,1-1.657-.547,10.414,10.414,0,0,1-1-.47c-3.4-1.965-.322-7.081,2.667-5.391A9.992,9.992,0,0,0,612.569,380.885Z" transform="translate(-577.658 -370.703)" fill="url(#linear-gradient-11)"/>
        <g id="Raggruppa_5379" data-name="Raggruppa 5379" transform="translate(0)">
          <path id="Tracciato_4853" data-name="Tracciato 4853" d="M299.4,278.512a3.109,3.109,0,0,0-3.908,1.911c-.077.195-.15.349-.349.789a12.164,12.164,0,0,1-1.7,2.8,9.56,9.56,0,0,1-2.357,2.176,5.1,5.1,0,0,1-2.784.81,2.566,2.566,0,0,1-2.143-.951,5.681,5.681,0,0,1-1.017-3.45l-.01-.287a19.247,19.247,0,0,0,3.362-.68,15.562,15.562,0,0,0,4.374-2.046,11.991,11.991,0,0,0,2.462-2.214,6.893,6.893,0,0,0,.823-1.093h0a1.308,1.308,0,0,0,.083-.144,6.874,6.874,0,0,0-5.964-10.292,6.77,6.77,0,0,0-4.147,1.352l-.525.39a14.533,14.533,0,0,0-3.687,4.238,20.127,20.127,0,0,0-1.8,3.974c-.266-.1-.854-.34-.991-.42l-.054-.035a30.189,30.189,0,0,0,.3-3.73,16.136,16.136,0,0,0-.238-2.536c0-.015-.007-.029-.01-.044a4.228,4.228,0,0,0-4.149-3.419,3.942,3.942,0,0,0-2.749,1.082,4.674,4.674,0,0,0-1.47,2.876,10.456,10.456,0,0,0,1.791,7.62,19.813,19.813,0,0,1-3.8,8.075c-2.343,2.685-4.515.387-4.515.387a53,53,0,0,0,2.626-5.728,16.385,16.385,0,0,0,.837-5.26,6.717,6.717,0,0,0-1.071-3.461,4.118,4.118,0,0,0-3.875-1.787,5.094,5.094,0,0,0-3.4,1.354,7.5,7.5,0,0,0-1.868,2.764,13.024,13.024,0,0,0-.789,3.155,18.633,18.633,0,0,0-.153,2.884,24.444,24.444,0,0,0,.242,2.622,15.879,15.879,0,0,0,.585,2.437,10.287,10.287,0,0,1-1.13,1.148,3.46,3.46,0,0,1-2.5.742c-1.871-.442-2.736-3.139-2.091-8.488.144-1.193.3-2.321.47-3.389s.3-1.58.515-2.54c.155-.692.574-2.439.574-2.441a3.266,3.266,0,0,0-2.444-3.871,3.33,3.33,0,0,0-3.85,2.576s-.39,1.366-.606,2.433c-.224,1.1-.353,1.663-.53,2.867-.185,1.249-.335,2.561-.445,3.9a34.687,34.687,0,0,0-.1,4.049,27.613,27.613,0,0,0,.37,3.506,13.377,13.377,0,0,0,1.184,3.728,8.178,8.178,0,0,0,2.543,3.045,7.922,7.922,0,0,0,4.375,1.183c.107,0,.216,0,.326-.006a8.394,8.394,0,0,0,4.233-1.326c.25-.157.5-.3.738-.445a15.854,15.854,0,0,0,1.535-.988,10.343,10.343,0,0,0,2.076,1.658,7.762,7.762,0,0,0,4.378,1.063,8.015,8.015,0,0,0,5.847-2.833,22.541,22.541,0,0,0,3.683-5.705,30.152,30.152,0,0,0,1.234-3.163,12.551,12.551,0,0,0,1.314.411c-.009.357-.01.711,0,1.061a16.248,16.248,0,0,0,.549,3.612,9.8,9.8,0,0,0,1.622,3.389,8.249,8.249,0,0,0,2.96,2.421,8.694,8.694,0,0,0,3.915.838c.139,0,.28,0,.423-.007a11.177,11.177,0,0,0,5.628-1.63,15.891,15.891,0,0,0,3.986-3.511,19.438,19.438,0,0,0,2.494-4.06c.582-1.22.478-.991.638-1.347A3.065,3.065,0,0,0,299.4,278.512Zm-12.659-2.885a12.5,12.5,0,0,1,1.337-2.044,7.907,7.907,0,0,1,1.71-1.583l.007,0,.016-.01a.252.252,0,0,1,.031-.014,1,1,0,0,1,1.14.072.872.872,0,0,1,.147.2.679.679,0,0,1,.033.062c.007.017.015.034.021.051s.013.04.018.061a1.066,1.066,0,0,1-.231.847.383.383,0,0,1-.042.057l-.026.026,0,.006,0,0a6.62,6.62,0,0,1-1.7,1.324,11.573,11.573,0,0,1-2.452,1.057l-.069.021Z" transform="translate(-245.199 -265.617)" fill="#ea544c"/>
          <g id="Raggruppa_5378" data-name="Raggruppa 5378" transform="translate(9.861 1.204)">
            <path id="Tracciato_4854" data-name="Tracciato 4854" d="M455.4,388.849s-2.164-1.981-1.922-8.531c.025-.66.232-1.909.225-2.287,1.066,1.793,3.11.119,3.708,6.669-.187.433-.466,1.1-.774,1.746C455.966,387.857,455.4,388.849,455.4,388.849Z" transform="translate(-446.236 -370.013)" fill="url(#linear-gradient)"/>
            <path id="Tracciato_4855" data-name="Tracciato 4855" d="M733.521,377.974a12.8,12.8,0,0,0-1.137,3.048,13.8,13.8,0,0,0-.4,3.505q.432-.044.883-.112a18.114,18.114,0,0,0,4.471-1.291,8.613,8.613,0,0,0-.084-3.413,3.9,3.9,0,0,0-1.325-2.748,12.142,12.142,0,0,1-1.156.566C734.146,377.79,733.521,377.974,733.521,377.974Z" transform="translate(-701.907 -369.032)" fill="url(#linear-gradient-2)"/>
            <path id="Tracciato_4856" data-name="Tracciato 4856" d="M572.315,407.282c-.258-.349-.314-.431-.374-.531a17.978,17.978,0,0,1-.587,2.177c1.137,2.267,2.656,3.494,4.494,5.249.018-.04.038-.078.056-.117a30.1,30.1,0,0,0,1.235-3.163A10.441,10.441,0,0,1,572.315,407.282Z" transform="translate(-554.458 -396.377)" fill="url(#linear-gradient-3)"/>
            <path id="Tracciato_4857" data-name="Tracciato 4857" d="M633.49,285.085a16.14,16.14,0,0,0-.238-2.536c0-.015-.007-.029-.01-.044a4.222,4.222,0,0,0-1.2-2.216,5.975,5.975,0,0,0-.943,2.237,14.922,14.922,0,0,0-.117,2.6,7.4,7.4,0,0,0,.125.757,5.449,5.449,0,0,0,.969,1.987,3.913,3.913,0,0,0,.465.489,7.8,7.8,0,0,0,.642.46A30.2,30.2,0,0,0,633.49,285.085Z" transform="translate(-609.181 -280.29)" fill="url(#linear-gradient-4)"/>
            <path id="Tracciato_4858" data-name="Tracciato 4858" d="M367.7,497.481a12.638,12.638,0,0,0,1.264,3.031,14.579,14.579,0,0,0,1.9,2.652c-.172.126-.439.318-.767.528-.234.149-.567.342-.774.464-.277.164-.5.3-.994.6a4.416,4.416,0,0,1-2.233-1.853,5.024,5.024,0,0,1-.69-2.739,3.206,3.206,0,0,1,.174-.977,4.967,4.967,0,0,0,.994-.558A10.541,10.541,0,0,0,367.7,497.481Z" transform="translate(-365.399 -479.663)" fill="url(#linear-gradient-5)"/>
            <path id="Tracciato_4859" data-name="Tracciato 4859" d="M612.557,380.887a20.256,20.256,0,0,0-1.055,5.953,11.817,11.817,0,0,1-1.657-.547,10.4,10.4,0,0,1-1-.47c-3.4-1.965-.321-7.081,2.667-5.391A10.028,10.028,0,0,0,612.557,380.887Z" transform="translate(-430.924 -371.908)" fill="url(#linear-gradient-6)"/>
          </g>
        </g>
      </g>
    </g>
  </g>
</svg>
