<svg xmlns="http://www.w3.org/2000/svg" width="164.147" height="132.921" viewBox="0 0 164.147 132.921">
  <g id="noun_partnership_3107730" transform="translate(339.899 -23.085)">
    <g id="Raggruppa_5631" data-name="Raggruppa 5631" transform="translate(-339.899 23.085)">
      <path id="Tracciato_5552" data-name="Tracciato 5552" d="M50.654,13.613l4.358,13.423a1,1,0,0,0,.949.684H70.074a.993.993,0,0,1,.582,1.795l-11.418,8.3a.994.994,0,0,0-.36,1.111l4.358,13.423a.989.989,0,0,1-1.525,1.1l-11.418-8.3a.991.991,0,0,0-1.165,0l-11.418,8.3a.993.993,0,0,1-1.531-1.1l4.364-13.423a1,1,0,0,0-.36-1.111l-11.418-8.3a.992.992,0,0,1,.582-1.795H43.462a.993.993,0,0,0,.942-.684l4.364-13.423A.991.991,0,0,1,50.654,13.613Z" transform="translate(79.858 -12.929)" fill="#fff"/>
      <path id="Tracciato_5553" data-name="Tracciato 5553" d="M94.806,124.822a4.749,4.749,0,0,1-.066-9.5l16.533-.006-.372-1.489A27.389,27.389,0,0,0,90.363,93.672L77.1,90.778a4.791,4.791,0,0,1-3.62-4.622V76.773a4.461,4.461,0,0,1,1.867-3.752,21.84,21.84,0,0,0,8.729-14.69l.624-4.724a57.71,57.71,0,0,0,.51-7.618,28.245,28.245,0,0,0-.114-3.122,17.42,17.42,0,0,0-5.319-11.55A17.014,17.014,0,0,0,51.109,42.825a56.983,56.983,0,0,0,.432,10.668l.624,4.73a20.7,20.7,0,0,0,2.954,8.344,23.123,23.123,0,0,0,5.751,6.243,4.962,4.962,0,0,1,1.855,3.74V85.94a4.725,4.725,0,0,1-3.614,4.616L45.8,93.456a27.2,27.2,0,0,0-20.543,20.507l-.336,1.471,51.717-.114a4.752,4.752,0,0,1-.042,9.5l-.594-.03-56.573.006c-.408,0-2.647-.312-3.458-1.807-1.009-1.735-.84-5.217-.582-7.006A36.344,36.344,0,0,1,23.357,97a10.127,10.127,0,0,1,.882-1c.4-.4,3.386-3.266,3.92-3.662.858-.666,1.729-1.393,2.527-2.083l1.135-.961a34.811,34.811,0,0,1,11.808-5.043l9.623-2.119-.1-3.422-.39-.342a30.748,30.748,0,0,1-5.883-7.036,33.759,33.759,0,0,1-4.22-11.946l-.624-4.748a62.351,62.351,0,0,1-.522-12.492,26.919,26.919,0,0,1,8.284-17.775A26.487,26.487,0,0,1,94.391,42.1c.114,1.255.108,2.551.108,3.668a59.536,59.536,0,0,1-.624,8.885l-.624,4.718A30.558,30.558,0,0,1,83.16,78.478l-.4.348-.03,3.428,9.551,2.035c16.377,3.68,28.461,18.706,28.725,35.725a4.439,4.439,0,0,1-1.417,3.434,5.058,5.058,0,0,1-3.326,1.351H95.244Z" transform="translate(13.981 8.099)" fill="#fff"/>
      <path id="Tracciato_5554" data-name="Tracciato 5554" d="M65.463,96.5a4.4,4.4,0,0,1-.054-8.795L75,87.7A17.226,17.226,0,0,0,62.222,75.51L53.3,73.565a4.429,4.429,0,0,1-3.386-4.28V62.975A4.178,4.178,0,0,1,51.7,59.458a13.48,13.48,0,0,0,5.355-9.047l.42-3.17a36.8,36.8,0,0,0,.33-4.977,18.364,18.364,0,0,0-.06-1.957,10.6,10.6,0,0,0-3.224-7.054,10.24,10.24,0,0,0-17.241,6.934,37.235,37.235,0,0,0,.27,6.964l.426,3.188a12.832,12.832,0,0,0,1.819,5.151,14.5,14.5,0,0,0,3.56,3.86,4.535,4.535,0,0,1,1.729,3.476v6.315a4.4,4.4,0,0,1-.72,2.365l-.786,1.231-1.051-1.009a34.954,34.954,0,0,0-5.661-4.442l-.54-.342-.06-2.119A22.283,22.283,0,0,1,32.2,59.944a23.993,23.993,0,0,1-3-8.476l-.426-3.224a43.234,43.234,0,0,1-.36-8.614,19.3,19.3,0,0,1,5.937-12.769A19.018,19.018,0,0,1,66.382,39.575c.078.8.078,1.645.078,2.4a42.931,42.931,0,0,1-.426,6.3l-.426,3.158A21.709,21.709,0,0,1,58.554,64.9l-.006.786,5.469,1.171A26.375,26.375,0,0,1,84.289,92.037a4.194,4.194,0,0,1-1.357,3.224,4.578,4.578,0,0,1-3.038,1.219Z" transform="translate(79.858 30.733)" fill="#fff"/>
      <path id="Tracciato_5555" data-name="Tracciato 5555" d="M14.384,96.479A4.16,4.16,0,0,1,11,94.636c-1-1.735-.606-4.857-.522-5.469A25.644,25.644,0,0,1,16.1,75.822a7.876,7.876,0,0,1,.678-.768c.282-.276,2.4-2.3,2.785-2.581.522-.408,2.4-1.993,2.4-1.993a24.374,24.374,0,0,1,8.458-3.65l5.5-1.207-.024-.8a22.084,22.084,0,0,1-4.064-4.887,23.678,23.678,0,0,1-3-8.476L28.4,48.244a42.908,42.908,0,0,1-.366-8.614,19.334,19.334,0,0,1,5.943-12.769A19.012,19.012,0,0,1,66,39.575c.084.852.084,1.759.084,2.545a41.114,41.114,0,0,1-.432,6.147l-.426,3.158A21.708,21.708,0,0,1,58.183,64.9l-.018,1.993-.564.342-1.471-.57.774.918-1.135.954c-.81.7-1.687,1.435-2.563,2.113-.216.168-.678.6-1.195,1.075l-1.1,1.027-.756-1.309a4.3,4.3,0,0,1-.624-2.155V62.975a4.193,4.193,0,0,1,1.783-3.518,13.483,13.483,0,0,0,5.361-9.047l.42-3.176a37.566,37.566,0,0,0,.33-4.971,16.836,16.836,0,0,0-.066-1.957,10.594,10.594,0,0,0-3.224-7.054A10.244,10.244,0,0,0,36.9,40.188a37.142,37.142,0,0,0,.282,6.964l.414,3.188a12.919,12.919,0,0,0,1.831,5.151,14.374,14.374,0,0,0,3.554,3.86,4.545,4.545,0,0,1,1.729,3.476v6.315a4.371,4.371,0,0,1-3.344,4.268l-8.987,1.957A17.07,17.07,0,0,0,19.595,87.774l22.428-.048L41.674,89.2a34.319,34.319,0,0,0-.786,4.274c-.072.528-.132,1.171-.162,1.855l-.054,1.141Z" transform="translate(-10.328 30.733)" fill="#fff"/>
    </g>
  </g>
</svg>
