<svg xmlns="http://www.w3.org/2000/svg" width="84.103" height="107.255" viewBox="0 0 84.103 107.255">
  <g id="Raggruppa_5966" data-name="Raggruppa 5966" transform="translate(-4465 15801)">
    <rect id="Rettangolo_1457" data-name="Rettangolo 1457" width="49.56" height="38.338" rx="19.169" transform="matrix(0.5, -0.866, 0.866, 0.5, 4465, -15712.933)" fill="#ffcead"/>
    <rect id="Rettangolo_1458" data-name="Rettangolo 1458" width="49.56" height="38.338" rx="19.169" transform="matrix(0.5, -0.866, 0.866, 0.5, 4491.108, -15758.094)" fill="#ffcead"/>
    <path id="Tracciato_5845" data-name="Tracciato 5845" d="M-1894.716,503.115a2.926,2.926,0,0,1-1.408-.4,2.935,2.935,0,0,1-1.058-3.981l19.857-34.437a2.916,2.916,0,0,1,3.978-1.067,2.912,2.912,0,0,1,1.363,1.765,2.941,2.941,0,0,1-.295,2.228l-19.851,34.421a2.9,2.9,0,0,1-1.775,1.363,2.916,2.916,0,0,1-.806.1Z" transform="translate(6391.78 -16230.353)" fill="#ffcead"/>
    <g id="Raggruppa_5605" data-name="Raggruppa 5605" transform="translate(4470.399 -15799.369)">
      <g id="Raggruppa_5965" data-name="Raggruppa 5965" transform="translate(0 0)">
        <path id="Tracciato_5846" data-name="Tracciato 5846" d="M-1948.5,462.985h0a19.165,19.165,0,0,1-19.1-19.181,19.2,19.2,0,0,1,2.378-9.2l5.439-9.874a19.147,19.147,0,0,1,11.443-9.142,2.871,2.871,0,0,1,.805-.115h0a2.918,2.918,0,0,1,2.913,2.916,2.93,2.93,0,0,1-2.1,2.8,13.269,13.269,0,0,0-7.957,6.363l-5.44,9.872a13.334,13.334,0,0,0,5.264,18.084,13.357,13.357,0,0,0,6.37,1.645,13.357,13.357,0,0,0,3.714-.526,13.266,13.266,0,0,0,7.956-6.363l5.44-9.872a13.29,13.29,0,0,0,1.129-10.115,2.9,2.9,0,0,1,.246-2.222,2.9,2.9,0,0,1,1.744-1.4,2.934,2.934,0,0,1,.8-.115,2.948,2.948,0,0,1,2.806,2.1,19.152,19.152,0,0,1-1.625,14.56l-5.439,9.869a19.137,19.137,0,0,1-11.442,9.152A19.229,19.229,0,0,1-1948.5,462.985Zm5.742-26.607a2.927,2.927,0,0,1-1.415-.368,2.934,2.934,0,0,1-1.135-3.96l19.188-34.814a2.916,2.916,0,0,1,3.957-1.143,2.913,2.913,0,0,1,1.4,1.739,2.94,2.94,0,0,1-.252,2.234l-19.182,34.8a2.906,2.906,0,0,1-1.748,1.4,2.93,2.93,0,0,1-.8.118Zm23.977-19.741a2.9,2.9,0,0,1-2.057-.849,2.9,2.9,0,0,1-.859-2.06,2.93,2.93,0,0,1,2.107-2.809,13.293,13.293,0,0,0,7.951-6.354l5.441-9.879a13.308,13.308,0,0,0-5.213-18.062,13.327,13.327,0,0,0-18.086,5.22l-5.439,9.878a13.29,13.29,0,0,0-1.13,10.116,2.909,2.909,0,0,1-.293,2.233,2.9,2.9,0,0,1-1.775,1.353,2.913,2.913,0,0,1-3.527-1.943,19.186,19.186,0,0,1,1.619-14.582l5.439-9.867a19.156,19.156,0,0,1,25.995-7.521,19.157,19.157,0,0,1,7.521,26l-5.445,9.871a19.152,19.152,0,0,1-11.393,9.133l-.848.128Z" transform="translate(1967.603 -369.136)" fill="#ff9d64"/>
      </g>
    </g>
  </g>
</svg>
