<svg id="Livello_1" data-name="Livello 1" xmlns="http://www.w3.org/2000/svg" xmlns:xlink="http://www.w3.org/1999/xlink" viewBox="0 0 192 192"><defs><style>.cls-1{fill:none;}.cls-2{clip-path:url(#clip-path);}.cls-3{fill:#7c6baa;}.cls-4{fill:#ffbea0;}.cls-5{fill:#fff;}</style><clipPath id="clip-path"><rect class="cls-1" width="192" height="192"/></clipPath></defs><g class="cls-2"><path class="cls-3" d="M172.8,96A76.8,76.8,0,1,1,96,19.16,76.81,76.81,0,0,1,172.8,96"/><path class="cls-4" d="M63.84,72v40.79H57.62v-1.5a17.32,17.32,0,0,1-7.72,2.13c-3.77,0-6.52-1.13-8.27-3.4S39,103.93,39,98.59,40,89.37,41.92,87s5-3.63,9.07-3.63a44.82,44.82,0,0,1,6.57.75V72Zm-7.26,34.8,1-.41v-17a39.56,39.56,0,0,0-6.39-.58c-3.89,0-5.82,3.23-5.82,9.68q0,5.31,1.35,7.35a4.77,4.77,0,0,0,4.29,2,15.24,15.24,0,0,0,5.59-1"/><path class="cls-4" d="M94.83,92.82V106a2.69,2.69,0,0,0,.66,1.87,3.12,3.12,0,0,0,1.87.78l-.17,4.78c-3.3,0-5.86-.71-7.66-2.13a22,22,0,0,1-9.28,2.13q-8.58,0-8.59-9.16,0-4.38,2.34-6.34t7.17-2.36l7.43-.63V92.82a3.48,3.48,0,0,0-4-4.14q-3.69,0-9.22.46l-1.84.11-.23-4.43a49.92,49.92,0,0,1,11.55-1.5c3.51,0,6,.76,7.6,2.27s2.34,3.93,2.34,7.23M81.92,100q-4,.34-4,4.32c0,2.65,1.18,4,3.52,4a22.09,22.09,0,0,0,6.11-.93l1-.34V99.33Z"/><path class="cls-4" d="M117.1,98.47a5.65,5.65,0,1,1-5.65-5.65,5.65,5.65,0,0,1,5.65,5.65"/><path class="cls-5" d="M148.13,89.81a84.3,84.3,0,0,0-9.91-.92,8.87,8.87,0,0,0-4.26.72,2.49,2.49,0,0,0-1.19,2.29,2.26,2.26,0,0,0,1.31,2.2,28.88,28.88,0,0,0,6.14,1.48q4.84.84,6.87,2.64t2,6.37c0,3-1,5.3-2.93,6.73s-4.8,2.14-8.55,2.14a52.37,52.37,0,0,1-8.92-1l-1.8-.29.23-5.28a86.55,86.55,0,0,0,10,.93,9.19,9.19,0,0,0,4.38-.76,2.62,2.62,0,0,0,1.3-2.49,2.47,2.47,0,0,0-1.24-2.4,24.82,24.82,0,0,0-6-1.45,15.89,15.89,0,0,1-6.93-2.46c-1.47-1.13-2.2-3.17-2.2-6.15a7.68,7.68,0,0,1,3-6.66,13,13,0,0,1,7.8-2.2,54.62,54.62,0,0,1,9.1.92l1.79.35Z"/></g></svg>