<svg xmlns="http://www.w3.org/2000/svg" xmlns:xlink="http://www.w3.org/1999/xlink" width="20.761" height="18.272" viewBox="0 0 20.761 18.272">
  <defs>
    <linearGradient id="linear-gradient" x1="0.5" x2="0.5" y2="1" gradientUnits="objectBoundingBox">
      <stop offset="0" stop-color="#f2666a"/>
      <stop offset="1" stop-color="#ff9d64"/>
    </linearGradient>
  </defs>
  <path id="Tracciato_5574" data-name="Tracciato 5574" d="M13.57,35.1A1.57,1.57,0,0,1,12,33.532V27.015a1.57,1.57,0,0,1,1.57-1.57H17.8a1.608,1.608,0,0,1,.6.124c.124-.19.257-.4.419-.618l2.692-4.12V18.063a.533.533,0,0,1,.533-.533h1.627a2.16,2.16,0,0,1,2.16,2.16v3.653h4.148a2.055,2.055,0,0,1,1.541,3.406,2.055,2.055,0,0,1-.295,2.978,1.95,1.95,0,0,1,.152.771,2.055,2.055,0,0,1-1.294,1.9,2.017,2.017,0,0,1,.067.542A2.055,2.055,0,0,1,28.107,35h-7.9a2.417,2.417,0,0,1-1.294-.381,1.551,1.551,0,0,1-1.113.476Zm0-8.563a.495.495,0,0,0-.5.495v6.517a.5.5,0,0,0,.5.5H17.8a.5.5,0,0,0,.495-.5V32.6a.533.533,0,1,1,1.066,0v1.094a1.646,1.646,0,0,0,.847.247H28.05A.951.951,0,0,0,29,32.99a1.028,1.028,0,0,0-.209-.609.523.523,0,0,1-.067-.561.542.542,0,0,1,.485-.3.951.951,0,0,0,1.018-.951,1.018,1.018,0,0,0-.152-.695.542.542,0,0,1-.114-.476.552.552,0,0,1,.342-.371,1,1,0,0,0,.1-1.827.552.552,0,0,1-.3-.485.542.542,0,0,1,.295-.476.952.952,0,1,0-.428-1.855H25.234a.533.533,0,0,1-.533-.533V19.69a1.085,1.085,0,0,0-1.085-1.085H22.522v2.417a.533.533,0,0,1-.086.295L19.7,25.588a7.706,7.706,0,0,0-.514.818,1.008,1.008,0,0,1,.181.647V31.3a.533.533,0,1,1-1.066,0V27.015a.5.5,0,0,0-.495-.476Z" transform="translate(-11.65 -17.18)" stroke="#ff9d64" stroke-width="0.7" fill="url(#linear-gradient)"/>
</svg>
