<svg xmlns="http://www.w3.org/2000/svg" xmlns:xlink="http://www.w3.org/1999/xlink" width="31.135" height="29.317" viewBox="0 0 31.135 29.317">
  <defs>
    <linearGradient id="linear-gradient" x1="0.5" x2="0.5" y2="1" gradientUnits="objectBoundingBox">
      <stop offset="0" stop-color="#f2666a"/>
      <stop offset="1" stop-color="#ff9d64"/>
    </linearGradient>
  </defs>
  <g id="Raggruppa_5656" data-name="Raggruppa 5656" transform="translate(0.65 0.65)">
    <g id="Raggruppa_5655" data-name="Raggruppa 5655" transform="translate(5.14 7.514)">
      <path id="Tracciato_5569" data-name="Tracciato 5569" d="M-65.181-485.5a10.588,10.588,0,0,0-10.576,10.577,10.588,10.588,0,0,0,10.576,10.576A10.588,10.588,0,0,0-54.6-474.928,10.594,10.594,0,0,0-65.181-485.5Zm0,19.432a8.865,8.865,0,0,1-8.854-8.855,8.865,8.865,0,0,1,8.854-8.855,8.871,8.871,0,0,1,8.856,8.855A8.866,8.866,0,0,1-65.181-466.072Z" transform="translate(75.757 485.504)" fill="url(#linear-gradient)"/>
      <path id="Tracciato_5570" data-name="Tracciato 5570" d="M-64.747-479.988v-.992a.861.861,0,0,0-.861-.861.86.86,0,0,0-.86.861v.989a2.987,2.987,0,0,0-1.377.723,3.005,3.005,0,0,0-.889,2.26,2.54,2.54,0,0,0,.68,1.783,3.132,3.132,0,0,0,2.361.88h.005c.237.014,1.413.129,1.417,1.022a1.266,1.266,0,0,1-1.425,1.081c-.267,0-1.6-.06-1.6-1.122a.86.86,0,0,0-.861-.861.861.861,0,0,0-.861.861,2.593,2.593,0,0,0,.753,1.888,3.437,3.437,0,0,0,1.794.873v1.035a.86.86,0,0,0,.86.861.861.861,0,0,0,.861-.861v-1.081a2.975,2.975,0,0,0,2.193-2.587c0-2.133-2-2.782-3.09-2.83a1.683,1.683,0,0,1-1.147-.331.827.827,0,0,1-.222-.565,1.41,1.41,0,0,1,.346-1.05,1.612,1.612,0,0,1,1.059-.355,1.292,1.292,0,0,1,.965.32,1.563,1.563,0,0,1,.368.994.861.861,0,0,0,.836.878.84.84,0,0,0,.884-.836,3.271,3.271,0,0,0-.848-2.231A2.778,2.778,0,0,0-64.747-479.988Z" transform="translate(76.269 485.782)" fill="url(#linear-gradient)"/>
    </g>
    <path id="Tracciato_5571" data-name="Tracciato 5571" d="M3.823,2.426a.164.164,0,0,1-.048.116L2.027,4.29a.161.161,0,0,1-.058.036.121.121,0,0,1-.058.011A.163.163,0,0,1,1.8,4.29L.048,2.542A.164.164,0,1,1,.28,2.31L1.732,3.763V.18a.179.179,0,1,1,.359,0V3.763L3.544,2.31a.164.164,0,0,1,.28.116Z" transform="translate(29.835 11.071) rotate(180)" stroke="rgba(234,84,76,0.91)" stroke-linecap="round" stroke-linejoin="round" stroke-miterlimit="10" stroke-width="1.3" fill="url(#linear-gradient)"/>
    <path id="Tracciato_5572" data-name="Tracciato 5572" d="M3.823,2.426a.164.164,0,0,1-.048.116L2.027,4.29a.161.161,0,0,1-.058.036.121.121,0,0,1-.058.011A.163.163,0,0,1,1.8,4.29L.048,2.542A.164.164,0,1,1,.28,2.31L1.732,3.763V.18a.179.179,0,1,1,.359,0V3.763L3.544,2.31a.164.164,0,0,1,.28.116Z" transform="translate(17.907 4.337) rotate(180)" stroke="rgba(234,84,76,0.91)" stroke-linecap="round" stroke-linejoin="round" stroke-miterlimit="10" stroke-width="1.3" fill="url(#linear-gradient)"/>
    <path id="Tracciato_5573" data-name="Tracciato 5573" d="M3.823,2.426a.164.164,0,0,1-.048.116L2.027,4.29a.161.161,0,0,1-.058.036.121.121,0,0,1-.058.011A.163.163,0,0,1,1.8,4.29L.048,2.542A.164.164,0,1,1,.28,2.31L1.732,3.763V.18a.179.179,0,1,1,.359,0V3.763L3.544,2.31a.164.164,0,0,1,.28.116Z" transform="translate(3.823 11.973) rotate(180)" stroke="rgba(234,84,76,0.91)" stroke-linecap="round" stroke-linejoin="round" stroke-miterlimit="10" stroke-width="1.3" fill="url(#linear-gradient)"/>
  </g>
</svg>
