<svg xmlns="http://www.w3.org/2000/svg" xmlns:xlink="http://www.w3.org/1999/xlink" width="29.338" height="18.021" viewBox="0 0 29.338 18.021">
  <defs>
    <linearGradient id="linear-gradient" x1="0.5" x2="0.5" y2="1" gradientUnits="objectBoundingBox">
      <stop offset="0" stop-color="#f2666a"/>
      <stop offset="1" stop-color="#ff9d64"/>
    </linearGradient>
  </defs>
  <path id="Tracciato_5566" data-name="Tracciato 5566" d="M39.249,60.08a.553.553,0,0,0-.981.513l1.2,2.3-1.706.932a.307.307,0,0,1-.388-.117l-3.226-6.086a.2.2,0,0,1-.014-.157.253.253,0,0,1,.138-.146l2.649-1.269a.553.553,0,0,0-.478-1L33.8,56.324a1.347,1.347,0,0,0-.713.8,1.288,1.288,0,0,0,.025.873,2.006,2.006,0,0,1-2.078-.03l-1.361-.8a2.513,2.513,0,0,0-1.287-.219H26.347a1.7,1.7,0,0,0-1.153.36l-.009,0a4.815,4.815,0,0,0-3.327.688l-.21.107a2.009,2.009,0,0,1-1.739.022l-.172-.076a1.3,1.3,0,0,0-.06-.367,1.345,1.345,0,0,0-.71-.795L16.319,55.61a.553.553,0,1,0-.478,1l2.652,1.27a.251.251,0,0,1,.136.145.2.2,0,0,1-.014.157l-3.226,6.085a.306.306,0,0,1-.388.117l-1.706-.932,1.2-2.3a.553.553,0,1,0-.981-.513l-1.456,2.785a.553.553,0,0,0,.225.742l2.2,1.2.028.015a1.434,1.434,0,0,0,1.85-.594l3.016-5.69.081.036a3.233,3.233,0,0,0,1.305.278,3.064,3.064,0,0,0,1.376-.323l.219-.112A6.326,6.326,0,0,1,23.74,58.4l-2.318,1.752a.511.511,0,0,0-.04.033,1.276,1.276,0,0,0-.412,1.053,1.213,1.213,0,0,0,.787.9.628.628,0,0,0,.061.024,3.915,3.915,0,0,0,2.583-.156l.042-.021,1.078-.595,8.933,4.9a.654.654,0,0,1,.318.907c-.056.066-.354.351-1.114-.041l-3.85-2.034a.553.553,0,0,0-.517.978l2.915,1.54a.536.536,0,0,1,.157.763.688.688,0,0,1-.776.1l-2.973-1.655a.553.553,0,1,0-.538.967l2.1,1.169c.223.124.145.454.041.628a.75.75,0,0,1-.846.2l-2.118-1.261a.553.553,0,1,0-.566.951l1.363.811a.36.36,0,0,1,.155.22.665.665,0,0,1-.075.51.808.808,0,0,1-.911.21L18.368,66a.553.553,0,1,0-.566.951l8.868,5.277.025.014a1.759,1.759,0,0,0,2.623-1.288,1.907,1.907,0,0,0,.327.031,1.759,1.759,0,0,0,1.523-.791,1.826,1.826,0,0,0,.222-.578,1.956,1.956,0,0,0,.531.076,1.585,1.585,0,0,0,1.391-.709,1.764,1.764,0,0,0,.227-.664,2.4,2.4,0,0,0,.812.157,1.6,1.6,0,0,0,1.362-.686,1.671,1.671,0,0,0,.207-1.289,1.636,1.636,0,0,0-.164-.389,1.6,1.6,0,0,1,1.051-1.416,1.443,1.443,0,0,0,.836.269,1.414,1.414,0,0,0,.606-.136l.028-.015,2.2-1.2a.553.553,0,0,0,.225-.742Zm-13.463.2a.553.553,0,0,0-.533,0l-1.323.73a2.825,2.825,0,0,1-1.743.112.684.684,0,0,1-.1-.061.411.411,0,0,1,.035-.047l3.716-2.808a.528.528,0,0,0,.056-.048.566.566,0,0,1,.38-.112l.055,0h2.089a1.789,1.789,0,0,1,.736.089l1.3.768a3.076,3.076,0,0,0,3.162.073l2.538,4.788a2.624,2.624,0,0,0-1.325,1.475Z" transform="translate(-11.715 -54.718)" stroke="#ff9d64" stroke-width="0.5" fill="url(#linear-gradient)"/>
</svg>
