<svg xmlns="http://www.w3.org/2000/svg" width="58.141" height="79.66" viewBox="0 0 58.141 79.66">
  <g id="Raggruppa_5971" data-name="Raggruppa 5971" transform="translate(-50.586 -39.827)">
    <path id="Tracciato_4691" data-name="Tracciato 4691" d="M-634.124,12.022a2.681,2.681,0,0,1-1.93-.8L-662.4-15.119a2.714,2.714,0,0,1-.8-1.926,2.719,2.719,0,0,1,.8-1.935,2.7,2.7,0,0,1,1.935-.8,2.711,2.711,0,0,1,1.93.8l21.442,21.442V-50.9a2.966,2.966,0,0,1,2.964-2.964,2.966,2.966,0,0,1,2.964,2.964V2.466l21.445-21.442a2.683,2.683,0,0,1,1.93-.8,2.7,2.7,0,0,1,1.931.8,2.69,2.69,0,0,1,.8,1.926,2.692,2.692,0,0,1-.8,1.931l-26.336,26.341a2.686,2.686,0,0,1-.957.614A2.085,2.085,0,0,1-634.124,12.022Z" transform="translate(713.784 93.689)" fill="#fff"/>
    <path id="Tracciato_4692" data-name="Tracciato 4692" d="M-659.439-29.68a2.966,2.966,0,0,1-2.961-2.964,2.965,2.965,0,0,1,2.961-2.96h45.774a2.965,2.965,0,0,1,2.961,2.96,2.966,2.966,0,0,1-2.961,2.964Z" transform="translate(716.209 149.168)" fill="#fff"/>
  </g>
</svg>
