<svg xmlns="http://www.w3.org/2000/svg" width="37" height="37" viewBox="0 0 37 37">
  <g id="facebook_hp" transform="translate(3.493 3.958)">
    <g id="Raggruppa_3121" data-name="Raggruppa 3121" transform="translate(0 0)">
      <g id="facebook-app-logo" transform="translate(0 0)">
        <path id="Tracciato_2243" data-name="Tracciato 2243" d="M28.176,0H1.646A1.646,1.646,0,0,0,0,1.647v26.53a1.647,1.647,0,0,0,1.646,1.647H15.929V18.275H12.043v-4.5h3.886v-3.32c0-3.851,2.352-5.95,5.788-5.95a32.234,32.234,0,0,1,3.472.177V8.706H22.806c-1.868,0-2.229.888-2.229,2.191v2.873h4.458l-.583,4.5H20.576v11.55h7.6a1.648,1.648,0,0,0,1.647-1.646V1.646A1.646,1.646,0,0,0,28.176,0Z" transform="translate(0 -0.001)" fill="#fff"/>
      </g>
    </g>
    <rect id="Rettangolo_1131" data-name="Rettangolo 1131" width="37" height="37" transform="translate(-3.493 -3.958)" fill="none"/>
  </g>
</svg>
