<svg xmlns="http://www.w3.org/2000/svg" xmlns:xlink="http://www.w3.org/1999/xlink" width="40" height="40" viewBox="0 0 40 40"><defs><linearGradient id="a" x1="-0.066" x2="1" y2="1" gradientUnits="objectBoundingBox"><stop offset="0" stop-color="#f2666a"/><stop offset="1" stop-color="#ff9d64"/></linearGradient></defs><g transform="translate(9.593 9.551)"><g transform="translate(0 0)"><path d="M19.5,0H1.139A1.139,1.139,0,0,0,0,1.14V19.5a1.14,1.14,0,0,0,1.139,1.14h9.884V12.646H8.334V9.531h2.689v-2.3a3.753,3.753,0,0,1,4.005-4.117,22.306,22.306,0,0,1,2.4.122V6.025H15.782c-1.293,0-1.542.615-1.542,1.516V9.53h3.085l-.4,3.115H14.239v7.992H19.5a1.14,1.14,0,0,0,1.14-1.139V1.139A1.139,1.139,0,0,0,19.5,0Z" transform="translate(0 -0.001)" fill="url(#a)"/></g><rect width="40" height="40" transform="translate(-9.593 -9.551)" fill="none"/></g></svg>