<svg xmlns="http://www.w3.org/2000/svg" width="27" height="27" viewBox="0 0 27 27">
  <g id="linkedin_hp" transform="translate(3.445 4.361)">
    <path id="Esclusione_1" data-name="Esclusione 1" d="M17.468,21.469H4a4,4,0,0,1-4-4V4A4,4,0,0,1,4,0H17.468a4,4,0,0,1,4,4V17.468A4.005,4.005,0,0,1,17.468,21.469ZM13.384,10.714h0a1.738,1.738,0,0,1,1.738,1.737V18a.205.205,0,0,0,.205.205H18.02A.205.205,0,0,0,18.225,18V11.385a3.415,3.415,0,0,0-3.411-3.412h-.541a3.038,3.038,0,0,0-2.489,1.3,3.112,3.112,0,0,0-.166.266l-.018,0h-.009v-1.1a.206.206,0,0,0-.206-.206H8.756a.206.206,0,0,0-.206.206V18a.206.206,0,0,0,.206.206h2.686A.205.205,0,0,0,11.647,18V12.474a1.755,1.755,0,0,1,1.717-1.76ZM3.991,8.228a.5.5,0,0,0-.495.5V17.71a.5.5,0,0,0,.495.495H6.1a.5.5,0,0,0,.495-.495V8.724a.5.5,0,0,0-.495-.5ZM5.04,6.854h.04A1.8,1.8,0,0,0,5.053,3.26a1.8,1.8,0,0,0-1.81,1.795,1.784,1.784,0,0,0,1.764,1.8Z" transform="translate(-0.931 -1.179)" fill="#fff"/>
    <rect id="Rettangolo_1132" data-name="Rettangolo 1132" width="27" height="27" transform="translate(-3.445 -4.361)" fill="none"/>
  </g>
</svg>
