<svg xmlns="http://www.w3.org/2000/svg" width="28" height="28" viewBox="0 0 28 28">
  <g id="insta_hp" transform="translate(3.299 3.693)">
    <path id="Tracciato_2240" data-name="Tracciato 2240" d="M22.416,6.607a8.253,8.253,0,0,0-.523-2.729,5.51,5.51,0,0,0-1.3-1.991A5.511,5.511,0,0,0,18.605.59,8.252,8.252,0,0,0,15.876.068C14.677.013,14.294,0,11.241,0S7.805.013,6.607.067A8.254,8.254,0,0,0,3.878.59a5.51,5.51,0,0,0-1.991,1.3A5.511,5.511,0,0,0,.59,3.878,8.252,8.252,0,0,0,.068,6.606C.013,7.805,0,8.188,0,11.241s.013,3.436.068,4.635A8.251,8.251,0,0,0,.59,18.6a5.509,5.509,0,0,0,1.3,1.991,5.508,5.508,0,0,0,1.991,1.3,8.249,8.249,0,0,0,2.729.523c1.2.055,1.582.068,4.635.068s3.436-.013,4.635-.068a8.25,8.25,0,0,0,2.729-.523A5.747,5.747,0,0,0,21.893,18.6a8.25,8.25,0,0,0,.523-2.729c.055-1.2.068-1.582.068-4.635s-.013-3.436-.068-4.635Zm-2.024,9.178A6.22,6.22,0,0,1,20,17.871a3.723,3.723,0,0,1-2.134,2.134,6.22,6.22,0,0,1-2.087.387c-1.185.054-1.541.066-4.543.066s-3.357-.011-4.543-.066a6.222,6.222,0,0,1-2.087-.387,3.484,3.484,0,0,1-1.293-.841,3.482,3.482,0,0,1-.841-1.292,6.22,6.22,0,0,1-.387-2.087c-.054-1.185-.066-1.541-.066-4.543s.011-3.357.066-4.543a6.224,6.224,0,0,1,.387-2.087,3.485,3.485,0,0,1,.841-1.293,3.481,3.481,0,0,1,1.293-.841A6.219,6.219,0,0,1,6.7,2.091c1.185-.054,1.541-.066,4.543-.066h0c3,0,3.357.011,4.543.066a6.221,6.221,0,0,1,2.087.387,3.486,3.486,0,0,1,1.293.841A3.481,3.481,0,0,1,20,4.612,6.214,6.214,0,0,1,20.392,6.7c.054,1.185.066,1.541.066,4.543S20.446,14.6,20.392,15.784Zm0,0" transform="translate(-0.829 -0.808)" fill="#fff"/>
    <path id="Tracciato_2241" data-name="Tracciato 2241" d="M130.312,124.539a5.773,5.773,0,1,0,5.773,5.773A5.773,5.773,0,0,0,130.312,124.539Zm0,9.52a3.747,3.747,0,1,1,3.747-3.747A3.747,3.747,0,0,1,130.312,134.059Zm0,0" transform="translate(-119.899 -119.878)" fill="#fff"/>
    <path id="Tracciato_2242" data-name="Tracciato 2242" d="M364.628,89.974a1.349,1.349,0,1,1-1.349-1.349A1.349,1.349,0,0,1,364.628,89.974Zm0,0" transform="translate(-346.865 -85.542)" fill="#fff"/>
    <rect id="Rettangolo_1130" data-name="Rettangolo 1130" width="28" height="28" transform="translate(-3.299 -3.693)" fill="none"/>
  </g>
</svg>
