<svg xmlns="http://www.w3.org/2000/svg" width="37" height="37" viewBox="0 0 37 37">
  <g id="insta_hp" transform="translate(2.998 2.92)">
    <path id="Tracciato_2240" data-name="Tracciato 2240" d="M30.767,9.068a11.328,11.328,0,0,0-.717-3.745A7.562,7.562,0,0,0,28.27,2.59,7.565,7.565,0,0,0,25.537.81,11.326,11.326,0,0,0,21.792.093C20.146.018,19.62,0,15.43,0S10.714.018,9.068.093A11.33,11.33,0,0,0,5.323.81,7.562,7.562,0,0,0,2.59,2.59,7.564,7.564,0,0,0,.809,5.323,11.327,11.327,0,0,0,.093,9.068C.018,10.714,0,11.239,0,15.43s.018,4.716.093,6.362A11.325,11.325,0,0,0,.81,25.537,7.561,7.561,0,0,0,2.59,28.27a7.56,7.56,0,0,0,2.733,1.78,11.322,11.322,0,0,0,3.745.717c1.646.075,2.171.093,6.362.093s4.716-.018,6.362-.093a11.323,11.323,0,0,0,3.745-.717,7.889,7.889,0,0,0,4.513-4.513,11.324,11.324,0,0,0,.717-3.745c.075-1.646.093-2.171.093-6.362s-.018-4.716-.093-6.362Zm-2.778,12.6a8.537,8.537,0,0,1-.531,2.865,5.11,5.11,0,0,1-2.928,2.928,8.537,8.537,0,0,1-2.865.531c-1.627.074-2.115.09-6.235.09s-4.608-.016-6.235-.09a8.54,8.54,0,0,1-2.865-.531A4.782,4.782,0,0,1,4.555,26.3,4.78,4.78,0,0,1,3.4,24.53a8.537,8.537,0,0,1-.531-2.865c-.074-1.627-.09-2.115-.09-6.235s.016-4.608.09-6.235A8.543,8.543,0,0,1,3.4,6.33,4.784,4.784,0,0,1,4.555,4.555,4.777,4.777,0,0,1,6.33,3.4,8.536,8.536,0,0,1,9.195,2.87c1.627-.074,2.115-.09,6.235-.09h0c4.12,0,4.608.016,6.235.09A8.539,8.539,0,0,1,24.53,3.4,4.784,4.784,0,0,1,26.3,4.555,4.777,4.777,0,0,1,27.458,6.33a8.529,8.529,0,0,1,.531,2.865c.074,1.627.09,2.115.09,6.235S28.064,20.038,27.99,21.665Zm0,0" transform="translate(0 0)" fill="#fff"/>
    <path id="Tracciato_2241" data-name="Tracciato 2241" d="M132.462,124.539a7.924,7.924,0,1,0,7.924,7.924A7.924,7.924,0,0,0,132.462,124.539Zm0,13.067a5.143,5.143,0,1,1,5.144-5.144A5.143,5.143,0,0,1,132.462,137.606Zm0,0" transform="translate(-117.033 -117.033)" fill="#fff"/>
    <path id="Tracciato_2242" data-name="Tracciato 2242" d="M365.633,90.477a1.852,1.852,0,1,1-1.852-1.852A1.852,1.852,0,0,1,365.633,90.477Zm0,0" transform="translate(-340.115 -83.284)" fill="#fff"/>
    <rect id="Rettangolo_1130" data-name="Rettangolo 1130" width="37" height="37" transform="translate(-2.998 -2.92)" fill="none"/>
  </g>
</svg>
