<svg xmlns="http://www.w3.org/2000/svg" width="90.131" height="81.586" viewBox="0 0 90.131 81.586">
  <path id="Tracciato_4690" data-name="Tracciato 4690" d="M66.029,95.485A15.082,15.082,0,0,1,53.336,88.6l-4.3-6.64L35.848,86.64a6.662,6.662,0,0,1-2.589,3.538l-2.4,1.563a5.554,5.554,0,0,1-7.665-1.632l-9.584-14.8a5.539,5.539,0,0,1,1.636-7.661l2.411-1.559a5.487,5.487,0,0,1,3-.893,5.39,5.39,0,0,1,1.171.125,2.363,2.363,0,0,1,.549.194l.267.125L61.453,24.965l-.17-.271a5.51,5.51,0,0,1-.929-4.281,5.218,5.218,0,0,1,2.286-3.328l3.6-2.338A5.276,5.276,0,0,1,73.533,16.3l28.461,43.921a5.274,5.274,0,0,1-1.563,7.3l-3.594,2.33a5.285,5.285,0,0,1-7.3-1.563l-.174-.267-.5-.2L78.291,71.572l.275.428a15.147,15.147,0,0,1,2.2,11.543A15.1,15.1,0,0,1,66.029,95.485ZM54.826,79.9l3.526,5.448a9.124,9.124,0,0,0,15.311-9.927l-1.163-1.8Zm-35.993-7.46,9.144,14.063L29.653,85.4,20.529,71.317Zm47.64-50.726,1.284,1.967a3,3,0,0,1-.339,3.691L26.769,69.964l7.144,11.03L89.389,61.3a2.825,2.825,0,0,1,1-.178,2.988,2.988,0,0,1,2.508,1.365l1.284,1.975L96.6,62.885,68.9,20.139Z" transform="translate(-12.713 -13.899)" fill="#fff"/>
</svg>
