<svg xmlns="http://www.w3.org/2000/svg" width="37" height="37" viewBox="0 0 37 37">
  <g id="linkedin_hp" transform="translate(3.445 4.361)">
    <path id="Esclusione_1" data-name="Esclusione 1" d="M25.42,29.419H4a4,4,0,0,1-4-4V4A4,4,0,0,1,4,0H25.42a4,4,0,0,1,4,4V25.42A4,4,0,0,1,25.42,29.419ZM18.344,14.683h0a2.38,2.38,0,0,1,2.379,2.381v7.6a.282.282,0,0,0,.282.282h3.689a.282.282,0,0,0,.282-.282V15.6A4.68,4.68,0,0,0,20.3,10.927H19.56a4.16,4.16,0,0,0-3.411,1.782,4.008,4.008,0,0,0-.228.365l-.039-.005V11.557a.282.282,0,0,0-.282-.281H12a.282.282,0,0,0-.282.281v13.11a.282.282,0,0,0,.282.282h3.68a.282.282,0,0,0,.282-.282V17.094a2.4,2.4,0,0,1,2.353-2.41ZM5.468,11.276a.679.679,0,0,0-.679.678V24.27a.679.679,0,0,0,.679.679H8.356a.679.679,0,0,0,.678-.679V11.954a.678.678,0,0,0-.678-.678ZM6.907,9.392h.056a2.463,2.463,0,0,0-.039-4.925,2.472,2.472,0,0,0-2.48,2.459A2.444,2.444,0,0,0,6.86,9.392Z" transform="translate(0 0)" fill="#fff"/>
    <rect id="Rettangolo_1132" data-name="Rettangolo 1132" width="37" height="37" transform="translate(-3.445 -4.361)" fill="none"/>
  </g>
</svg>
