<svg xmlns="http://www.w3.org/2000/svg" xmlns:xlink="http://www.w3.org/1999/xlink" width="228.631" height="32.779" viewBox="0 0 228.631 32.779">
  <defs>
    <linearGradient id="linear-gradient" x1="0.792" y1="0.429" x2="-0.279" y2="0.576" gradientUnits="objectBoundingBox">
      <stop offset="0" stop-color="#fff" stop-opacity="0"/>
      <stop offset="0.393" stop-color="#cdcdcd" stop-opacity="0.11"/>
      <stop offset="1" stop-color="#4d4d4d" stop-opacity="0.4"/>
    </linearGradient>
    <linearGradient id="linear-gradient-2" x1="0.923" y1="0.415" x2="-0.2" y2="0.605" gradientUnits="objectBoundingBox">
      <stop offset="0" stop-color="#fff" stop-opacity="0"/>
      <stop offset="0.351" stop-color="#e3e3e3" stop-opacity="0.063"/>
      <stop offset="0.758" stop-color="#919191" stop-opacity="0.247"/>
      <stop offset="1" stop-color="#4d4d4d" stop-opacity="0.4"/>
    </linearGradient>
    <linearGradient id="linear-gradient-3" x1="0.338" y1="0.59" x2="0.686" y2="0.279" gradientUnits="objectBoundingBox">
      <stop offset="0" stop-color="#fff" stop-opacity="0"/>
      <stop offset="0.366" stop-color="#e9e9e9" stop-opacity="0.051"/>
      <stop offset="0.713" stop-color="#a7a7a7" stop-opacity="0.196"/>
      <stop offset="1" stop-color="#4d4d4d" stop-opacity="0.4"/>
    </linearGradient>
    <linearGradient id="linear-gradient-4" x1="0.842" y1="0.462" x2="-0.362" y2="0.705" gradientUnits="objectBoundingBox">
      <stop offset="0" stop-color="#fff" stop-opacity="0"/>
      <stop offset="0.504" stop-color="#b2b2b2" stop-opacity="0.173"/>
      <stop offset="1" stop-color="#4d4d4d" stop-opacity="0.4"/>
    </linearGradient>
    <linearGradient id="linear-gradient-5" x1="0.178" y1="0.661" x2="0.975" y2="0.258" xlink:href="#linear-gradient-3"/>
    <linearGradient id="linear-gradient-6" x1="0.181" y1="0.387" x2="1.542" y2="0.678" xlink:href="#linear-gradient-4"/>
  </defs>
  <g id="Raggruppa_5982" data-name="Raggruppa 5982" transform="translate(-114.303 -114.33)">
    <path id="Tracciato_5506" data-name="Tracciato 5506" d="M178.992,129.719A3.71,3.71,0,0,0,174.328,132c-.091.232-.179.417-.416.942a14.526,14.526,0,0,1-2.033,3.346,11.408,11.408,0,0,1-2.813,2.6,6.085,6.085,0,0,1-3.323.967,3.062,3.062,0,0,1-2.558-1.135,6.781,6.781,0,0,1-1.213-4.117l-.012-.342a22.956,22.956,0,0,0,4.012-.811,18.577,18.577,0,0,0,5.22-2.441,14.33,14.33,0,0,0,2.938-2.643,8.244,8.244,0,0,0,.982-1.3h0a1.538,1.538,0,0,0,.1-.172,8.2,8.2,0,0,0-7.118-12.283,8.08,8.08,0,0,0-4.95,1.613l-.626.465a17.349,17.349,0,0,0-4.4,5.058,24.036,24.036,0,0,0-2.153,4.743c-.317-.117-1.019-.406-1.182-.5-.017-.01-.04-.025-.065-.041a36.008,36.008,0,0,0,.363-4.451,19.3,19.3,0,0,0-.284-3.026c0-.019-.008-.034-.012-.052a5.046,5.046,0,0,0-4.951-4.081,4.7,4.7,0,0,0-3.281,1.292,5.579,5.579,0,0,0-1.755,3.432c-.427,3.425.111,5.788,2.138,9.093a23.639,23.639,0,0,1-4.54,9.637c-2.8,3.2-5.388.462-5.388.462a63.254,63.254,0,0,0,3.133-6.836,19.551,19.551,0,0,0,1-6.278,8.017,8.017,0,0,0-1.278-4.13,4.915,4.915,0,0,0-4.624-2.133,6.08,6.08,0,0,0-4.054,1.615,8.947,8.947,0,0,0-2.23,3.3,15.547,15.547,0,0,0-.942,3.766,22.265,22.265,0,0,0-.182,3.442,29.189,29.189,0,0,0,.289,3.129,18.979,18.979,0,0,0,.7,2.908,12.286,12.286,0,0,1-1.349,1.37,4.131,4.131,0,0,1-2.986.886c-2.233-.528-3.265-3.746-2.5-10.13.172-1.423.353-2.77.561-4.044s.356-1.886.615-3.032c.185-.826.685-2.911.685-2.913a3.9,3.9,0,0,0-2.916-4.619,3.974,3.974,0,0,0-4.594,3.075s-.466,1.63-.723,2.9c-.267,1.316-.421,1.985-.632,3.422-.221,1.491-.4,3.056-.531,4.653a41.4,41.4,0,0,0-.125,4.832,32.929,32.929,0,0,0,.442,4.184,15.962,15.962,0,0,0,1.413,4.449,9.763,9.763,0,0,0,3.035,3.633,9.455,9.455,0,0,0,5.221,1.412q.192,0,.389-.007a10.018,10.018,0,0,0,5.052-1.582c.3-.188.592-.361.881-.531a18.875,18.875,0,0,0,1.832-1.179,12.346,12.346,0,0,0,2.478,1.979,9.264,9.264,0,0,0,5.225,1.269,9.566,9.566,0,0,0,6.978-3.382,26.9,26.9,0,0,0,4.395-6.808,35.957,35.957,0,0,0,1.473-3.774,15.072,15.072,0,0,0,1.569.491c-.011.425-.013.848,0,1.266a19.374,19.374,0,0,0,.655,4.31,11.7,11.7,0,0,0,1.936,4.045,9.841,9.841,0,0,0,3.532,2.889,10.373,10.373,0,0,0,4.673,1c.166,0,.335,0,.5-.009a13.338,13.338,0,0,0,6.716-1.945,18.957,18.957,0,0,0,4.757-4.19,23.193,23.193,0,0,0,2.976-4.845c.695-1.456.571-1.183.761-1.607A3.657,3.657,0,0,0,178.992,129.719Zm-15.107-3.443a14.93,14.93,0,0,1,1.6-2.44,9.448,9.448,0,0,1,2.041-1.889l.008-.005.019-.013a.321.321,0,0,1,.037-.017,1.189,1.189,0,0,1,1.361.086,1.042,1.042,0,0,1,.176.243.8.8,0,0,1,.039.074c.009.02.017.04.025.061s.015.048.021.072a1.273,1.273,0,0,1-.275,1.011.487.487,0,0,1-.05.067c-.009.011-.021.021-.03.031l-.005.007-.006,0a7.9,7.9,0,0,1-2.032,1.58,13.81,13.81,0,0,1-2.926,1.261l-.083.025Z" transform="translate(0 0)" fill="#fff"/>
    <path id="Tracciato_5507" data-name="Tracciato 5507" d="M393.624,162.433h0a11.975,11.975,0,0,0-2.448-.676c-.369-.07-.615-.114-.732-.13-.653-.12-1.162-.233-1.51-.335a1.922,1.922,0,0,1-.807-.444,1.062,1.062,0,0,1-.289-.809c0-.979.817-1.455,2.5-1.455A34.311,34.311,0,0,1,394.8,159l.181.026.06-2.355-.9-.185a24.849,24.849,0,0,0-3.941-.394c-3.4,0-5.121,1.416-5.121,4.208a3.615,3.615,0,0,0,.5,2.022,3.084,3.084,0,0,0,1.416,1.13,10.757,10.757,0,0,0,2.4.61l.628.1a11.457,11.457,0,0,1,1.542.321,2,2,0,0,1,.834.482,1.25,1.25,0,0,1,.3.916,1.293,1.293,0,0,1-.625,1.217,4.04,4.04,0,0,1-2,.395,37.2,37.2,0,0,1-4.492-.442l-.176-.025-.121,2.411.925.154a24.614,24.614,0,0,0,3.969.42,6.3,6.3,0,0,0,3.965-1.041,3.992,3.992,0,0,0,1.314-3.3,4.077,4.077,0,0,0-.453-2.066A2.883,2.883,0,0,0,393.624,162.433Z" transform="translate(-193.214 -29.798)" fill="#fff"/>
    <path id="Tracciato_5508" data-name="Tracciato 5508" d="M459.455,158.485a1.4,1.4,0,0,1-.978-.281,1.433,1.433,0,0,1-.382-.846,13.506,13.506,0,0,1-.089-1.816V149.73h3.836v-2.414H458v-3.889h-2.753v3.889H453.5v2.414h1.749v6.257a9.945,9.945,0,0,0,.347,2.947,2.689,2.689,0,0,0,1.183,1.578,4.514,4.514,0,0,0,2.235.466,18.208,18.208,0,0,0,2.846-.316l.147-.025-.181-2.291Z" transform="translate(-242.034 -20.762)" fill="#fff"/>
    <path id="Tracciato_5509" data-name="Tracciato 5509" d="M524.781,167.393a11.473,11.473,0,0,1-1.537.55,6.064,6.064,0,0,1-1.588.2,2.536,2.536,0,0,1-1.458-.335,1.819,1.819,0,0,1-.626-1.166,14.609,14.609,0,0,1-.18-2.669V157h-2.753v6.975a16.131,16.131,0,0,0,.371,3.891A3.6,3.6,0,0,0,518.353,170a4.692,4.692,0,0,0,2.7.669,6.893,6.893,0,0,0,1.965-.268,9.316,9.316,0,0,0,1.761-.766v.746h2.753V157h-2.753Z" transform="translate(-287.085 -30.448)" fill="#fff"/>
    <path id="Tracciato_5510" data-name="Tracciato 5510" d="M599.878,143.26a14.36,14.36,0,0,0-2.89-.327,5.166,5.166,0,0,0-4.3,1.719c-.889,1.129-1.34,2.968-1.34,5.464a9.207,9.207,0,0,0,1.124,5.063,4.217,4.217,0,0,0,3.763,1.7,8.247,8.247,0,0,0,3.647-.966v.679h2.753V137.687h-2.753Zm0,10.373-.366.142a9.76,9.76,0,0,1-1.386.41c-1.744.394-2.813.141-3.358-.834a7.244,7.244,0,0,1-.592-3.365,6.8,6.8,0,0,1,.7-3.589,2.676,2.676,0,0,1,2.4-1.023,14.521,14.521,0,0,1,2.6.285Z" transform="translate(-340.39 -16.666)" fill="#fff"/>
    <path id="Tracciato_5511" data-name="Tracciato 5511" d="M672.644,156a5.212,5.212,0,0,0-4.37,1.824,8.92,8.92,0,0,0-1.4,5.49,7.88,7.88,0,0,0,1.316,5.023c.881,1.07,2.363,1.612,4.406,1.612a31,31,0,0,0,4.96-.524l.14-.024-.061-2.2-.9.1c-.534.052-1.146.091-1.818.117s-1.286.039-1.82.039a5.254,5.254,0,0,1-2.074-.325A1.925,1.925,0,0,1,670,166.106a5.44,5.44,0,0,1-.347-1.95h8.307l.17-1.938C678.131,158.092,676.285,156,672.644,156Zm-3.017,5.924a4.476,4.476,0,0,1,.742-2.7,2.784,2.784,0,0,1,2.275-.867,2.471,2.471,0,0,1,2.1.822,4.814,4.814,0,0,1,.632,2.741Z" transform="translate(-394.281 -29.733)" fill="#fff"/>
    <path id="Tracciato_5512" data-name="Tracciato 5512" d="M751.694,156.681a4.648,4.648,0,0,0-2.677-.681,7.207,7.207,0,0,0-1.976.267,9.568,9.568,0,0,0-1.828.769v-.749h-2.727v13.375h2.754V159.268l.341-.161a7.728,7.728,0,0,1,2.836-.589,2.4,2.4,0,0,1,1.454.372,1.987,1.987,0,0,1,.67,1.209,12.614,12.614,0,0,1,.192,2.51v7.053h2.754v-7.1a14.293,14.293,0,0,0-.4-3.764A3.71,3.71,0,0,0,751.694,156.681Z" transform="translate(-448.237 -29.733)" fill="#fff"/>
    <path id="Tracciato_5513" data-name="Tracciato 5513" d="M821.049,158.485a1.4,1.4,0,0,1-.979-.281,1.431,1.431,0,0,1-.382-.846,13.492,13.492,0,0,1-.09-1.816V149.73h3.836v-2.414H819.6v-3.889h-2.753v3.889H815.1v2.414h1.748v6.257a9.948,9.948,0,0,0,.347,2.947,2.691,2.691,0,0,0,1.183,1.578,4.513,4.513,0,0,0,2.235.466,18.206,18.206,0,0,0,2.846-.316l.147-.025-.181-2.291Z" transform="translate(-500.048 -20.762)" fill="#fff"/>
    <path id="Tracciato_5514" data-name="Tracciato 5514" d="M884.768,162.433a11.975,11.975,0,0,0-2.448-.676c-.369-.07-.615-.114-.731-.13-.653-.12-1.162-.233-1.511-.335a1.922,1.922,0,0,1-.807-.444,1.062,1.062,0,0,1-.289-.809c0-.979.818-1.455,2.5-1.455a34.311,34.311,0,0,1,4.466.416l.181.026.06-2.355-.9-.185a24.853,24.853,0,0,0-3.941-.394c-3.4,0-5.121,1.416-5.121,4.208a3.619,3.619,0,0,0,.5,2.022,3.086,3.086,0,0,0,1.417,1.13,10.756,10.756,0,0,0,2.4.61l.628.1a11.459,11.459,0,0,1,1.542.321,2,2,0,0,1,.833.482,1.25,1.25,0,0,1,.3.916,1.293,1.293,0,0,1-.624,1.217,4.04,4.04,0,0,1-2,.395,37.194,37.194,0,0,1-4.492-.442l-.176-.025-.121,2.411.925.154a24.615,24.615,0,0,0,3.969.42,6.3,6.3,0,0,0,3.964-1.041,3.992,3.992,0,0,0,1.314-3.3,4.078,4.078,0,0,0-.453-2.066A2.883,2.883,0,0,0,884.768,162.433Z" transform="translate(-543.668 -29.798)" fill="#fff"/>
    <g id="Raggruppa_5604" data-name="Raggruppa 5604" transform="translate(126.071 115.767)">
      <path id="Tracciato_5515" data-name="Tracciato 5515" d="M187.8,165.661s-2.583-2.364-2.293-10.181c.029-.788.277-2.278.269-2.73,1.272,2.14,3.711.142,4.425,7.959-.224.516-.556,1.313-.924,2.084C188.472,164.477,187.8,165.661,187.8,165.661Z" transform="translate(-176.86 -143.181)" fill="url(#linear-gradient)"/>
      <path id="Tracciato_5516" data-name="Tracciato 5516" d="M282.512,153.592a15.276,15.276,0,0,0-1.357,3.637,16.474,16.474,0,0,0-.482,4.183q.516-.052,1.054-.133a21.628,21.628,0,0,0,5.335-1.541,10.279,10.279,0,0,0-.1-4.073c-.373-2.292-1.295-3.1-1.582-3.28a14.5,14.5,0,0,1-1.38.675C283.257,153.373,282.512,153.592,282.512,153.592Z" transform="translate(-244.783 -142.921)" fill="url(#linear-gradient-2)"/>
      <path id="Tracciato_5517" data-name="Tracciato 5517" d="M226.921,163.2c-.308-.416-.374-.514-.447-.634a21.445,21.445,0,0,1-.7,2.6c1.357,2.706,3.17,4.17,5.364,6.265.022-.047.045-.093.067-.14a35.921,35.921,0,0,0,1.474-3.774A12.458,12.458,0,0,1,226.921,163.2Z" transform="translate(-205.611 -150.185)" fill="url(#linear-gradient-3)"/>
      <path id="Tracciato_5518" data-name="Tracciato 5518" d="M249.159,125.068a19.265,19.265,0,0,0-.284-3.026c0-.018-.008-.034-.012-.052a5.039,5.039,0,0,0-1.429-2.645,7.131,7.131,0,0,0-1.125,2.67,17.805,17.805,0,0,0-.14,3.1,8.827,8.827,0,0,0,.15.9,6.5,6.5,0,0,0,1.156,2.371,4.694,4.694,0,0,0,.555.584,9.257,9.257,0,0,0,.767.549A36.061,36.061,0,0,0,249.159,125.068Z" transform="translate(-220.149 -119.345)" fill="url(#linear-gradient-4)"/>
      <path id="Tracciato_5519" data-name="Tracciato 5519" d="M158.131,193.576a15.091,15.091,0,0,0,1.508,3.617,17.374,17.374,0,0,0,2.264,3.165c-.2.15-.524.379-.916.63-.279.178-.677.408-.924.554-.331.2-.592.352-1.186.717a5.271,5.271,0,0,1-2.665-2.211,6,6,0,0,1-.823-3.269,3.827,3.827,0,0,1,.207-1.166,5.929,5.929,0,0,0,1.186-.666A12.62,12.62,0,0,0,158.131,193.576Z" transform="translate(-155.384 -172.312)" fill="url(#linear-gradient-5)"/>
      <path id="Tracciato_5520" data-name="Tracciato 5520" d="M244.285,154.4a24.193,24.193,0,0,0-1.26,7.1,14.145,14.145,0,0,1-1.978-.653,12.384,12.384,0,0,1-1.192-.561c-4.053-2.346-.384-8.451,3.182-6.434A11.936,11.936,0,0,0,244.285,154.4Z" transform="translate(-214.391 -143.685)" fill="url(#linear-gradient-6)"/>
    </g>
  </g>
</svg>
