<svg xmlns="http://www.w3.org/2000/svg" xmlns:xlink="http://www.w3.org/1999/xlink" viewBox="0 0 798.14 114.43"><defs><style>.cls-1{fill:url(#Sfumatura_senza_nome_132);}.cls-2{fill:#414042;}.cls-3{fill:url(#Sfumatura_senza_nome_60);}.cls-4{fill:url(#Sfumatura_senza_nome_79);}.cls-5{fill:url(#Sfumatura_senza_nome_73);}.cls-6{fill:url(#Sfumatura_senza_nome_64);}.cls-7{fill:url(#Sfumatura_senza_nome_52);}.cls-8{fill:url(#Sfumatura_senza_nome_75);}</style><linearGradient id="Sfumatura_senza_nome_132" x1="234.57" y1="57.22" x2="0" y2="57.22" gradientUnits="userSpaceOnUse"><stop offset="0" stop-color="#ffa361"/><stop offset="0.1" stop-color="#ff9c56"/><stop offset="0.49" stop-color="#ff852e"/><stop offset="0.81" stop-color="#ff7616"/><stop offset="1" stop-color="#ff710d"/></linearGradient><linearGradient id="Sfumatura_senza_nome_60" x1="84.22" y1="57.77" x2="66.59" y2="64.39" gradientUnits="userSpaceOnUse"><stop offset="0" stop-color="#414042" stop-opacity="0"/><stop offset="0.44" stop-color="#414042" stop-opacity="0.13"/><stop offset="1" stop-color="#414042" stop-opacity="0.4"/></linearGradient><linearGradient id="Sfumatura_senza_nome_79" x1="187.44" y1="51.12" x2="161.81" y2="57.11" gradientUnits="userSpaceOnUse"><stop offset="0" stop-color="#414042" stop-opacity="0"/><stop offset="0.38" stop-color="#414042" stop-opacity="0.07"/><stop offset="0.83" stop-color="#414042" stop-opacity="0.29"/><stop offset="1" stop-color="#414042" stop-opacity="0.4"/></linearGradient><linearGradient id="Sfumatura_senza_nome_73" x1="119.63" y1="66.5" x2="127.99" y2="56.88" gradientUnits="userSpaceOnUse"><stop offset="0" stop-color="#414042" stop-opacity="0"/><stop offset="0.39" stop-color="#414042" stop-opacity="0.06"/><stop offset="0.77" stop-color="#414042" stop-opacity="0.23"/><stop offset="1" stop-color="#414042" stop-opacity="0.4"/></linearGradient><linearGradient id="Sfumatura_senza_nome_64" x1="140.71" y1="21.42" x2="128.03" y2="30.04" gradientUnits="userSpaceOnUse"><stop offset="0" stop-color="#414042" stop-opacity="0"/><stop offset="0.57" stop-color="#414042" stop-opacity="0.2"/><stop offset="1" stop-color="#414042" stop-opacity="0.4"/></linearGradient><linearGradient id="Sfumatura_senza_nome_52" x1="45.13" y1="99.28" x2="63.28" y2="87.06" xlink:href="#Sfumatura_senza_nome_73"/><linearGradient id="Sfumatura_senza_nome_75" x1="127.69" y1="49.99" x2="157.18" y2="58.19" gradientUnits="userSpaceOnUse"><stop offset="0" stop-color="#414042" stop-opacity="0"/><stop offset="0.5" stop-color="#464647" stop-opacity="0.17"/><stop offset="1" stop-color="#4d4d4d" stop-opacity="0.4"/></linearGradient></defs><g id="Livello_2" data-name="Livello 2"><g id="STRUTTURA"><path class="cls-1" d="M225.83,53.72c-6.7-2.29-13.65,1.27-16.28,8-.32.81-.63,1.45-1.46,3.28A50.33,50.33,0,0,1,201,76.65a39.76,39.76,0,0,1-9.82,9.07,21.21,21.21,0,0,1-11.59,3.37,10.69,10.69,0,0,1-8.93-4c-2.59-3.12-4-8-4.24-14.37l0-1.2a79.73,79.73,0,0,0,14-2.83,64.75,64.75,0,0,0,18.23-8.52A49.93,49.93,0,0,0,208.85,49a28.33,28.33,0,0,0,3.43-4.56h0a6.08,6.08,0,0,0,.34-.6A28.64,28.64,0,0,0,187.78,1,28.24,28.24,0,0,0,170.5,6.58l-2.18,1.63A60.44,60.44,0,0,0,153,25.86a83.47,83.47,0,0,0-7.52,16.56c-1.1-.41-3.55-1.42-4.13-1.75l-.22-.14A126.75,126.75,0,0,0,142.36,25a67.57,67.57,0,0,0-1-10.56l-.05-.19A17.61,17.61,0,0,0,124,0a16.4,16.4,0,0,0-11.45,4.51,19.41,19.41,0,0,0-6.13,12c-1.49,12,.39,20.21,7.46,31.75-2.91,15-11.76,29-15.85,33.64-9.76,11.18-18.81,1.61-18.81,1.61S87.9,67,90.2,59.63c2.7-8.69,3.69-16.22,3.49-21.92A27.92,27.92,0,0,0,89.23,23.3c-2.32-3.58-7-7.77-16.14-7.45a21.23,21.23,0,0,0-14.16,5.64A31.18,31.18,0,0,0,51.15,33a54.32,54.32,0,0,0-3.29,13.14,77.5,77.5,0,0,0-.63,12,103.51,103.51,0,0,0,1,10.92,66.76,66.76,0,0,0,2.44,10.15A41.71,41.71,0,0,1,46,84c-.87.71-5.93,4.16-10.42,3.1-7.8-1.85-11.4-13.08-8.71-35.37.6-5,1.23-9.67,2-14.12S30,31.05,30.93,27.05c.65-2.88,2.39-10.16,2.39-10.17A13.6,13.6,0,0,0,23.14.76C15.93-.8,8.68,4.29,7.1,11.49c0,0-1.62,5.69-2.52,10.14S3.11,28.55,2.37,33.57C1.6,38.78,1,44.24.52,49.81A143.94,143.94,0,0,0,.08,66.68,113.88,113.88,0,0,0,1.62,81.29,55.5,55.5,0,0,0,6.56,96.82a34.07,34.07,0,0,0,10.59,12.69c4.5,3.27,11.77,4.92,18.23,4.92.44,0,.9,0,1.35,0a35,35,0,0,0,17.64-5.52c1-.66,2.07-1.26,3.07-1.86a65.37,65.37,0,0,0,6.4-4.11,43.07,43.07,0,0,0,8.65,6.91,32.32,32.32,0,0,0,18.24,4.43c9.44-.33,17.63-4.31,24.36-11.81a93.75,93.75,0,0,0,15.34-23.77,124.19,124.19,0,0,0,5.14-13.17,50.49,50.49,0,0,0,5.48,1.71c0,1.49,0,3,0,4.42a67.37,67.37,0,0,0,2.29,15,40.72,40.72,0,0,0,6.75,14.12,34.3,34.3,0,0,0,12.33,10.08,36.24,36.24,0,0,0,16.31,3.5l1.76,0a46.55,46.55,0,0,0,23.45-6.8,66.12,66.12,0,0,0,16.61-14.62A81.06,81.06,0,0,0,231,76c2.42-5.08,2-4.13,2.65-5.61C236.51,64,232.52,56,225.83,53.72Zm-52.74-12a51.09,51.09,0,0,1,5.57-8.52,33,33,0,0,1,7.12-6.6l0,0,.07,0,.13-.06a4.15,4.15,0,0,1,4.75.3,3.51,3.51,0,0,1,.61.85c0,.09.1.17.14.26l.09.21a2.5,2.5,0,0,1,.07.26,4.41,4.41,0,0,1-1,3.52,1.18,1.18,0,0,1-.17.24l-.11.11,0,0,0,0a27.63,27.63,0,0,1-7.09,5.51,48,48,0,0,1-10.22,4.41l-.28.08Z"/><path class="cls-2" d="M300.59,63.9h0a41.56,41.56,0,0,0-8.54-2.36c-1.29-.24-2.15-.4-2.56-.46a52.59,52.59,0,0,1-5.27-1.17,6.69,6.69,0,0,1-2.82-1.55,3.69,3.69,0,0,1-1-2.82c0-3.42,2.86-5.08,8.73-5.08a120.53,120.53,0,0,1,15.59,1.45l.63.09.21-8.22-3.13-.64a86,86,0,0,0-13.76-1.38c-11.86,0-17.88,4.94-17.88,14.69a12.57,12.57,0,0,0,1.74,7.06,10.73,10.73,0,0,0,4.94,3.94,37.16,37.16,0,0,0,8.37,2.13L288,70a40.81,40.81,0,0,1,5.38,1.12,7,7,0,0,1,2.91,1.68,4.39,4.39,0,0,1,1.06,3.2,4.51,4.51,0,0,1-2.18,4.25c-1.54.91-3.89,1.37-7,1.37A130.75,130.75,0,0,1,272.52,80l-.61-.09-.43,8.42,3.24.54a86.3,86.3,0,0,0,13.85,1.47c6.18,0,10.83-1.23,13.84-3.64S307,80.42,307,75.22A14.22,14.22,0,0,0,305.41,68,10.06,10.06,0,0,0,300.59,63.9Z"/><path class="cls-2" d="M360,81.66a4.89,4.89,0,0,1-3.42-1,5,5,0,0,1-1.33-3,46.74,46.74,0,0,1-.31-6.34V51.1h13.39V42.67H354.92V29.1H345.3V42.67h-6.1V51.1h6.1V72.94a34.47,34.47,0,0,0,1.22,10.29,9.38,9.38,0,0,0,4.13,5.51,15.72,15.72,0,0,0,7.8,1.63,63.87,63.87,0,0,0,9.93-1.11l.51-.08-.63-8Z"/><path class="cls-2" d="M430.76,79a40.24,40.24,0,0,1-5.36,1.91,20.84,20.84,0,0,1-5.55.71,8.81,8.81,0,0,1-5.09-1.17,6.35,6.35,0,0,1-2.19-4.06A51.82,51.82,0,0,1,412,67V42.67h-9.61V67a56.16,56.16,0,0,0,1.29,13.58A12.55,12.55,0,0,0,408.32,88c2.21,1.55,5.39,2.34,9.44,2.34a24,24,0,0,0,6.85-.94,32.46,32.46,0,0,0,6.15-2.67v2.6h9.61V42.67h-9.61Z"/><path class="cls-2" d="M506.83,42.81a50,50,0,0,0-10.09-1.14c-6.83,0-11.89,2-15,6S477,58,477,66.75c0,7.85,1.32,13.8,3.92,17.67s7.08,6,13.14,6A28.77,28.77,0,0,0,506.83,87v2.37h9.61v-66h-9.61Zm0,36.21-1.27.5A34.92,34.92,0,0,1,500.72,81c-6.09,1.38-9.82.49-11.72-2.91-1.38-2.45-2.07-6.41-2.07-11.75,0-5.87.82-10.09,2.45-12.53s4.4-3.57,8.37-3.57a50.58,50.58,0,0,1,9.08,1Z"/><path class="cls-2" d="M572.72,41.67c-6.83,0-12,2.14-15.25,6.37s-4.9,10.63-4.9,19.16c0,7.94,1.54,13.84,4.59,17.54s8.25,5.63,15.38,5.63a108.74,108.74,0,0,0,17.32-1.83l.48-.09-.21-7.67-3.16.34c-1.86.18-4,.32-6.34.41s-4.49.13-6.36.13A18.44,18.44,0,0,1,567,80.53,6.72,6.72,0,0,1,563.5,77a19.08,19.08,0,0,1-1.22-6.81h29l.6-6.77C591.88,49,585.43,41.67,572.72,41.67ZM562.19,62.35c.12-4.29,1-7.45,2.59-9.41s4.32-3,7.94-3c3.44,0,5.91,1,7.34,2.87s2.15,5.1,2.2,9.57Z"/><path class="cls-2" d="M660.33,44.05c-2.28-1.58-5.42-2.38-9.35-2.38a25.16,25.16,0,0,0-6.9.93,33.57,33.57,0,0,0-6.38,2.69V42.67h-9.52V89.36h9.61V53.08l1.19-.56a26.91,26.91,0,0,1,9.91-2.06,8.35,8.35,0,0,1,5.07,1.3A6.88,6.88,0,0,1,656.3,56a43.64,43.64,0,0,1,.67,8.76V89.36h9.61V64.56a50,50,0,0,0-1.38-13.14A13,13,0,0,0,660.33,44.05Z"/><path class="cls-2" d="M721.57,81.66a4.84,4.84,0,0,1-3.41-1,5,5,0,0,1-1.34-3,46.74,46.74,0,0,1-.31-6.34V51.1H729.9V42.67H716.51V29.1H706.9V42.67h-6.11V51.1h6.11V72.94a34.85,34.85,0,0,0,1.21,10.29,9.38,9.38,0,0,0,4.13,5.51,15.75,15.75,0,0,0,7.8,1.63A63.75,63.75,0,0,0,730,89.26l.52-.08-.63-8Z"/><path class="cls-2" d="M791.74,63.9a41.68,41.68,0,0,0-8.55-2.36c-1.29-.24-2.15-.4-2.55-.46a52.91,52.91,0,0,1-5.28-1.17,6.59,6.59,0,0,1-2.81-1.55,3.69,3.69,0,0,1-1-2.82c0-3.42,2.85-5.08,8.72-5.08a120.38,120.38,0,0,1,15.59,1.45l.63.09.21-8.22-3.13-.64a85.77,85.77,0,0,0-13.76-1.38c-11.86,0-17.87,4.94-17.87,14.69a12.65,12.65,0,0,0,1.73,7.06,10.76,10.76,0,0,0,5,3.94A37.16,37.16,0,0,0,777,69.58l2.19.37a40.81,40.81,0,0,1,5.38,1.12,6.88,6.88,0,0,1,2.91,1.68,4.35,4.35,0,0,1,1.07,3.2,4.53,4.53,0,0,1-2.18,4.25c-1.55.91-3.9,1.37-7,1.37A130.57,130.57,0,0,1,763.67,80l-.62-.09-.42,8.42,3.23.54a86.3,86.3,0,0,0,13.85,1.47c6.18,0,10.84-1.23,13.84-3.64s4.59-6.31,4.59-11.51A14.22,14.22,0,0,0,796.56,68,10.06,10.06,0,0,0,791.74,63.9Z"/></g><g id="OMBRE"><path class="cls-3" d="M79.26,83.49s-9-8.25-8-35.54c.1-2.75,1-8,.94-9.53,4.44,7.47,13,.49,15.44,27.78-.78,1.8-1.94,4.59-3.22,7.28C81.62,79.36,79.26,83.49,79.26,83.49Z"/><path class="cls-4" d="M172.79,42.27A53.48,53.48,0,0,0,168.05,55a57.85,57.85,0,0,0-1.68,14.61c1.2-.13,2.43-.28,3.68-.47a75.3,75.3,0,0,0,18.62-5.38c.81-1.28.73-7.61-.34-14.21-1.31-8-4.52-10.81-5.53-11.45A51.22,51.22,0,0,1,178,40.41C175.4,41.5,172.79,42.27,172.79,42.27Z"/><path class="cls-5" d="M115.48,50.45a26.94,26.94,0,0,1-1.56-2.21,76.78,76.78,0,0,1-2.45,9.07c4.74,9.44,11.07,14.55,18.72,21.87l.24-.49a124.35,124.35,0,0,0,5.14-13.18A43.5,43.5,0,0,1,115.48,50.45Z"/><path class="cls-6" d="M142.36,25a66.26,66.26,0,0,0-1-10.56,1,1,0,0,0,0-.18,17.59,17.59,0,0,0-5-9.24c-2,1.87-3.81,8.34-3.92,9.32a61.2,61.2,0,0,0-.49,10.82,29.91,29.91,0,0,0,.52,3.15,22.66,22.66,0,0,0,4,8.27,15.48,15.48,0,0,0,1.93,2,29,29,0,0,0,2.68,1.92A126.75,126.75,0,0,0,142.36,25Z"/><path class="cls-7" d="M50.67,79.25a52.48,52.48,0,0,0,5.27,12.62,60.35,60.35,0,0,0,7.9,11c-.72.52-1.83,1.32-3.2,2.2-1,.62-2.36,1.42-3.22,1.93-1.16.68-2.07,1.23-4.15,2.5a18.36,18.36,0,0,1-9.3-7.72A20.88,20.88,0,0,1,41.1,90.42a13.18,13.18,0,0,1,.72-4.07A20.61,20.61,0,0,0,46,84,44.68,44.68,0,0,0,50.67,79.25Z"/><path class="cls-8" d="M145.44,42.42a84.18,84.18,0,0,0-3,11.64A85.34,85.34,0,0,0,141,67.22a48.49,48.49,0,0,1-6.9-2.27A45.7,45.7,0,0,1,130,63c-14.15-8.19-1.34-29.5,11.11-22.46A40.2,40.2,0,0,0,145.44,42.42Z"/></g></g></svg>