<svg id="Raggruppa_5784" data-name="Raggruppa 5784" xmlns="http://www.w3.org/2000/svg" xmlns:xlink="http://www.w3.org/1999/xlink" width="23.833" height="22.818" viewBox="0 0 23.833 22.818">
  <defs>
    <linearGradient id="linear-gradient" x1="1.152" y1="-0.374" x2="1.146" y2="1.148" gradientUnits="objectBoundingBox">
      <stop offset="0" stop-color="#f2666a"/>
      <stop offset="1" stop-color="#ff9d64"/>
    </linearGradient>
  </defs>
  <path id="Tracciato_5583" data-name="Tracciato 5583" d="M-380.368-504.022a3.136,3.136,0,0,0,.467.7,4.544,4.544,0,0,0,3.074,1.09.881.881,0,0,0,.9-.9.881.881,0,0,0-.9-.9,2.742,2.742,0,0,1-1.751-.545c-.039-.078-.195-.35-.272-.545-.389-.856-1.012-2.1-2.257-2.1h-2.179c-1.518,0-2.063,1.6-2.413,2.452-.039.117-.078.195-.117.311a22.719,22.719,0,0,0-.74,2.919.9.9,0,0,0,.7,1.051h.195a.916.916,0,0,0,.9-.74c.156-.778.467-2.14.623-2.607,0-.039.039-.078.039-.117l.078,2.919-.895,7.549a.933.933,0,0,0,.856,1.051h.117a.932.932,0,0,0,.934-.856l.817-6.849.817,6.849a1.014,1.014,0,0,0,1.051.856,1.014,1.014,0,0,0,.856-1.051l-.9-7.549Z" transform="translate(386.568 513.337)" fill="url(#linear-gradient)"/>
  <circle id="Ellisse_494" data-name="Ellisse 494" cx="1.907" cy="1.907" r="1.907" transform="translate(2.425 1.843)" fill="url(#linear-gradient)"/>
  <path id="Tracciato_5584" data-name="Tracciato 5584" d="M-335.3-529.857l-8.172-1.868a.7.7,0,0,0-.623.156.7.7,0,0,0-.272.584v1.129h-4.125a.716.716,0,0,0-.739.739v5.254a1.33,1.33,0,0,0,.389.039,2.832,2.832,0,0,1,1.129.272v-4.825h3.386v16.111h-3.424v-7.2a2.205,2.205,0,0,1-1.129.272h-.389v7.666a.739.739,0,0,0,.739.74h4.125v1.129a.826.826,0,0,0,.272.584.678.678,0,0,0,.467.156h.156l8.172-1.868a.75.75,0,0,0,.584-.74v-17.59A.681.681,0,0,0-335.3-529.857Zm-.952,17.746c-2.275.512-5.136,1.156-6.653,1.5l.036-19.428,6.618,1.513Z" transform="translate(358.582 531.739)" fill="url(#linear-gradient)"/>
  <circle id="Ellisse_495" data-name="Ellisse 495" cx="0.856" cy="0.856" r="0.856" transform="translate(16.752 10.553)" fill="url(#linear-gradient)"/>
</svg>
