<svg xmlns="http://www.w3.org/2000/svg" width="164.474" height="139.169" viewBox="0 0 164.474 139.169">
  <g id="noun_partnership_3107730" transform="translate(-10.822 -28.227)">
    <path id="Tracciato_5505" data-name="Tracciato 5505" d="M165.557,83.619a3.118,3.118,0,0,0-5.526,2.889l6.786,12.98-9.612,5.254a1.729,1.729,0,0,1-2.186-.658L136.843,69.789a1.107,1.107,0,0,1-.079-.885,1.426,1.426,0,0,1,.779-.822l14.929-7.151a3.118,3.118,0,0,0-2.694-5.624l-14.914,7.143a7.593,7.593,0,0,0-4.017,4.486,7.256,7.256,0,0,0,.139,4.918,11.3,11.3,0,0,1-11.711-.168l-7.668-4.517a14.161,14.161,0,0,0-7.251-1.233h-11.5a9.576,9.576,0,0,0-6.5,2.027c-.018,0-.034-.013-.052-.017-7.768-1.761-14.375,1.634-18.75,3.877l-1.183.6a11.32,11.32,0,0,1-9.8.125l-.966-.43a7.323,7.323,0,0,0-.338-2.067,7.582,7.582,0,0,0-4-4.479L36.34,58.427a3.118,3.118,0,0,0-2.694,5.624L48.59,71.208a1.412,1.412,0,0,1,.764.814,1.111,1.111,0,0,1-.079.886L31.1,107.2a1.726,1.726,0,0,1-2.186.661L19.3,102.606l6.786-12.98a3.118,3.118,0,1,0-5.526-2.889l-8.205,15.693a3.118,3.118,0,0,0,1.268,4.18l12.4,6.776q.08.043.16.082A8.082,8.082,0,0,0,36.6,110.122l17-32.066.456.2a18.22,18.22,0,0,0,7.354,1.567A17.266,17.266,0,0,0,69.165,78l1.236-.629a35.647,35.647,0,0,1,7.758-3.2L65.1,84.042a2.891,2.891,0,0,0-.224.186,7.191,7.191,0,0,0-2.325,5.933,6.834,6.834,0,0,0,4.434,5.088,3.533,3.533,0,0,0,.346.135,22.063,22.063,0,0,0,14.558-.88,2.585,2.585,0,0,0,.234-.117L88.2,91.036l50.339,27.614a3.685,3.685,0,0,1,1.792,5.112c-.314.375-1.993,1.978-6.276-.228l-21.694-11.46a3.118,3.118,0,0,0-2.914,5.514l16.429,8.678a3.023,3.023,0,0,1,.883,4.3,3.876,3.876,0,0,1-4.37.569l-16.756-9.326a3.118,3.118,0,0,0-3.032,5.45l11.841,6.589c1.255.7.819,2.556.231,3.539a4.227,4.227,0,0,1-4.766,1.134l-11.933-7.106a3.118,3.118,0,0,0-3.191,5.359l7.679,4.573a2.026,2.026,0,0,1,.876,1.241,3.75,3.75,0,0,1-.422,2.874,4.556,4.556,0,0,1-5.132,1.181L47.888,116.955a3.118,3.118,0,1,0-3.188,5.359l49.975,29.735c.046.027.093.053.14.079a9.914,9.914,0,0,0,14.78-7.256,10.753,10.753,0,0,0,1.842.173,9.915,9.915,0,0,0,8.581-4.458,10.293,10.293,0,0,0,1.253-3.255,11.019,11.019,0,0,0,2.992.427,8.934,8.934,0,0,0,7.841-3.993,9.943,9.943,0,0,0,1.281-3.744,13.5,13.5,0,0,0,4.577.882,9.015,9.015,0,0,0,7.675-3.868,9.418,9.418,0,0,0,1.169-7.262,9.221,9.221,0,0,0-.922-2.191,8.988,8.988,0,0,1,5.925-7.982,8.132,8.132,0,0,0,4.711,1.514,7.967,7.967,0,0,0,3.416-.764q.08-.039.16-.082l12.4-6.776a3.118,3.118,0,0,0,1.268-4.18ZM89.691,84.744a3.118,3.118,0,0,0-3,0L79.229,88.86a15.918,15.918,0,0,1-9.825.633,3.857,3.857,0,0,1-.572-.343,2.317,2.317,0,0,1,.195-.263L89.969,73.063a2.982,2.982,0,0,0,.314-.273,3.189,3.189,0,0,1,2.143-.632,3.058,3.058,0,0,0,.312.015l11.772,0a10.084,10.084,0,0,1,4.145.5L116,76.995a17.335,17.335,0,0,0,17.821.413l14.3,26.982a14.788,14.788,0,0,0-7.466,8.314Z" transform="translate(0 12.853)" fill="#fff" stroke="#fff" stroke-width="2"/>
    <path id="Tracciato_5556" data-name="Tracciato 5556" d="M50.654,13.613l4.358,13.423a1,1,0,0,0,.949.684H70.074a.993.993,0,0,1,.582,1.795l-11.418,8.3a.994.994,0,0,0-.36,1.111l4.358,13.423a.989.989,0,0,1-1.525,1.1l-11.418-8.3a.991.991,0,0,0-1.165,0l-11.418,8.3a.993.993,0,0,1-1.531-1.1l4.364-13.423a1,1,0,0,0-.36-1.111l-11.418-8.3a.992.992,0,0,1,.582-1.795H43.462a.993.993,0,0,0,.942-.684l4.364-13.423A.991.991,0,0,1,50.654,13.613Z" transform="translate(43.1 15.298)" fill="#fff"/>
  </g>
</svg>
