<svg xmlns="http://www.w3.org/2000/svg" width="88.01" height="83.51" viewBox="0 0 88.01 83.51">
  <g id="_5" data-name="5" transform="translate(-10.3 -13.22)">
    <path id="Tracciato_5624" data-name="Tracciato 5624" d="M38.42,42V74a.88.88,0,0,0,1.52.7l3.55-3.93a.82.82,0,0,1,1.26,0l3.44,3.81a.88.88,0,0,0,1.52-.7V42a.94.94,0,0,0-.89-1H39.31a.94.94,0,0,0-.89,1Z" fill="#ffb886"/>
    <path id="Tracciato_5625" data-name="Tracciato 5625" d="M56.49,37.62l-6-6.91a12.31,12.31,0,0,0-9.3-4.4H22c-5.36,0-9.7,4.81-9.7,10.73V84c0,5.93,4.34,10.73,9.7,10.73H77.4c5.36,0,9.7-4.8,9.7-10.73V48.36c0-5.93-4.34-10.74-9.7-10.74H32c-5.32,0-9.64,4.78-9.64,10.67v7.33" fill="none" stroke="#3c3c3b" stroke-linecap="round" stroke-linejoin="round" stroke-width="4"/>
    <line id="Linea_104" data-name="Linea 104" y1="35.2" transform="translate(46.57 37.62)" fill="none" stroke="#3c3c3b" stroke-linecap="round" stroke-linejoin="round" stroke-width="4"/>
    <path id="Tracciato_5626" data-name="Tracciato 5626" d="M35.28,37.62V72.94l5.7-6.31" fill="none" stroke="#3c3c3b" stroke-linecap="round" stroke-linejoin="round" stroke-width="4"/>
    <path id="Tracciato_5627" data-name="Tracciato 5627" d="M60.35,59.42H73.41a4.77,4.77,0,0,0,4.51-5h0a4.76,4.76,0,0,0-4.51-5H60.35a4.76,4.76,0,0,0-4.51,5h0a4.77,4.77,0,0,0,4.51,5Z" fill="#fff" stroke="#3c3c3b" stroke-linecap="round" stroke-linejoin="round" stroke-width="4"/>
    <path id="Tracciato_5628" data-name="Tracciato 5628" d="M87.11,83.66c5.13-.29,9.2-5,9.2-10.73V37.28c0-5.93-4.34-10.74-9.7-10.74H65.69" fill="none" stroke="#3c3c3b" stroke-linecap="round" stroke-linejoin="round" stroke-width="4"/>
    <path id="Tracciato_5629" data-name="Tracciato 5629" d="M65.69,26.54l-6-6.92a12.32,12.32,0,0,0-9.31-4.4H31.21c-5.35,0-9.69,4.81-9.69,10.74v.36" fill="none" stroke="#3c3c3b" stroke-linecap="round" stroke-linejoin="round" stroke-width="4"/>
  </g>
</svg>
