<svg xmlns="http://www.w3.org/2000/svg" width="82.043" height="82.043" viewBox="0 0 82.043 82.043">
  <g id="_14" data-name="14" transform="translate(-13.294 -13.293)">
    <path id="Tracciato_5593" data-name="Tracciato 5593" d="M51.78,57.31a5.54,5.54,0,1,1,5.53,5.54,5.54,5.54,0,0,1-5.53-5.54Z" fill="#ffb886"/>
    <path id="Tracciato_5594" data-name="Tracciato 5594" d="M86.42,32.21a39,39,0,1,1-10-10" fill="none" stroke="#3c3c3b" stroke-linecap="round" stroke-linejoin="round" stroke-width="4"/>
    <path id="Tracciato_5595" data-name="Tracciato 5595" d="M56.51,59a5,5,0,0,1-2.2.49,5.17,5.17,0,1,1,5.15-5.64" fill="none" stroke="#3c3c3b" stroke-linecap="round" stroke-linejoin="round" stroke-width="4"/>
    <line id="Linea_97" data-name="Linea 97" y1="23.19" x2="23.18" transform="translate(57.97 27.47)" fill="none" stroke="#3c3c3b" stroke-linecap="round" stroke-linejoin="round" stroke-width="4"/>
    <line id="Linea_98" data-name="Linea 98" y1="14.67" transform="translate(54.31 59.48)" fill="none" stroke="#3c3c3b" stroke-linecap="round" stroke-linejoin="round" stroke-width="4"/>
    <line id="Linea_99" data-name="Linea 99" y1="4.27" transform="translate(54.31 82.7)" fill="none" stroke="#3c3c3b" stroke-linecap="round" stroke-linejoin="round" stroke-width="4"/>
    <line id="Linea_100" data-name="Linea 100" y1="4.27" transform="translate(54.31 21.65)" fill="none" stroke="#3c3c3b" stroke-linecap="round" stroke-linejoin="round" stroke-width="4"/>
    <line id="Linea_101" data-name="Linea 101" x2="4.27" transform="translate(22.25 54.31)" fill="none" stroke="#3c3c3b" stroke-linecap="round" stroke-linejoin="round" stroke-width="4"/>
    <line id="Linea_102" data-name="Linea 102" x2="4.27" transform="translate(82.25 54.31)" fill="none" stroke="#3c3c3b" stroke-linecap="round" stroke-linejoin="round" stroke-width="4"/>
  </g>
</svg>
