<svg xmlns="http://www.w3.org/2000/svg" width="84.631" height="83.53" viewBox="0 0 84.631 83.53">
  <g id="_9" data-name="9" transform="translate(-10.659 -12.55)">
    <path id="Tracciato_5637" data-name="Tracciato 5637" d="M17.33,56.27H39.11a1,1,0,0,1,1,1h0A10.12,10.12,0,0,1,30,67.35H26.48A10.11,10.11,0,0,1,16.37,57.23h0A1,1,0,0,1,17.33,56.27Z" fill="#ffb886"/>
    <path id="Tracciato_5638" data-name="Tracciato 5638" d="M31.38,94.08h0a7.87,7.87,0,0,1,7.87-7.84H66.46a7.8,7.8,0,0,1,7.79,7.84Z" fill="none" stroke="#3c3c3b" stroke-linecap="round" stroke-linejoin="round" stroke-width="4"/>
    <line id="Linea_108" data-name="Linea 108" y2="48.43" transform="translate(49.13 37.81)" fill="none" stroke="#3c3c3b" stroke-linecap="round" stroke-linejoin="round" stroke-width="4"/>
    <path id="Tracciato_5639" data-name="Tracciato 5639" d="M56.5,21.11V18.23a3.69,3.69,0,0,0-3.69-3.68h0a3.68,3.68,0,0,0-3.68,3.68v2.88" fill="none" stroke="#3c3c3b" stroke-linecap="round" stroke-linejoin="round" stroke-width="4"/>
    <line id="Linea_109" data-name="Linea 109" y1="54.87" transform="translate(56.5 31.37)" fill="none" stroke="#3c3c3b" stroke-linecap="round" stroke-linejoin="round" stroke-width="4"/>
    <path id="Tracciato_5640" data-name="Tracciato 5640" d="M13.37,53.25H37.08A11.08,11.08,0,0,1,26,64.33H24.45A11.08,11.08,0,0,1,13.37,53.25Z" fill="none" stroke="#3c3c3b" stroke-linecap="round" stroke-linejoin="round" stroke-width="4"/>
    <path id="Tracciato_5641" data-name="Tracciato 5641" d="M72.51,56.27H94.29a1,1,0,0,1,1,1h0A10.12,10.12,0,0,1,85.15,67.35H81.66A10.11,10.11,0,0,1,71.55,57.23h0A1,1,0,0,1,72.51,56.27Z" fill="#ffb886"/>
    <path id="Tracciato_5642" data-name="Tracciato 5642" d="M68.55,53.25H92.26A11.08,11.08,0,0,1,81.18,64.33H79.63A11.08,11.08,0,0,1,68.55,53.25Z" fill="none" stroke="#3c3c3b" stroke-linecap="round" stroke-linejoin="round" stroke-width="4"/>
    <path id="Tracciato_5643" data-name="Tracciato 5643" d="M13.37,53.25,25.22,31.37,37.08,53.25" fill="none" stroke="#3c3c3b" stroke-linecap="round" stroke-linejoin="round" stroke-width="4"/>
    <path id="Tracciato_5644" data-name="Tracciato 5644" d="M68.55,53.25,80.4,31.37,92.26,53.25" fill="none" stroke="#3c3c3b" stroke-linecap="round" stroke-linejoin="round" stroke-width="4"/>
    <path id="Tracciato_5645" data-name="Tracciato 5645" d="M71.55,23.13,52.81,20.62,20.16,25A6.51,6.51,0,0,0,15,31.37H90.6A6.52,6.52,0,0,0,85.47,25l-6.89-.93" fill="none" stroke="#3c3c3b" stroke-linecap="round" stroke-linejoin="round" stroke-width="4"/>
  </g>
</svg>
