<svg xmlns="http://www.w3.org/2000/svg" width="77.393" height="83.542" viewBox="0 0 77.393 83.542">
  <g id="_2" data-name="2" transform="translate(-15.608 -12.55)">
    <path id="Tracciato_5603" data-name="Tracciato 5603" d="M52.36,57.46V32.82a3.75,3.75,0,0,1,3.75-3.75h0a3.74,3.74,0,0,1,3.74,3.75V57.46" fill="#ffb886"/>
    <path id="Tracciato_5604" data-name="Tracciato 5604" d="M45.44,57.46V36.36A3.46,3.46,0,0,1,48.9,32.9h0a3.45,3.45,0,0,1,3.46,3.46V53.23" fill="#ffb886"/>
    <path id="Tracciato_5605" data-name="Tracciato 5605" d="M59.85,56.17V36a3.46,3.46,0,0,1,3.46-3.46h0A3.46,3.46,0,0,1,66.77,36V66.55" fill="#ffb886"/>
    <path id="Tracciato_5606" data-name="Tracciato 5606" d="M66.77,58.67V52.82a4,4,0,0,1,4-4h0a4,4,0,0,1,4,4V70A16.41,16.41,0,0,1,58.26,86.43h-1.9A16.41,16.41,0,0,1,40,70V43.36a2.75,2.75,0,0,1,2.75-2.75h0a2.75,2.75,0,0,1,2.74,2.75v6.31" fill="#ffb886"/>
    <path id="Tracciato_5607" data-name="Tracciato 5607" d="M76.52,23l-4.28-4.45a12.43,12.43,0,0,0-8.95-4H44.2a12.21,12.21,0,0,0-8.87,4l-14.55,16A12.26,12.26,0,0,0,17.61,43l.23,23.45a12.29,12.29,0,0,0,3.42,8.31l15,15.58a12.23,12.23,0,0,0,9,3.75H64.42a12.23,12.23,0,0,0,8.88-4l4.23-4.67L87.84,74A12.25,12.25,0,0,0,91,65.64l-.35-23.17a12.2,12.2,0,0,0-3.42-8.3l-5-5.2" fill="none" stroke="#3c3c3b" stroke-linecap="round" stroke-linejoin="round" stroke-width="4"/>
    <path id="Tracciato_5608" data-name="Tracciato 5608" d="M49.68,53.53l-.36-24.66A3.75,3.75,0,0,1,53,25.07h0a3.74,3.74,0,0,1,3.8,3.69l.37,24.66" fill="none" stroke="#3c3c3b" stroke-linecap="round" stroke-linejoin="round" stroke-width="4"/>
    <path id="Tracciato_5609" data-name="Tracciato 5609" d="M42.76,53.63l-.31-21.11A3.46,3.46,0,0,1,45.86,29h0a3.46,3.46,0,0,1,3.51,3.41l.05,3" fill="none" stroke="#3c3c3b" stroke-linecap="round" stroke-linejoin="round" stroke-width="4"/>
    <path id="Tracciato_5610" data-name="Tracciato 5610" d="M56.94,37.42l-.08-5.49a3.46,3.46,0,0,1,3.41-3.51h0a3.46,3.46,0,0,1,3.51,3.41l.14,7.47" fill="none" stroke="#3c3c3b" stroke-linecap="round" stroke-linejoin="round" stroke-width="4"/>
    <path id="Tracciato_5611" data-name="Tracciato 5611" d="M64.12,57.49,64,48.67a4,4,0,0,1,3.89-4h0a4,4,0,0,1,4,3.89l.24,15.8v1.41A16.43,16.43,0,0,1,56,82.42H50.72A13.67,13.67,0,0,1,36.87,69l-.06-4.16L36.44,39.9a3.05,3.05,0,0,1,3-3.1h0a3.06,3.06,0,0,1,3.08,3l.08,6" fill="none" stroke="#3c3c3b" stroke-linecap="round" stroke-linejoin="round" stroke-width="4"/>
  </g>
</svg>
