<svg xmlns="http://www.w3.org/2000/svg" width="88.902" height="83.98" viewBox="0 0 88.902 83.98">
  <g id="_3" data-name="3" transform="translate(-9.889 -13.41)">
    <path id="Tracciato_5612" data-name="Tracciato 5612" d="M56.32,67.77,45.93,80.93A1.4,1.4,0,0,0,47,83.19h3.53A1.4,1.4,0,0,1,52,84.59V96a1.4,1.4,0,0,0,1.4,1.39h8.1A1.39,1.39,0,0,0,62.89,96V84.59a1.4,1.4,0,0,1,1.4-1.4h3.53a1.4,1.4,0,0,0,1.09-2.26L58.51,67.77a1.39,1.39,0,0,0-2.19,0Z" fill="#ffb886"/>
    <path id="Tracciato_5613" data-name="Tracciato 5613" d="M39.06,23.47c-1.3-1.79-4.09-3.1-7.34-3.1" fill="none" stroke="#3c3c3b" stroke-linecap="round" stroke-linejoin="round" stroke-width="4"/>
    <path id="Tracciato_5614" data-name="Tracciato 5614" d="M31.72,20.37c-11.49,0-9.33,13.19-9,15s2,6.67,4.76,8.58v4s-15.59.39-15.59,15.31v3.13A2.56,2.56,0,0,0,14.4,69H34.59" fill="none" stroke="#3c3c3b" stroke-linecap="round" stroke-linejoin="round" stroke-width="4"/>
    <path id="Tracciato_5615" data-name="Tracciato 5615" d="M70.08,23c1.41-1.56,3.57-2.62,6.83-2.62" fill="none" stroke="#3c3c3b" stroke-linecap="round" stroke-linejoin="round" stroke-width="4"/>
    <path id="Tracciato_5616" data-name="Tracciato 5616" d="M76.91,20.37c11.48,0,9.32,13.19,9,15S84,42,81.2,43.92v4s15.59.39,15.59,15.31v3.13a2.57,2.57,0,0,1-2.51,2.61H74.37" fill="none" stroke="#3c3c3b" stroke-linecap="round" stroke-linejoin="round" stroke-width="4"/>
    <path id="Tracciato_5617" data-name="Tracciato 5617" d="M54.41,63.38,41.15,80.19h7.8V94.43H59.89V80.19H67.7L54.41,63.38" fill="none" stroke="#3c3c3b" stroke-linecap="round" stroke-linejoin="round" stroke-width="4"/>
    <path id="Tracciato_5618" data-name="Tracciato 5618" d="M62.29,71.26h9.58a2.56,2.56,0,0,0,2.51-2.61V58.31C74.38,43.39,58.79,43,58.79,43V39c2.8-1.91,4.48-6.8,4.76-8.59s2.44-15-9-15" fill="none" stroke="#3c3c3b" stroke-linecap="round" stroke-linejoin="round" stroke-width="4"/>
    <path id="Tracciato_5619" data-name="Tracciato 5619" d="M54.47,15.49c-11.48,0-9.32,13.18-9,15s2,6.68,4.75,8.59v4s-15.59.4-15.59,15.32V68.65a2.57,2.57,0,0,0,2.52,2.61h9.48" fill="none" stroke="#3c3c3b" stroke-linecap="round" stroke-linejoin="round" stroke-width="4"/>
  </g>
</svg>
