<svg xmlns="http://www.w3.org/2000/svg" width="83.758" height="83.98" viewBox="0 0 83.758 83.98">
  <g id="_18" data-name="18" transform="translate(-12.436 -11.32)">
    <path id="Tracciato_5596" data-name="Tracciato 5596" d="M81.91,77V91.62a3.53,3.53,0,0,1-3.36,3.68H36.1a3.54,3.54,0,0,1-3.36-3.68V77c0-10.84,5-16.25,9.85-18.94a2.09,2.09,0,0,1,2.95,1.06L55.63,84.24a1.83,1.83,0,0,0,3.4,0l3.62-9A2.57,2.57,0,0,1,65,73.6h2.86A4.12,4.12,0,0,0,72,69.48h0a3.34,3.34,0,0,0-3.34-3.34h-.54A1.23,1.23,0,0,1,67,64.45l2.12-5.29a2.09,2.09,0,0,1,3-1.06C76.9,60.79,81.91,66.19,81.91,77Z" fill="#ffb886"/>
    <path id="Tracciato_5597" data-name="Tracciato 5597" d="M78.9,73.72V88.3A3.53,3.53,0,0,1,75.54,92H33.09a3.54,3.54,0,0,1-3.36-3.68V73.72c0-12.44,6.59-17.73,12-20l10.89,27.2a1.83,1.83,0,0,0,3.4,0l4.27-10.64h5.37A3.33,3.33,0,0,0,69,67v-.79a3.34,3.34,0,0,0-3.34-3.34H63.29l3.64-9.07C72.31,56,78.9,61.27,78.9,73.72Z" fill="none" stroke="#3c3c3b" stroke-linecap="round" stroke-linejoin="round" stroke-width="4"/>
    <path id="Tracciato_5598" data-name="Tracciato 5598" d="M54.33,13.32c15.35,0,12.47,18.6,12.09,21.11s-2.61,9.41-6.35,12.1v5.58a21.36,21.36,0,0,1,6.86,1.64" fill="none" stroke="#3c3c3b" stroke-linecap="round" stroke-linejoin="round" stroke-width="4"/>
    <path id="Tracciato_5599" data-name="Tracciato 5599" d="M41.7,53.75a21.39,21.39,0,0,1,6.87-1.64V46.53c-3.74-2.69-6-9.59-6.36-12.1S39,13.32,54.3,13.32" fill="none" stroke="#3c3c3b" stroke-linecap="round" stroke-linejoin="round" stroke-width="4"/>
    <path id="Tracciato_5600" data-name="Tracciato 5600" d="M29.74,85H16.93a2.76,2.76,0,0,1-2.48-3V70.25c0-17,14.91-16.44,14.91-16.44v-4.5c-2.76-2.17-4.42-7.74-4.69-9.77s-2.41-17,8.93-17h.56a9.43,9.43,0,0,1,1.54.12" fill="none" stroke="#3c3c3b" stroke-linecap="round" stroke-linejoin="round" stroke-width="4"/>
    <path id="Tracciato_5601" data-name="Tracciato 5601" d="M78.89,85H91.7a2.76,2.76,0,0,0,2.48-3V70.25c0-17-14.92-16.44-14.92-16.44v-4.5c2.76-2.17,4.42-7.74,4.7-9.77s2.41-17-8.93-17h-.57a9.31,9.31,0,0,0-1.53.12" fill="none" stroke="#3c3c3b" stroke-linecap="round" stroke-linejoin="round" stroke-width="4"/>
    <path id="Tracciato_5602" data-name="Tracciato 5602" d="M69,66.16V67a3.33,3.33,0,0,1-3.34,3.33H60A3.33,3.33,0,0,1,56.69,67v-.79A3.34,3.34,0,0,1,60,62.82h5.64A3.34,3.34,0,0,1,69,66.16Z" fill="none" stroke="#3c3c3b" stroke-linecap="round" stroke-linejoin="round" stroke-width="4"/>
  </g>
</svg>
