<svg xmlns="http://www.w3.org/2000/svg" width="116.443" height="123.951" viewBox="0 0 116.443 123.951">
  <g id="Raggruppa_5967" data-name="Raggruppa 5967" transform="translate(-1357.288 -4357.797)">
    <g id="Raggruppa_5612" data-name="Raggruppa 5612" transform="translate(1360.15 4361.375)">
      <g id="Raggruppa_5611" data-name="Raggruppa 5611" transform="translate(0 0)">
        <g id="Raggruppa_5610" data-name="Raggruppa 5610">
          <path id="Tracciato_5538" data-name="Tracciato 5538" d="M-629.184,402.867l-5.387-2.922a4.954,4.954,0,0,0-6.185,1.2l-6.953,6.031-1.44,4.044c.062,2.074-2.286,1.833-2.665,2.03-11.952.354-12.584,3.216-12.878,3.875l-40.315,72.651a4.614,4.614,0,0,0-.123,4.394c1.249,2.464,4.637,6.431,13.686,11.334,8.019,4.35,13.056,5.4,16.052,5.4.387,0,.74-.018,1.058-.046a4.867,4.867,0,0,0,3.773-2.414l40.187-70.248c.527-.751,2.851-5.013-3.222-15.289.058-.214.4-1,2.245-2.044l.914-2.906,3.466-9.34A4.663,4.663,0,0,0-629.184,402.867Zm-6.958,3.539c1.421,0,2.119.325,2.119,1.708s-.919,1.293-2.34,1.293-2.352.885-2.352-.5h0a2.541,2.541,0,0,1,2.571-2.5Z" transform="translate(740.255 -390.534)" fill="#ffcead"/>
          <path id="Tracciato_5539" data-name="Tracciato 5539" d="M-740.806,432.854a1.9,1.9,0,0,0,.231-.078,1.527,1.527,0,0,0,.183-.062,1.966,1.966,0,0,0,.567-.353l.014-.01c.016-.016.02-.035.036-.05a1.972,1.972,0,0,0,.357-.5c.03-.059.055-.116.08-.177s.051-.1.067-.151a47.851,47.851,0,0,0,1.152-18.816,19.928,19.928,0,0,0,10.472-6.1c6.548-7.671,4.925-26.158,4.854-26.939a1.972,1.972,0,0,0-2.157-1.752h-.008c-.8.075-20.416-.109-26.962,7.561-1.391,1.674-1.786,5.62-2.412,7.684-11.19-4.175-25.63-4.58-26.438-4.6A1.984,1.984,0,0,0-782.8,390.4c-.027,1.057-.543,26.009,8.844,35.6,6.156,6.292,15.952,7.659,23.313,7.659A58.308,58.308,0,0,0-740.806,432.854Z" transform="translate(782.815 -377.861)" fill="#ffcead"/>
        </g>
      </g>
    </g>
    <g id="Raggruppa_5609" data-name="Raggruppa 5609" transform="translate(1409.1 4405.58)">
      <path id="Tracciato_5523" data-name="Tracciato 5523" d="M-661.486,582.027a1.012,1.012,0,0,0-.092,1.439c.044.054.079.1.175.23a3.99,3.99,0,0,1,.544.95,3.1,3.1,0,0,1,.248,1.036,1.654,1.654,0,0,1-.229.936.873.873,0,0,1-.642.462,1.981,1.981,0,0,1-1.193-.273l-.087-.044a6.226,6.226,0,0,0,.364-1.08,5.014,5.014,0,0,0,.13-1.6,3.882,3.882,0,0,0-.241-1.074,2.267,2.267,0,0,0-.185-.416h0a.464.464,0,0,0-.028-.048,2.379,2.379,0,0,0-3.209-.8,2.314,2.314,0,0,0-.843.835,2.2,2.2,0,0,0-.3,1.417c0,.006.027.21.027.216a4.748,4.748,0,0,0,.635,1.757,6.742,6.742,0,0,0,.874,1.172c-.074.061-.245.191-.291.217l-.019.009a10.407,10.407,0,0,0-1.053-.7,5.571,5.571,0,0,0-.791-.347h-.015a1.457,1.457,0,0,0-1.706.636,1.275,1.275,0,0,0-.143.969,1.546,1.546,0,0,0,.6.895,3.63,3.63,0,0,0,2.558.732,6.575,6.575,0,0,1,1.75,2.419.948.948,0,0,1-.433,1.291.994.994,0,0,1-.212.076,17.445,17.445,0,0,0-1.254-1.7,5.542,5.542,0,0,0-1.417-1.1,2.331,2.331,0,0,0-1.2-.259,1.4,1.4,0,0,0-1.182.824,1.651,1.651,0,0,0-.171,1.2,2.453,2.453,0,0,0,.5.991,4.406,4.406,0,0,0,.8.745,6.44,6.44,0,0,0,.829.516,8.454,8.454,0,0,0,.818.359,5.541,5.541,0,0,0,.82.231,3.373,3.373,0,0,1,.149.513,1.119,1.119,0,0,1-.2.843c-.445.467-1.389.274-2.865-.789q-.494-.354-.924-.69c-.287-.225-.417-.345-.665-.564-.179-.158-.625-.566-.626-.566a1.134,1.134,0,0,0-1.557.069,1.083,1.083,0,0,0,.114,1.532s.339.336.618.573.433.374.76.622.7.516,1.079.767a11.942,11.942,0,0,0,1.181.694,9.455,9.455,0,0,0,1.1.468,4.675,4.675,0,0,0,1.3.268,2.847,2.847,0,0,0,1.33-.234,2.659,2.659,0,0,0,1.087-1.067c.018-.032.036-.063.053-.1a2.716,2.716,0,0,0,.319-1.437c0-.1-.006-.2-.008-.286a4.9,4.9,0,0,0-.034-.6,3.558,3.558,0,0,0,.841-.327,2.611,2.611,0,0,0,1.051-1.088,2.6,2.6,0,0,0,.146-2.148,7.432,7.432,0,0,0-1.069-2,10.011,10.011,0,0,0-.729-.874,4.392,4.392,0,0,0,.343-.312c.1.061.209.12.314.173a5.635,5.635,0,0,0,1.162.434,3.425,3.425,0,0,0,1.277.088,2.855,2.855,0,0,0,1.215-.457,2.9,2.9,0,0,0,.9-.991l.07-.123a3.622,3.622,0,0,0,.464-1.889,5.13,5.13,0,0,0-.368-1.725,6.334,6.334,0,0,0-.782-1.383c-.263-.367-.213-.3-.291-.406a1.064,1.064,0,0,0-1.469-.144Zm-2.985,3.176a4.059,4.059,0,0,1-.381-.721,2.562,2.562,0,0,1-.18-.752v-.02a.331.331,0,0,1,.214-.316.312.312,0,0,1,.085-.01h.042l.022,0a.363.363,0,0,1,.212.205.12.12,0,0,1,.009.021v.016a2.147,2.147,0,0,1,.105.708,3.744,3.744,0,0,1-.1.879l-.006.023Z" transform="translate(673.702 -542.147)" fill="#f28651"/>
      <path id="Tracciato_5524" data-name="Tracciato 5524" d="M-641.011,569.621h0a3.38,3.38,0,0,0-.514.5c-.069.079-.114.134-.136.159a4.2,4.2,0,0,1-.3.319.552.552,0,0,1-.224.135.306.306,0,0,1-.241-.041c-.243-.135-.246-.4-.009-.8a9.606,9.606,0,0,1,.734-1.021l.031-.041-.576-.338-.173.2a6.958,6.958,0,0,0-.653.9c-.48.821-.371,1.431.322,1.814a1.055,1.055,0,0,0,.572.158.894.894,0,0,0,.48-.187,3.006,3.006,0,0,0,.49-.495l.114-.138a3.15,3.15,0,0,1,.3-.328.56.56,0,0,1,.237-.135.364.364,0,0,1,.27.052.359.359,0,0,1,.214.318,1.109,1.109,0,0,1-.185.538A10.53,10.53,0,0,1-641,572.2l-.031.039.582.36.168-.2a6.807,6.807,0,0,0,.664-.9,1.714,1.714,0,0,0,.3-1.1,1.114,1.114,0,0,0-.633-.769,1.186,1.186,0,0,0-.577-.174A.839.839,0,0,0-641.011,569.621Z" transform="translate(656.975 -534.513)" fill="#f28651"/>
      <path id="Tracciato_5525" data-name="Tracciato 5525" d="M-635.288,559.9a.4.4,0,0,1-.207.2.419.419,0,0,1-.264-.023,3.928,3.928,0,0,1-.463-.228l-1.443-.8.541-.927-.6-.331-.541.926-.965-.534-.388.665.965.534-.247.422.6.332.247-.423,1.552.859a2.869,2.869,0,0,0,.781.32.788.788,0,0,0,.559-.069,1.265,1.265,0,0,0,.432-.477,5.006,5.006,0,0,0,.323-.73l.014-.039-.594-.272Z" transform="translate(654.91 -528.203)" fill="#f28651"/>
      <path id="Tracciato_5526" data-name="Tracciato 5526" d="M-628.6,547.726a3.044,3.044,0,0,1-.08.447,1.69,1.69,0,0,1-.173.411.718.718,0,0,1-.289.306.534.534,0,0,1-.377-.008,4.223,4.223,0,0,1-.688-.323l-1.731-.958-.387.665,1.73.958a4.637,4.637,0,0,0,1.018.444,1.049,1.049,0,0,0,.718-.032,1.323,1.323,0,0,0,.548-.561,1.879,1.879,0,0,0,.21-.511,2.51,2.51,0,0,0,.059-.53l.185.1.388-.665-3.318-1.836-.388.665Z" transform="translate(650.888 -521.032)" fill="#f28651"/>
      <path id="Tracciato_5527" data-name="Tracciato 5527" d="M-624.595,532.391a4.036,4.036,0,0,0-.49.652,1.406,1.406,0,0,0-.18,1.276,2.511,2.511,0,0,0,1.166,1.074,2.687,2.687,0,0,0,1.415.424,1.2,1.2,0,0,0,.953-.676,2.227,2.227,0,0,0,.275-1.013l.169.1.388-.665-4.692-2.6-.387.665Zm2.573,1.424-.016.108a2.637,2.637,0,0,1-.094.39c-.148.476-.362.7-.68.7a2.093,2.093,0,0,1-.918-.319,1.928,1.928,0,0,1-.792-.662.728.728,0,0,1,.084-.72,4.113,4.113,0,0,1,.437-.586Z" transform="translate(647.388 -512.38)" fill="#f28651"/>
      <path id="Tracciato_5528" data-name="Tracciato 5528" d="M-617.452,522.056a1.417,1.417,0,0,0-.164,1.305,2.519,2.519,0,0,0,1.165,1.093,2.288,2.288,0,0,0,1.432.371,1.534,1.534,0,0,0,1.021-.843,8.539,8.539,0,0,0,.57-1.269l.013-.037-.554-.286-.1.231c-.062.136-.139.293-.227.455s-.173.315-.247.445a1.473,1.473,0,0,1-.373.456.564.564,0,0,1-.4.1,1.6,1.6,0,0,1-.533-.183l1.171-2.007-.456-.308C-616.16,521.021-616.939,521.176-617.452,522.056Zm1.044,1.542a1.265,1.265,0,0,1-.564-.549.757.757,0,0,1,.105-.669.7.7,0,0,1,.5-.39,1.4,1.4,0,0,1,.769.224Z" transform="translate(642.827 -506.65)" fill="#f28651"/>
      <path id="Tracciato_5529" data-name="Tracciato 5529" d="M-610.59,508.537a1.311,1.311,0,0,0-.547.553,1.986,1.986,0,0,0-.213.513,2.622,2.622,0,0,0-.066.548l-.187-.1-.384.658,3.319,1.835.388-.665-2.58-1.427.008-.1a2.112,2.112,0,0,1,.254-.765.679.679,0,0,1,.3-.3.576.576,0,0,1,.394,0,3.579,3.579,0,0,1,.65.3l1.75.969.389-.665-1.763-.976a4.078,4.078,0,0,0-.991-.42A1.083,1.083,0,0,0-610.59,508.537Z" transform="translate(639.674 -499.096)" fill="#f28651"/>
      <path id="Tracciato_5530" data-name="Tracciato 5530" d="M-602.722,498.906a.392.392,0,0,1-.208.2.416.416,0,0,1-.264-.023,3.761,3.761,0,0,1-.463-.227l-1.443-.8.542-.926-.6-.332-.541.926-.965-.534-.388.665.965.533-.246.423.6.331.246-.423,1.553.858a2.848,2.848,0,0,0,.781.32.779.779,0,0,0,.558-.068,1.264,1.264,0,0,0,.431-.477,4.91,4.91,0,0,0,.323-.73l.015-.039-.594-.272Z" transform="translate(636.954 -492.222)" fill="#f28651"/>
      <path id="Tracciato_5531" data-name="Tracciato 5531" d="M-596.792,486.781a3.372,3.372,0,0,0-.514.5c-.07.079-.114.132-.135.159a3.656,3.656,0,0,1-.3.319.551.551,0,0,1-.224.134.306.306,0,0,1-.242-.041c-.243-.135-.246-.4-.008-.8a9.443,9.443,0,0,1,.733-1.021l.032-.041-.577-.338-.173.2a6.975,6.975,0,0,0-.654.9c-.48.821-.371,1.431.322,1.814a1.06,1.06,0,0,0,.572.158.9.9,0,0,0,.479-.187,3.066,3.066,0,0,0,.49-.5l.114-.138a3.219,3.219,0,0,1,.3-.329.565.565,0,0,1,.237-.134.362.362,0,0,1,.27.052.358.358,0,0,1,.213.317,1.09,1.09,0,0,1-.185.539,10.148,10.148,0,0,1-.742,1.024l-.032.04.582.361.169-.2a6.77,6.77,0,0,0,.664-.9,1.715,1.715,0,0,0,.3-1.1,1.117,1.117,0,0,0-.633-.77,1.182,1.182,0,0,0-.577-.174A.837.837,0,0,0-596.792,486.781Z" transform="translate(632.594 -485.647)" fill="#f28651"/>
      <g id="Raggruppa_5608" data-name="Raggruppa 5608" transform="translate(4.92 42.168)">
        <path id="Tracciato_5532" data-name="Tracciato 5532" d="M-659.246,608.062s-.951.3-2.85-.844c-.192-.115-.526-.38-.639-.44.71-.014.558-.879,2.6.023.1.125.247.315.386.509C-659.444,607.736-659.246,608.062-659.246,608.062Z" transform="translate(662.735 -599.04)" fill="#f28651"/>
        <path id="Tracciato_5533" data-name="Tracciato 5533" d="M-653.065,589.4a4.274,4.274,0,0,0,.712.826,4.709,4.709,0,0,0,.97.69c.04-.088.079-.179.115-.273a5.834,5.834,0,0,0,.371-1.5,2.956,2.956,0,0,0-1.025-.535,1.357,1.357,0,0,0-1.036-.068,3.949,3.949,0,0,1-.027.426C-653.014,589.185-653.065,589.4-653.065,589.4Z" transform="translate(657.403 -588.465)" fill="#f28651"/>
        <path id="Tracciato_5534" data-name="Tracciato 5534" d="M-657.2,600.033c-.147.017-.18.02-.22.022a6.148,6.148,0,0,1,.546.525,6.472,6.472,0,0,0,2.307-.436l-.025-.035a10.043,10.043,0,0,0-.729-.874A3.6,3.6,0,0,1-657.2,600.033Z" transform="translate(659.805 -594.818)" fill="#f28651"/>
        <path id="Tracciato_5535" data-name="Tracciato 5535" d="M-660.588,593.607a5.615,5.615,0,0,0-.791-.347h-.015a1.469,1.469,0,0,0-.858-.018,2,2,0,0,0,.5.639,5.18,5.18,0,0,0,.749.458,2.487,2.487,0,0,0,.246.088,1.888,1.888,0,0,0,.752.046,1.25,1.25,0,0,0,.222-.054c.063-.018.252-.113.245-.109A10.348,10.348,0,0,0-660.588,593.607Z" transform="translate(662.469 -591.251)" fill="#f28651"/>
        <path id="Tracciato_5536" data-name="Tracciato 5536" d="M-658.2,614.88a4.42,4.42,0,0,0,1.11.132,5.037,5.037,0,0,0,1.1-.112c.009.069.021.178.027.308.005.092.006.22.007.3,0,.108,0,.2.011.386a1.528,1.528,0,0,1-.924.34,1.739,1.739,0,0,1-.927-.25,1.1,1.1,0,0,1-.261-.21,1.655,1.655,0,0,0,0-.378A3.52,3.52,0,0,0-658.2,614.88Z" transform="translate(660.236 -604.047)" fill="#f28651"/>
        <path id="Tracciato_5537" data-name="Tracciato 5537" d="M-656.394,595.362a6.862,6.862,0,0,0,1.585,1.28,4.093,4.093,0,0,1-.441.39,3.6,3.6,0,0,1-.307.211c-1.154.657-2.152-1.068-1.148-1.651A3.247,3.247,0,0,0-656.394,595.362Z" transform="translate(659.638 -592.533)" fill="#f28651"/>
      </g>
    </g>
    <g id="Raggruppa_5612-2" data-name="Raggruppa 5612" transform="translate(1357.288 4357.797)">
      <g id="Raggruppa_5611-2" data-name="Raggruppa 5611" transform="translate(0 0)">
        <g id="Raggruppa_5610-2" data-name="Raggruppa 5610">
          <path id="Tracciato_5538-2" data-name="Tracciato 5538" d="M-635.565,394.143l-5.388-2.922a4.954,4.954,0,0,0-6.185,1.2l-6.337,7.787-2.056,2.288c.062,2.074-.446,2.771-.825,2.968-11.952.354-14.447,4.517-14.741,5.175l-40.292,70.412a4.613,4.613,0,0,0-.123,4.394c1.249,2.464,4.637,6.431,13.686,11.334,8.019,4.35,13.056,5.4,16.052,5.4.387,0,.74-.018,1.058-.046a4.866,4.866,0,0,0,3.772-2.414l40.187-70.248c.527-.751,2.851-5.013-3.222-15.289.058-.214.4-1,2.245-2.044l.914-2.906,3.466-9.34A4.663,4.663,0,0,0-635.565,394.143Zm-6.958,3.538a2.539,2.539,0,0,1,2.572,2.5,2.539,2.539,0,0,1-2.572,2.5,2.539,2.539,0,0,1-2.572-2.5h0a2.541,2.541,0,0,1,2.572-2.5Zm2.007,29.538-40.623,70.635c-1.422.155-5.735-.055-14.538-4.829s-11.237-8.223-11.852-9.882l40.312-70.449c.017-.03,1.839-2.662,10.986-2.929a4.8,4.8,0,0,0,3.324-1.4,7.024,7.024,0,0,0,1.75-4.387l2.836-3.37a5.784,5.784,0,0,0,5.8,5.3,5.921,5.921,0,0,0,2.437-.548l-1.332,3.584.083.353a7.155,7.155,0,0,0-2.91,3.761,4.423,4.423,0,0,0,.526,3.476c4.587,7.715,3.244,10.612,3.2,10.68Z" transform="translate(746.636 -381.81)" fill="#ff9d64"/>
          <path id="Tracciato_5539-2" data-name="Tracciato 5539" d="M-747.187,424.13a1.939,1.939,0,0,0,.232-.078,1.558,1.558,0,0,0,.183-.062,1.971,1.971,0,0,0,.567-.353l.014-.01c.016-.016.02-.035.036-.051a1.966,1.966,0,0,0,.357-.5c.03-.06.055-.116.08-.177s.051-.1.067-.151a47.856,47.856,0,0,0,1.152-18.816,19.928,19.928,0,0,0,10.472-6.1c6.548-7.671,4.925-26.158,4.854-26.939a1.972,1.972,0,0,0-2.157-1.751h-.008c-.8.075-19.774,1.912-26.32,9.582a16.237,16.237,0,0,0-3.054,5.663c-11.19-4.175-25.63-4.58-26.438-4.6a1.984,1.984,0,0,0-2.032,1.882c-.027,1.056-.543,26.008,8.844,35.6,6.156,6.292,15.952,7.659,23.313,7.659A58.3,58.3,0,0,0-747.187,424.13Zm-6.734-31.344c7.207,7.365,6.221,19.529,5.2,25.456l-33.61-34.287c7.72.665,22.427,2.711,28.415,8.833Zm16.846,2.578a16.029,16.029,0,0,1-8.278,4.764,24.524,24.524,0,0,0-3.57-7.458l16.011-16.85c.063,6.24-.646,15.422-4.164,19.545ZM-754.6,381.193c3.385-3.966,11.974-6.3,18.244-7.435l-15.14,15.936a22.826,22.826,0,0,0-5.548-3.729,12.7,12.7,0,0,1,2.444-4.77Zm-30.531,5.5L-751.7,420.8c-6.312.567-19.007.713-25.766-6.2-5.952-6.084-7.351-20.336-7.667-27.913Z" transform="translate(789.196 -369.137)" fill="#ff9d64"/>
        </g>
      </g>
    </g>
  </g>
</svg>
