<svg xmlns="http://www.w3.org/2000/svg" xmlns:xlink="http://www.w3.org/1999/xlink" width="40" height="40" viewBox="0 0 40 40"><defs><linearGradient id="a" x1="0.178" x2="1" y2="1" gradientUnits="objectBoundingBox"><stop offset="0" stop-color="#f2666a"/><stop offset="1" stop-color="#ff9d64"/></linearGradient></defs><g transform="translate(-1825 -46)"><path d="M75.5,80.6a4.58,4.58,0,0,1-2.419-.74,4.928,4.928,0,0,1-.7-.588,4.149,4.149,0,0,1-.359-.4,4.841,4.841,0,0,1-.662-1.2,4.94,4.94,0,0,1-.258-1.591,4.419,4.419,0,0,1,.53-2.025,4.787,4.787,0,0,1,1.048-1.285,4.337,4.337,0,0,1,1.229-.726,4.14,4.14,0,0,1,1.535-.325c.146,0,.269.005.378.013v1.857a3.01,3.01,0,0,0-.319-.019,2.374,2.374,0,0,0-1.41.436,2.627,2.627,0,0,0-1.142,1.948,2.819,2.819,0,0,0,.5,1.74l.112.152h.013a2.514,2.514,0,0,0,.46.415,2.6,2.6,0,0,0,1.468.492,2.95,2.95,0,0,0,1.11-.24,2.463,2.463,0,0,0,1.365-1.485,3.333,3.333,0,0,0,.138-1.144V66.115h1.881a3.953,3.953,0,0,0,1,2.3,4.275,4.275,0,0,0,1.195.918,4.385,4.385,0,0,0,.971.354,3.626,3.626,0,0,0,.476.083v1.823a7.311,7.311,0,0,1-1.139-.181,5.728,5.728,0,0,1-1.463-.6l-1.038-.66V76.2a4.988,4.988,0,0,1-.294,1.533,4.527,4.527,0,0,1-.793,1.32A4.676,4.676,0,0,1,77.387,80.2a4.288,4.288,0,0,1-1.777.4Z" transform="translate(1767.437 -7.115)" fill="url(#a)"/><rect width="40" height="40" transform="translate(1825 46)" fill="none"/></g></svg>