<svg id="Livello_1" data-name="Livello 1" xmlns="http://www.w3.org/2000/svg" xmlns:xlink="http://www.w3.org/1999/xlink" viewBox="0 0 192 192"><defs><style>.cls-1{fill:#ea544c;}.cls-2{fill:#414042;}.cls-3{fill:url(#Sfumatura_senza_nome_17);}.cls-4{fill:url(#Sfumatura_senza_nome_17-2);}.cls-5{fill:url(#Sfumatura_senza_nome_17-3);}.cls-6{fill:url(#Sfumatura_senza_nome_17-4);}.cls-7{fill:url(#Sfumatura_senza_nome_17-5);}.cls-8{fill:url(#Sfumatura_senza_nome_17-6);}.cls-9{fill:url(#Sfumatura_senza_nome_17-7);}.cls-10{fill:url(#Sfumatura_senza_nome_8);}.cls-11{fill:url(#Sfumatura_senza_nome_9);}.cls-12{fill:url(#Sfumatura_senza_nome_10);}.cls-13{fill:url(#Sfumatura_senza_nome_11);}</style><linearGradient id="Sfumatura_senza_nome_17" x1="-503.71" y1="344.81" x2="-506.36" y2="344.45" gradientTransform="matrix(3.76, 0, 0, -10.3, 1972.38, 3631.5)" gradientUnits="userSpaceOnUse"><stop offset="0" stop-color="#414042" stop-opacity="0"/><stop offset="0.44" stop-color="#414042" stop-opacity="0.13"/><stop offset="1" stop-color="#414042" stop-opacity="0.4"/></linearGradient><linearGradient id="Sfumatura_senza_nome_17-2" x1="-545.75" y1="333.63" x2="-548.53" y2="333.16" gradientTransform="matrix(5.23, 0, 0, -7.2, 2986.81, 2478.21)" xlink:href="#Sfumatura_senza_nome_17"/><linearGradient id="Sfumatura_senza_nome_17-3" x1="-557.32" y1="332.02" x2="-556.46" y2="332.79" gradientTransform="matrix(5.51, 0, 0, -7.07, 3167.67, 2432.18)" xlink:href="#Sfumatura_senza_nome_17"/><linearGradient id="Sfumatura_senza_nome_17-4" x1="-396.75" y1="339.09" x2="-399.73" y2="338.49" gradientTransform="matrix(2.4, 0, 0, -8.12, 1061.25, 2811.42)" xlink:href="#Sfumatura_senza_nome_17"/><linearGradient id="Sfumatura_senza_nome_17-5" x1="-555.12" y1="329.52" x2="-553.15" y2="330.52" gradientTransform="matrix(5.2, 0, 0, -6.93, 2942.75, 2384.57)" xlink:href="#Sfumatura_senza_nome_17"/><linearGradient id="Sfumatura_senza_nome_17-6" x1="-543.29" y1="329.11" x2="-539.92" y2="328.39" gradientTransform="matrix(4.95, 0, 0, -6.42, 2792.37, 2188.72)" xlink:href="#Sfumatura_senza_nome_17"/><linearGradient id="Sfumatura_senza_nome_17-7" x1="-503.71" y1="344.81" x2="-506.36" y2="344.45" xlink:href="#Sfumatura_senza_nome_17"/><linearGradient id="Sfumatura_senza_nome_8" x1="-545.75" y1="333.63" x2="-548.53" y2="333.16" gradientTransform="matrix(5.23, 0, 0, -7.2, 2986.9, 2478.59)" gradientUnits="userSpaceOnUse"><stop offset="0" stop-color="#414042" stop-opacity="0"/><stop offset="0.38" stop-color="#414042" stop-opacity="0.08"/><stop offset="0.83" stop-color="#414042" stop-opacity="0.29"/><stop offset="1" stop-color="#414042" stop-opacity="0.4"/></linearGradient><linearGradient id="Sfumatura_senza_nome_9" x1="-557.32" y1="332.02" x2="-556.46" y2="332.79" gradientTransform="matrix(5.51, 0, 0, -7.07, 3167.67, 2432.56)" gradientUnits="userSpaceOnUse"><stop offset="0" stop-color="#414042" stop-opacity="0"/><stop offset="0.39" stop-color="#414042" stop-opacity="0.06"/><stop offset="0.77" stop-color="#414042" stop-opacity="0.23"/><stop offset="1" stop-color="#414042" stop-opacity="0.4"/></linearGradient><linearGradient id="Sfumatura_senza_nome_10" x1="-396.86" y1="339.1" x2="-399.84" y2="338.49" gradientTransform="matrix(2.4, 0, 0, -8.12, 1061.91, 2811.78)" gradientUnits="userSpaceOnUse"><stop offset="0" stop-color="#414042" stop-opacity="0"/><stop offset="0.57" stop-color="#414042" stop-opacity="0.2"/><stop offset="1" stop-color="#414042" stop-opacity="0.4"/></linearGradient><linearGradient id="Sfumatura_senza_nome_11" x1="-543.3" y1="329.11" x2="-539.93" y2="328.39" gradientTransform="matrix(4.95, 0, 0, -6.42, 2792.71, 2188.72)" gradientUnits="userSpaceOnUse"><stop offset="0" stop-color="#414042" stop-opacity="0"/><stop offset="0.5" stop-color="#464546" stop-opacity="0.17"/><stop offset="1" stop-color="#4d4d4d" stop-opacity="0.4"/></linearGradient></defs><rect id="Rettangolo_1367" data-name="Rettangolo 1367" class="cls-1" x="157.04" y="134.65" width="5.73" height="5.73" rx="2"/><g id="Raggruppa_5759" data-name="Raggruppa 5759"><path id="Tracciato_5752" data-name="Tracciato 5752" class="cls-2" d="M48.37,137.81a9.2,9.2,0,0,1-.64,3.56A7.21,7.21,0,0,1,46,143.84a6.67,6.67,0,0,1-2.41,1.45,8.32,8.32,0,0,1-2.8.48,9.63,9.63,0,0,1-1.61-.13,9.34,9.34,0,0,1-1.56-.38,8.21,8.21,0,0,1-1.44-.67,6.33,6.33,0,0,1-1.24-.94.66.66,0,0,1-.23-.47.57.57,0,0,1,.06-.25l.16-.24,1.31-1.92a.81.81,0,0,1,.29-.29.66.66,0,0,1,.33-.09.81.81,0,0,1,.57.25,3.9,3.9,0,0,0,1.28.7,5.32,5.32,0,0,0,1.81.25,3.77,3.77,0,0,0,1.2-.19,3.35,3.35,0,0,0,1.06-.55,2.88,2.88,0,0,0,.76-.87,2.54,2.54,0,0,0,.32-1.18,5.94,5.94,0,0,1-1.65,1,4.93,4.93,0,0,1-1.94.37,7.25,7.25,0,0,1-5.08-2,7.36,7.36,0,0,1-1.59-2.33,7.46,7.46,0,0,1-.59-3,7.7,7.7,0,0,1,.59-3,8.17,8.17,0,0,1,1.59-2.43,7.74,7.74,0,0,1,2.32-1.65,6.61,6.61,0,0,1,2.76-.61,5.2,5.2,0,0,1,2.27.48,6,6,0,0,1,1.81,1.3c.1-.27.18-.5.25-.7a4.14,4.14,0,0,1,.19-.49.71.71,0,0,1,.25-.29.76.76,0,0,1,.41-.1h2.17a.82.82,0,0,1,.53.15.66.66,0,0,1,.2.56Zm-4.25-4.91a3.44,3.44,0,0,0-.26-1.34,3.77,3.77,0,0,0-.71-1.1,3.56,3.56,0,0,0-1.09-.74,3.43,3.43,0,0,0-1.35-.27,3,3,0,0,0-1.32.28,2.77,2.77,0,0,0-1,.74,3.3,3.3,0,0,0-.61,1.1,4.15,4.15,0,0,0-.22,1.35,3.8,3.8,0,0,0,.23,1.33,3.15,3.15,0,0,0,.64,1.07,2.88,2.88,0,0,0,1,.72,3.45,3.45,0,0,0,1.34.27,3.21,3.21,0,0,0,1.29-.27,3.27,3.27,0,0,0,1.06-.72,3.43,3.43,0,0,0,.71-1.08,3.56,3.56,0,0,0,.28-1.33Z"/><path id="Tracciato_5753" data-name="Tracciato 5753" class="cls-2" d="M72.62,139.67a.62.62,0,0,1-.52.7H69.31a.63.63,0,0,1-.37-.12,1.32,1.32,0,0,1-.28-.3,2,2,0,0,1-.2-.38l-.15-.36,0-.11v.06c0-.06,0-.08,0-.07s0,0,0-.07a5.87,5.87,0,0,1-1.77,1.17,5.41,5.41,0,0,1-2.11.42,7.67,7.67,0,0,1-2.84-.55,7.37,7.37,0,0,1-2.4-1.56,7.47,7.47,0,0,1-1.66-2.42,7.86,7.86,0,0,1-.62-3.14A7.77,7.77,0,0,1,59,127.51a7.47,7.47,0,0,1,2.39-1.65,7.7,7.7,0,0,1,5.33-.25,4.36,4.36,0,0,1,1.85,1.17l.36-.74.12-.28a.82.82,0,0,1,.12-.2.4.4,0,0,1,.16-.12.86.86,0,0,1,.28,0h2.31a.61.61,0,0,1,.69.52.48.48,0,0,1,0,.17Zm-4.74-6.76a3.44,3.44,0,0,0-.94-2.41,3.27,3.27,0,0,0-1.06-.74,3.12,3.12,0,0,0-1.31-.28,3.26,3.26,0,0,0-1.23.25,3,3,0,0,0-1,.71,3.22,3.22,0,0,0-.71,1.08,3.5,3.5,0,0,0-.26,1.39,3.68,3.68,0,0,0,.24,1.36,3.4,3.4,0,0,0,.68,1.09,3.15,3.15,0,0,0,2.32,1,3.32,3.32,0,0,0,2.37-1,3.44,3.44,0,0,0,.7-1.1,3.73,3.73,0,0,0,.25-1.32Z"/><path id="Tracciato_5754" data-name="Tracciato 5754" class="cls-2" d="M87.16,129.83v9.86a.69.69,0,0,1-.17.55.88.88,0,0,1-.52.13H83a.6.6,0,0,1-.67-.51.48.48,0,0,1,0-.17v-9.86H81a.59.59,0,0,1-.65-.49V126.1a.69.69,0,0,1,.17-.46.62.62,0,0,1,.48-.18h1.42v-2.17a.77.77,0,0,1,.68-.84l3-1,.16,0h.15a.85.85,0,0,1,.57.22.92.92,0,0,1,.25.67v3.17H88.9a.57.57,0,0,1,.47.2.67.67,0,0,1,.16.43v3.09a.56.56,0,0,1-.47.64h-1.9Z"/><path id="Tracciato_5755" data-name="Tracciato 5755" class="cls-2" d="M106.92,132.54a4.22,4.22,0,0,0-.16-1.22,2.67,2.67,0,0,0-.45-.91,2,2,0,0,0-.68-.56,1.8,1.8,0,0,0-.85-.2,2.35,2.35,0,0,0-.87.16,2,2,0,0,0-.7.5,2.5,2.5,0,0,0-.46.83,3.73,3.73,0,0,0-.17,1.15v7.34a.66.66,0,0,1-.71.72H98.55a.63.63,0,0,1-.71-.54.54.54,0,0,1,0-.18V121.86a.65.65,0,0,1,.2-.54.74.74,0,0,1,.51-.18h3.32a.69.69,0,0,1,.52.21.73.73,0,0,1,.2.51v4.83a6.79,6.79,0,0,1,1.59-1.06,4.12,4.12,0,0,1,1.83-.41,5.84,5.84,0,0,1,2.84.6,4.54,4.54,0,0,1,1.73,1.64,7,7,0,0,1,.86,2.47,18.35,18.35,0,0,1,.23,3v6.67a.66.66,0,0,1-.71.72h-3.33a.63.63,0,0,1-.71-.54.48.48,0,0,1,0-.17Z"/><path id="Tracciato_5756" data-name="Tracciato 5756" class="cls-2" d="M131,135.36a.64.64,0,0,1,.42-.15,1.05,1.05,0,0,1,.24.06.49.49,0,0,1,.22.18l1.46,2a.93.93,0,0,1,.22.52.65.65,0,0,1-.26.5,9.48,9.48,0,0,1-1.46,1.05,7.85,7.85,0,0,1-1.41.65,8.13,8.13,0,0,1-1.38.32,10.24,10.24,0,0,1-1.36.09,7.25,7.25,0,0,1-2.9-.61,8.1,8.1,0,0,1-2.45-1.64,7.88,7.88,0,0,1-1.68-2.44,7.15,7.15,0,0,1-.63-3,8,8,0,0,1,.55-3,7.22,7.22,0,0,1,3.93-4.09,7.71,7.71,0,0,1,3.07-.6,6.67,6.67,0,0,1,1.48.19,6.79,6.79,0,0,1,1.56.57,7.35,7.35,0,0,1,1.48,1,6.19,6.19,0,0,1,1.25,1.45,7.4,7.4,0,0,1,.87,1.92,8.82,8.82,0,0,1,.32,2.45,3,3,0,0,1-.1.84,1,1,0,0,1-.33.49,1.33,1.33,0,0,1-.59.23,4.15,4.15,0,0,1-.87.06h-8a3.34,3.34,0,0,0,.5.88,3.23,3.23,0,0,0,.7.68,3.07,3.07,0,0,0,.86.45,3,3,0,0,0,1,.16,5.25,5.25,0,0,0,1.31-.13,4.12,4.12,0,0,0,.89-.32,3.75,3.75,0,0,0,.62-.42A4.87,4.87,0,0,1,131,135.36Zm-3.55-6.27a2.45,2.45,0,0,0-1.52.49,3.47,3.47,0,0,0-1,1.27h5.21a3.35,3.35,0,0,0-1.12-1.3,2.72,2.72,0,0,0-1.56-.46Z"/><path id="Tracciato_5757" data-name="Tracciato 5757" class="cls-2" d="M143.16,126.1a.62.62,0,0,1,.51-.7.54.54,0,0,1,.18,0h2.25a.62.62,0,0,1,.27.09.72.72,0,0,1,.25.21,1.87,1.87,0,0,1,.22.39l.39,1,0,0h0c.22-.24.44-.48.66-.7a4.19,4.19,0,0,1,.73-.59,3.33,3.33,0,0,1,.9-.41,4.36,4.36,0,0,1,2.59.1,8.07,8.07,0,0,1,1.24.55,8.69,8.69,0,0,1,1,.63l.55.44a1.26,1.26,0,0,1,.28.33.7.7,0,0,1,.07.31.85.85,0,0,1-.2.51c-.24.35-.48.71-.74,1.07l-.74,1a.61.61,0,0,1-.5.3.66.66,0,0,1-.43-.2l-.54-.43a3.71,3.71,0,0,0-.74-.44,2.62,2.62,0,0,0-1-.2,2.86,2.86,0,0,0-.92.15,2.16,2.16,0,0,0-.76.45,2.27,2.27,0,0,0-.51.75,2.45,2.45,0,0,0-.19,1v7.87a.63.63,0,0,1-.53.7h-3.54a.72.72,0,0,1-.49-.18.68.68,0,0,1-.19-.52Z"/></g><g id="Raggruppa_5765" data-name="Raggruppa 5765"><path id="Tracciato_5777" data-name="Tracciato 5777" class="cls-1" d="M156.83,76.59a7.33,7.33,0,0,0-9.2,4.5c-.18.46-.35.82-.82,1.86a28.54,28.54,0,0,1-4,6.6,22.55,22.55,0,0,1-5.55,5.12,12,12,0,0,1-6.55,1.91,6.07,6.07,0,0,1-5-2.24,13.44,13.44,0,0,1-2.39-8.12l0-.68a44.73,44.73,0,0,0,7.91-1.6,36.64,36.64,0,0,0,10.29-4.81,28,28,0,0,0,5.8-5.22,16.19,16.19,0,0,0,1.94-2.57h0a2.27,2.27,0,0,0,.19-.34,16.17,16.17,0,0,0-14-24.23A15.87,15.87,0,0,0,125.57,50l-1.24.92a34.33,34.33,0,0,0-8.68,10,47.59,47.59,0,0,0-4.25,9.36c-.62-.24-2-.81-2.33-1l-.13-.09a71.52,71.52,0,0,0,.72-8.78,38.66,38.66,0,0,0-.56-6s0-.06,0-.1a10,10,0,0,0-9.77-8.05,9.25,9.25,0,0,0-6.47,2.55,10.93,10.93,0,0,0-3.46,6.77,24.59,24.59,0,0,0,4.21,17.94,46.61,46.61,0,0,1-9,19c-5.52,6.32-10.63.92-10.63.92a126.25,126.25,0,0,0,6.18-13.49,38.6,38.6,0,0,0,2-12.38,15.76,15.76,0,0,0-2.52-8.16,9.7,9.7,0,0,0-9.12-4.21,12,12,0,0,0-8,3.19,17.61,17.61,0,0,0-4.39,6.51,30.21,30.21,0,0,0-1.86,7.43,42.81,42.81,0,0,0-.36,6.79,58.16,58.16,0,0,0,.57,6.18A36.59,36.59,0,0,0,57.85,91a23.38,23.38,0,0,1-2.66,2.7,8.13,8.13,0,0,1-5.89,1.75c-4.41-1-6.44-7.39-4.92-20,.34-2.81.69-5.46,1.11-8s.7-3.72,1.21-6c.36-1.63,1.35-5.74,1.35-5.74a7.7,7.7,0,0,0-5.75-9.12,7.84,7.84,0,0,0-9.06,6.07s-.92,3.21-1.43,5.73-.83,3.91-1.24,6.75-.79,6-1,9.18a81.92,81.92,0,0,0-.25,9.53,63.4,63.4,0,0,0,.87,8.25A31.78,31.78,0,0,0,32.94,101a19.18,19.18,0,0,0,6,7.17,18.62,18.62,0,0,0,10.3,2.78H50a19.85,19.85,0,0,0,10-3.12c.59-.37,1.17-.71,1.73-1a35.75,35.75,0,0,0,3.61-2.32,24.88,24.88,0,0,0,4.89,3.9,18.17,18.17,0,0,0,10.31,2.5,18.85,18.85,0,0,0,13.77-6.67,52.85,52.85,0,0,0,8.66-13.43,70.94,70.94,0,0,0,2.91-7.45,28.5,28.5,0,0,0,3.1,1c0,.84,0,1.68,0,2.5a38.16,38.16,0,0,0,1.29,8.5,23.09,23.09,0,0,0,3.82,8,19.38,19.38,0,0,0,7,5.7,20.4,20.4,0,0,0,9.22,2l1,0A26.32,26.32,0,0,0,144.48,107a37.41,37.41,0,0,0,9.39-8.26,45.72,45.72,0,0,0,5.87-9.56c1.37-2.87,1.13-2.33,1.5-3.17a7.22,7.22,0,0,0-4.12-9.34ZM127,69.8A29.5,29.5,0,0,1,130.18,65a18.55,18.55,0,0,1,4-3.73h0l0,0,.08,0a2.35,2.35,0,0,1,2.68.17,2,2,0,0,1,.35.48l.07.15a.61.61,0,0,1,.05.12.57.57,0,0,1,0,.14,2.5,2.5,0,0,1-.54,2,1.13,1.13,0,0,1-.1.13l-.06.06h0a15.2,15.2,0,0,1-4,3.12,27,27,0,0,1-5.77,2.49l-.16.05Z"/><g id="Raggruppa_5762" data-name="Raggruppa 5762"><path id="Tracciato_5778" data-name="Tracciato 5778" class="cls-3" d="M74,93.41s-5.1-4.66-4.52-20.09c.05-1.55.54-4.49.52-5.38,2.51,4.22,7.33.28,8.73,15.7-.44,1-1.09,2.59-1.82,4.11C75.34,91.07,74,93.41,74,93.41Z"/><path id="Tracciato_5779" data-name="Tracciato 5779" class="cls-4" d="M126.86,70.11a29.81,29.81,0,0,0-2.68,7.17,32.31,32.31,0,0,0-1,8.25c.68-.06,1.37-.15,2.08-.26a42.84,42.84,0,0,0,10.52-3,20.3,20.3,0,0,0-.19-8,9.2,9.2,0,0,0-3.12-6.47c-.89.49-1.79.93-2.72,1.33A30,30,0,0,1,126.86,70.11Z"/><path id="Tracciato_5780" data-name="Tracciato 5780" class="cls-5" d="M94.47,74.74c-.6-.82-.74-1-.88-1.25a41.62,41.62,0,0,1-1.38,5.12C94.89,84,98.47,86.84,102.79,91c0-.09.09-.18.14-.27a74.06,74.06,0,0,0,2.9-7.45A24.63,24.63,0,0,1,94.47,74.74Z"/><path id="Tracciato_5781" data-name="Tracciato 5781" class="cls-6" d="M109.66,60.35a37.46,37.46,0,0,0-.56-6,.44.44,0,0,0,0-.1,10,10,0,0,0-2.82-5.22A14.12,14.12,0,0,0,104,54.33a34.66,34.66,0,0,0-.28,6.11c.07.6.17,1.19.29,1.78a12.86,12.86,0,0,0,2.29,4.68,9.11,9.11,0,0,0,1.09,1.15,17.35,17.35,0,0,0,1.51,1.08A67.79,67.79,0,0,0,109.66,60.35Z"/><path id="Tracciato_5782" data-name="Tracciato 5782" class="cls-7" d="M57.85,91a29.78,29.78,0,0,0,3,7.14,34.31,34.31,0,0,0,4.47,6.24c-.41.3-1,.74-1.81,1.24-.55.35-1.34.8-1.82,1.09-.66.39-1.17.69-2.35,1.41a10.36,10.36,0,0,1-5.25-4.36,11.87,11.87,0,0,1-1.63-6.45,7.84,7.84,0,0,1,.41-2.3,11,11,0,0,0,2.34-1.31A24.31,24.31,0,0,0,57.85,91Z"/><path id="Tracciato_5783" data-name="Tracciato 5783" class="cls-8" d="M111.41,70.2a47.71,47.71,0,0,0-2.49,14,29.68,29.68,0,0,1-3.9-1.29,25.2,25.2,0,0,1-2.35-1.11c-8-4.63-.76-16.67,6.27-12.69A24.54,24.54,0,0,0,111.41,70.2Z"/></g><path id="Tracciato_5784" data-name="Tracciato 5784" class="cls-9" d="M74,93.41s-5.09-4.66-4.52-20.08c.05-1.56.54-4.5.53-5.39,2.51,4.23,7.32.28,8.73,15.7-.44,1-1.1,2.59-1.83,4.11C75.34,91.08,74,93.41,74,93.41Z"/><path id="Tracciato_5785" data-name="Tracciato 5785" class="cls-10" d="M126.87,70.11a29.81,29.81,0,0,0-2.68,7.17,32.31,32.31,0,0,0-1,8.25c.68-.06,1.37-.15,2.08-.26a42.84,42.84,0,0,0,10.52-3,20.3,20.3,0,0,0-.19-8,9.2,9.2,0,0,0-3.12-6.47c-.89.49-1.79.93-2.72,1.33A31,31,0,0,1,126.87,70.11Z"/><path id="Tracciato_5786" data-name="Tracciato 5786" class="cls-11" d="M94.48,74.74a11.5,11.5,0,0,1-.88-1.25,43.16,43.16,0,0,1-1.39,5.13C94.89,84,98.47,86.84,102.79,91l.14-.28a70.77,70.77,0,0,0,2.91-7.44A24.55,24.55,0,0,1,94.48,74.74Z"/><path id="Tracciato_5787" data-name="Tracciato 5787" class="cls-12" d="M109.67,60.35a38.66,38.66,0,0,0-.56-6,.54.54,0,0,0,0-.1,9.94,9.94,0,0,0-2.82-5.22A14.12,14.12,0,0,0,104,54.33a34.7,34.7,0,0,0-.28,6.11c.07.6.17,1.2.29,1.79a12.81,12.81,0,0,0,2.29,4.67,8.48,8.48,0,0,0,1.09,1.15,18.09,18.09,0,0,0,1.51,1.09A69.93,69.93,0,0,0,109.67,60.35Z"/><path id="Tracciato_5788" data-name="Tracciato 5788" class="cls-13" d="M111.41,70.21a46.29,46.29,0,0,0-1.71,6.57,48.89,48.89,0,0,0-.78,7.44,27,27,0,0,1-3.9-1.29,25.2,25.2,0,0,1-2.35-1.11c-8-4.62-.76-16.67,6.28-12.69A24.45,24.45,0,0,0,111.41,70.21Z"/><g id="Raggruppa_5764" data-name="Raggruppa 5764"><path id="Tracciato_5789" data-name="Tracciato 5789" class="cls-1" d="M156.83,76.59a7.33,7.33,0,0,0-9.2,4.5c-.18.46-.35.82-.82,1.86a28.54,28.54,0,0,1-4,6.6,22.55,22.55,0,0,1-5.55,5.12,12,12,0,0,1-6.55,1.91,6.07,6.07,0,0,1-5-2.24,13.44,13.44,0,0,1-2.39-8.12l0-.68a44.73,44.73,0,0,0,7.91-1.6,36.64,36.64,0,0,0,10.29-4.81,28,28,0,0,0,5.8-5.22,16.19,16.19,0,0,0,1.94-2.57h0a2.27,2.27,0,0,0,.19-.34,16.17,16.17,0,0,0-14-24.23A15.87,15.87,0,0,0,125.57,50l-1.24.92a34.33,34.33,0,0,0-8.68,10,47.59,47.59,0,0,0-4.25,9.36c-.62-.24-2-.81-2.33-1l-.13-.09a71.52,71.52,0,0,0,.72-8.78,38.66,38.66,0,0,0-.56-6s0-.06,0-.1a10,10,0,0,0-9.77-8.05,9.25,9.25,0,0,0-6.47,2.55,10.93,10.93,0,0,0-3.46,6.77,24.59,24.59,0,0,0,4.21,17.94,46.61,46.61,0,0,1-9,19c-5.52,6.32-10.63.92-10.63.92a126.25,126.25,0,0,0,6.18-13.49,38.6,38.6,0,0,0,2-12.38,15.76,15.76,0,0,0-2.52-8.16,9.7,9.7,0,0,0-9.12-4.21,12,12,0,0,0-8,3.19,17.61,17.61,0,0,0-4.39,6.51,30.21,30.21,0,0,0-1.86,7.43,42.81,42.81,0,0,0-.36,6.79,58.16,58.16,0,0,0,.57,6.18A36.59,36.59,0,0,0,57.85,91a23.38,23.38,0,0,1-2.66,2.7,8.13,8.13,0,0,1-5.89,1.75c-4.41-1-6.44-7.39-4.92-20,.34-2.81.69-5.46,1.11-8s.7-3.72,1.21-6c.36-1.63,1.35-5.74,1.35-5.74a7.7,7.7,0,0,0-5.75-9.12,7.84,7.84,0,0,0-9.06,6.07s-.92,3.21-1.43,5.73-.83,3.91-1.24,6.75-.79,6-1,9.18a81.92,81.92,0,0,0-.25,9.53,63.4,63.4,0,0,0,.87,8.25A31.78,31.78,0,0,0,32.94,101a19.18,19.18,0,0,0,6,7.17,18.62,18.62,0,0,0,10.3,2.78H50a19.85,19.85,0,0,0,10-3.12c.59-.37,1.17-.71,1.73-1a35.75,35.75,0,0,0,3.61-2.32,24.88,24.88,0,0,0,4.89,3.9,18.17,18.17,0,0,0,10.31,2.5,18.85,18.85,0,0,0,13.77-6.67,52.85,52.85,0,0,0,8.66-13.43,70.94,70.94,0,0,0,2.91-7.45,28.5,28.5,0,0,0,3.1,1c0,.84,0,1.68,0,2.5a38.16,38.16,0,0,0,1.29,8.5,23.09,23.09,0,0,0,3.82,8,19.38,19.38,0,0,0,7,5.7,20.4,20.4,0,0,0,9.22,2l1,0A26.32,26.32,0,0,0,144.48,107a37.41,37.41,0,0,0,9.39-8.26,45.72,45.72,0,0,0,5.87-9.56c1.37-2.87,1.13-2.33,1.5-3.17a7.22,7.22,0,0,0-4.12-9.34ZM127,69.8A29.5,29.5,0,0,1,130.18,65a18.55,18.55,0,0,1,4-3.73h0l0,0,.08,0a2.35,2.35,0,0,1,2.68.17,2,2,0,0,1,.35.48l.07.15a.61.61,0,0,1,.05.12.57.57,0,0,1,0,.14,2.5,2.5,0,0,1-.54,2,1.13,1.13,0,0,1-.1.13l-.06.06h0a15.2,15.2,0,0,1-4,3.12,27,27,0,0,1-5.77,2.49l-.16.05Z"/><g id="Raggruppa_5763" data-name="Raggruppa 5763"><path id="Tracciato_5790" data-name="Tracciato 5790" class="cls-3" d="M74,93.41s-5.1-4.66-4.52-20.09c.05-1.55.54-4.49.52-5.38,2.51,4.22,7.33.28,8.73,15.7-.44,1-1.09,2.59-1.82,4.11C75.34,91.07,74,93.41,74,93.41Z"/><path id="Tracciato_5791" data-name="Tracciato 5791" class="cls-4" d="M126.86,70.11a29.81,29.81,0,0,0-2.68,7.17,32.31,32.31,0,0,0-1,8.25c.68-.06,1.37-.15,2.08-.26a42.84,42.84,0,0,0,10.52-3,20.3,20.3,0,0,0-.19-8,9.2,9.2,0,0,0-3.12-6.47c-.89.49-1.79.93-2.72,1.33A30,30,0,0,1,126.86,70.11Z"/><path id="Tracciato_5792" data-name="Tracciato 5792" class="cls-5" d="M94.47,74.74c-.6-.82-.74-1-.88-1.25a41.62,41.62,0,0,1-1.38,5.12C94.89,84,98.47,86.84,102.79,91c0-.09.09-.18.14-.27a74.06,74.06,0,0,0,2.9-7.45A24.63,24.63,0,0,1,94.47,74.74Z"/><path id="Tracciato_5793" data-name="Tracciato 5793" class="cls-6" d="M109.66,60.35a37.46,37.46,0,0,0-.56-6,.44.44,0,0,0,0-.1,10,10,0,0,0-2.82-5.22A14.12,14.12,0,0,0,104,54.33a34.66,34.66,0,0,0-.28,6.11c.07.6.17,1.19.29,1.78a12.86,12.86,0,0,0,2.29,4.68,9.11,9.11,0,0,0,1.09,1.15,17.35,17.35,0,0,0,1.51,1.08A67.79,67.79,0,0,0,109.66,60.35Z"/><path id="Tracciato_5794" data-name="Tracciato 5794" class="cls-7" d="M57.85,91a29.78,29.78,0,0,0,3,7.14,34.31,34.31,0,0,0,4.47,6.24c-.41.3-1,.74-1.81,1.24-.55.35-1.34.8-1.82,1.09-.66.39-1.17.69-2.35,1.41a10.36,10.36,0,0,1-5.25-4.36,11.87,11.87,0,0,1-1.63-6.45,7.84,7.84,0,0,1,.41-2.3,11,11,0,0,0,2.34-1.31A24.31,24.31,0,0,0,57.85,91Z"/><path id="Tracciato_5795" data-name="Tracciato 5795" class="cls-8" d="M111.41,70.2a47.71,47.71,0,0,0-2.49,14,29.68,29.68,0,0,1-3.9-1.29,25.2,25.2,0,0,1-2.35-1.11c-8-4.63-.76-16.67,6.27-12.69A24.54,24.54,0,0,0,111.41,70.2Z"/></g></g></g></svg>