<svg id="Livello_1" data-name="Livello 1" xmlns="http://www.w3.org/2000/svg" xmlns:xlink="http://www.w3.org/1999/xlink" viewBox="0 0 192 192"><defs><style>.cls-1{fill:url(#Sfumatura_senza_nome_2);}.cls-2{fill:#fff;}.cls-3{fill:url(#Sfumatura_senza_nome_367);}.cls-4{fill:url(#Sfumatura_senza_nome_25);}.cls-5{fill:url(#Sfumatura_senza_nome_145);}.cls-6{fill:url(#Sfumatura_senza_nome_155);}.cls-7{fill:url(#Sfumatura_senza_nome_145-2);}.cls-8{fill:url(#Sfumatura_senza_nome_155-2);}</style><linearGradient id="Sfumatura_senza_nome_2" x1="-1137.15" y1="165.04" x2="-994.36" y2="22.26" gradientTransform="translate(1162.1 2)" gradientUnits="userSpaceOnUse"><stop offset="0" stop-color="#f58536"/><stop offset="0.95" stop-color="#d22829"/><stop offset="1" stop-color="#d02328"/></linearGradient><linearGradient id="Sfumatura_senza_nome_367" x1="80.51" y1="96.23" x2="72.24" y2="99.33" gradientUnits="userSpaceOnUse"><stop offset="0" stop-color="#fff" stop-opacity="0"/><stop offset="0.39" stop-color="#cecece" stop-opacity="0.11"/><stop offset="1" stop-color="#4d4d4d" stop-opacity="0.4"/></linearGradient><linearGradient id="Sfumatura_senza_nome_25" x1="128.88" y1="93.11" x2="116.87" y2="95.92" gradientUnits="userSpaceOnUse"><stop offset="0" stop-color="#fff" stop-opacity="0"/><stop offset="0.35" stop-color="#e3e3e3" stop-opacity="0.06"/><stop offset="0.76" stop-color="#929292" stop-opacity="0.25"/><stop offset="1" stop-color="#4d4d4d" stop-opacity="0.4"/></linearGradient><linearGradient id="Sfumatura_senza_nome_145" x1="97.1" y1="100.32" x2="101.02" y2="95.81" gradientUnits="userSpaceOnUse"><stop offset="0" stop-color="#fff" stop-opacity="0"/><stop offset="0.37" stop-color="#e9e9e9" stop-opacity="0.05"/><stop offset="0.71" stop-color="#a7a7a7" stop-opacity="0.2"/><stop offset="1" stop-color="#4d4d4d" stop-opacity="0.4"/></linearGradient><linearGradient id="Sfumatura_senza_nome_155" x1="106.98" y1="79.19" x2="101.04" y2="83.23" gradientUnits="userSpaceOnUse"><stop offset="0" stop-color="#fff" stop-opacity="0"/><stop offset="0.5" stop-color="#b2b2b2" stop-opacity="0.17"/><stop offset="1" stop-color="#4d4d4d" stop-opacity="0.4"/></linearGradient><linearGradient id="Sfumatura_senza_nome_145-2" x1="62.19" y1="115.68" x2="70.69" y2="109.95" xlink:href="#Sfumatura_senza_nome_145"/><linearGradient id="Sfumatura_senza_nome_155-2" x1="100.88" y1="92.58" x2="114.7" y2="96.42" xlink:href="#Sfumatura_senza_nome_155"/></defs><rect id="QUADRATO" class="cls-1" x="8.75" y="8.75" width="174.5" height="174.5" rx="40" transform="translate(192 192) rotate(180)"/><path class="cls-2" d="M146.87,94.36a6.08,6.08,0,0,0-7.63,3.73c-.15.38-.29.69-.68,1.54a23.36,23.36,0,0,1-3.33,5.48,18.5,18.5,0,0,1-4.6,4.25,10,10,0,0,1-5.44,1.58,5,5,0,0,1-4.18-1.86c-1.21-1.46-1.88-3.73-2-6.73l0-.56a37.62,37.62,0,0,0,6.56-1.33,30.63,30.63,0,0,0,8.54-4,23.56,23.56,0,0,0,4.81-4.33,13.32,13.32,0,0,0,1.6-2.13h0l.16-.28A13.43,13.43,0,0,0,129,69.63a13.22,13.22,0,0,0-8.1,2.64l-1,.76a28.34,28.34,0,0,0-7.2,8.28,38.9,38.9,0,0,0-3.52,7.76c-.52-.2-1.67-.67-1.94-.82l-.1-.07a59.76,59.76,0,0,0,.59-7.28,31.18,31.18,0,0,0-.46-5,.29.29,0,0,1,0-.09,8.26,8.26,0,0,0-8.1-6.68A7.69,7.69,0,0,0,93.8,71.3a9.09,9.09,0,0,0-2.87,5.61c-.7,5.61.18,9.47,3.49,14.88A38.76,38.76,0,0,1,87,107.56c-4.58,5.24-8.82.75-8.82.75s4-7.71,5.13-11.18a31.87,31.87,0,0,0,1.63-10.27,13.1,13.1,0,0,0-2.09-6.76c-1.08-1.67-3.28-3.64-7.56-3.49a9.93,9.93,0,0,0-6.64,2.65A14.58,14.58,0,0,0,65,84.65a25.64,25.64,0,0,0-1.55,6.16,36.84,36.84,0,0,0-.29,5.64,45.52,45.52,0,0,0,.47,5.12,30.89,30.89,0,0,0,1.14,4.75,19.49,19.49,0,0,1-2.21,2.24c-.4.33-2.78,2-4.88,1.45-3.66-.86-5.34-6.13-4.08-16.57.28-2.33.57-4.53.91-6.62s.59-3.08,1-5c.3-1.35,1.12-4.76,1.12-4.76a6.38,6.38,0,0,0-4.77-7.56,6.5,6.5,0,0,0-7.52,5s-.76,2.67-1.18,4.75-.69,3.25-1,5.6-.65,5-.87,7.61a68.33,68.33,0,0,0-.2,7.91,54.62,54.62,0,0,0,.72,6.84,26.47,26.47,0,0,0,2.31,7.28,16.09,16.09,0,0,0,5,6c2.11,1.53,5.52,2.31,8.54,2.31l.64,0a16.38,16.38,0,0,0,8.26-2.58c.49-.31,1-.59,1.45-.87a32,32,0,0,0,3-1.93A20.5,20.5,0,0,0,75,120.66a15.13,15.13,0,0,0,8.54,2.07A15.61,15.61,0,0,0,95,117.2a43.8,43.8,0,0,0,7.19-11.14,57.93,57.93,0,0,0,2.41-6.17,24.71,24.71,0,0,0,2.57.8q0,1.05,0,2.07a31.7,31.7,0,0,0,1.07,7,19.27,19.27,0,0,0,3.17,6.62,16.23,16.23,0,0,0,5.78,4.73,17.1,17.1,0,0,0,7.65,1.63h.82a22,22,0,0,0,11-3.18,31,31,0,0,0,7.78-6.86,37.46,37.46,0,0,0,4.87-7.93c1.14-2.38.93-1.93,1.25-2.62A6,6,0,0,0,146.87,94.36Zm-24.72-5.63a25,25,0,0,1,2.62-4,15.38,15.38,0,0,1,3.33-3.09h0l0,0s0,0,.06,0a2,2,0,0,1,2.23.14,1.52,1.52,0,0,1,.28.4.75.75,0,0,1,.07.12l0,.1,0,.12a2,2,0,0,1-.45,1.65.38.38,0,0,1-.08.11.12.12,0,0,1-.05,0h0a12.59,12.59,0,0,1-3.32,2.59A22.33,22.33,0,0,1,122.15,89L122,89Z"/><path class="cls-3" d="M78.18,108.28S74,104.41,74.43,91.62c0-1.28.45-3.72.44-4.46,2.08,3.5,6.07.23,7.24,13-.37.84-.91,2.15-1.51,3.41C79.29,106.34,78.18,108.28,78.18,108.28Z"/><path class="cls-4" d="M122,89a24.89,24.89,0,0,0-2.22,6,26.85,26.85,0,0,0-.79,6.85c.56-.06,1.14-.13,1.72-.22A35.61,35.61,0,0,0,129.46,99c.38-.61.34-3.57-.16-6.67-.61-3.75-2.12-5.06-2.59-5.36a23.28,23.28,0,0,1-2.26,1.1C123.24,88.6,122,89,122,89Z"/><path class="cls-5" d="M95.15,92.8c-.5-.68-.61-.85-.73-1A33.44,33.44,0,0,1,93.28,96c2.22,4.43,5.18,6.82,8.77,10.25a2.4,2.4,0,0,0,.11-.23,56.66,56.66,0,0,0,2.41-6.17A20.51,20.51,0,0,1,95.15,92.8Z"/><path class="cls-6" d="M107.75,80.87a31.43,31.43,0,0,0-.46-5,.24.24,0,0,1,0-.08,8.26,8.26,0,0,0-2.34-4.33c-.92.88-1.79,3.91-1.84,4.37a28.62,28.62,0,0,0-.23,5.07,14.31,14.31,0,0,0,.25,1.48A10.53,10.53,0,0,0,105,86.29a7.1,7.1,0,0,0,.9,1,15.31,15.31,0,0,0,1.26.9A59.76,59.76,0,0,0,107.75,80.87Z"/><path class="cls-7" d="M64.78,106.29a24.39,24.39,0,0,0,2.47,5.92,28.25,28.25,0,0,0,3.7,5.18c-.33.24-.85.62-1.49,1-.46.29-1.11.67-1.52.9L66,120.5a8.65,8.65,0,0,1-4.36-3.62,9.73,9.73,0,0,1-1.34-5.35,6.62,6.62,0,0,1,.33-1.91,9.41,9.41,0,0,0,1.94-1.09A19.58,19.58,0,0,0,64.78,106.29Z"/><path class="cls-8" d="M109.2,89a39.24,39.24,0,0,0-2.06,11.63,23.37,23.37,0,0,1-3.24-1.07,21.18,21.18,0,0,1-2-.92c-6.63-3.83-.63-13.82,5.21-10.52A19.69,19.69,0,0,0,109.2,89Z"/></svg>