<svg xmlns="http://www.w3.org/2000/svg" width="245.602" height="90.604" viewBox="0 0 245.602 90.604">
  <g id="goma_hp" transform="translate(0 0)" opacity="0.5">
    <path id="Path_609" data-name="Path 609" d="M92.157,3011.514l.2-.029v.133l-.2-.1Z" transform="translate(-77.851 -2973.636)"/>
    <g id="Group_256" data-name="Group 256" transform="translate(0 48.146)" opacity="0.5">
      <path id="Path_610" data-name="Path 610" d="M103.57,3061.4l-1.848,2.212-1.756-2.287-19.039-24.78-3.144-1.365L59.23,3055.077l56.689,17.832,2.474-20.1-5.61-2.435Z" transform="translate(-59.23 -3035.185)" fill="#323133"/>
    </g>
    <g id="Group_257" data-name="Group 257" transform="translate(4.035 17.569)">
      <path id="Path_611" data-name="Path 611" d="M103.751,2996.046h-1.928l-.345-1.9-5.333-29.341-27.629,5.163,38.533,50.152,14.12-16.9-4.634-7.172Z" transform="translate(-68.516 -2964.807)" fill="#323133"/>
    </g>
    <path id="Path_612" data-name="Path 612" d="M130.162,2924.37l8.452,46.5H163.35l-9.482-36.487Z" transform="translate(-99.343 -2924.37)" fill="#323133" opacity="0.5"/>
    <g id="Group_258" data-name="Group 258" transform="translate(66.247 28.86)">
      <path id="Path_613" data-name="Path 613" d="M302.767,2990.8a18.967,18.967,0,1,0,18.967,18.968A18.989,18.989,0,0,0,302.767,2990.8Zm0,26.632a7.665,7.665,0,1,1,7.664-7.665A7.673,7.673,0,0,1,302.767,3017.428Z" transform="translate(-252.476 -2990.796)" fill="#323133"/>
      <path id="Path_614" data-name="Path 614" d="M211.7,3009.763a18.989,18.989,0,0,0,18.967,18.968H242.53v-23.245H227.686v9.891h5.583v2.052h-2.6a7.665,7.665,0,1,1,0-15.33H242.53v-11.3H230.672A18.989,18.989,0,0,0,211.7,3009.763Z" transform="translate(-211.705 -2990.796)" fill="#323133"/>
      <path id="Path_615" data-name="Path 615" d="M413.437,3021.635h-8.249v23.385h11.3v-20.332A3.056,3.056,0,0,0,413.437,3021.635Z" transform="translate(-321.125 -3008.236)" fill="#323133"/>
      <path id="Path_616" data-name="Path 616" d="M486.8,2994.127l-.36-.768H476.112l5.573,11.868h-7.648l-8.508,23.979h37.748Zm-8.033,25.725,4.21-11.863,5.57,11.863Z" transform="translate(-355.249 -2992.246)" fill="#323133"/>
      <path id="Path_617" data-name="Path 617" d="M397.641,2990.8H372.913v36.784h11.3V3002.1h13.425a3.263,3.263,0,0,1,3.26,3.26v22.222h11.3v-22.222A14.579,14.579,0,0,0,397.641,2990.8Z" transform="translate(-302.872 -2990.796)" fill="#323133"/>
    </g>
    <g id="Group_259" data-name="Group 259" transform="translate(67.08 72.284)">
      <path id="Path_618" data-name="Path 618" d="M213.624,3105.461v-14.142h10.225v1.669H215.5v4.331h7.824v1.659H215.5v4.814h8.682v1.669Z" transform="translate(-213.624 -3091.068)" fill="#323133"/>
      <path id="Path_619" data-name="Path 619" d="M243.686,3105.461v-14.142h1.872v12.474h6.965v1.669Z" transform="translate(-230.625 -3091.068)" fill="#323133"/>
      <path id="Path_620" data-name="Path 620" d="M269.242,3105.461v-14.142h10.226v1.669h-8.354v4.331h7.824v1.659h-7.824v4.814H279.8v1.669Z" transform="translate(-245.077 -3091.068)" fill="#323133"/>
      <path id="Path_621" data-name="Path 621" d="M301.7,3105.461v-12.473h-4.659v-1.669H308.25v1.669h-4.678v12.473Z" transform="translate(-260.799 -3091.068)" fill="#323133"/>
      <path id="Path_622" data-name="Path 622" d="M329.476,3105.461v-12.473h-4.659v-1.669h11.209v1.669h-4.678v12.473Z" transform="translate(-276.507 -3091.068)" fill="#323133"/>
      <path id="Path_623" data-name="Path 623" d="M355.1,3105.461v-14.142h6.27a8.351,8.351,0,0,1,2.874.381,3.144,3.144,0,0,1,1.573,1.346,4.014,4.014,0,0,1,.588,2.132,3.555,3.555,0,0,1-.975,2.537,4.929,4.929,0,0,1-3.01,1.312,4.855,4.855,0,0,1,1.129.7,9.762,9.762,0,0,1,1.553,1.881l2.46,3.849h-2.354l-1.871-2.942q-.82-1.273-1.351-1.949a4.238,4.238,0,0,0-.95-.945,2.834,2.834,0,0,0-.854-.377,5.705,5.705,0,0,0-1.042-.067h-2.17v6.28Zm1.872-7.9H361A6.022,6.022,0,0,0,363,3097.3a2.13,2.13,0,0,0,1.1-.849,2.293,2.293,0,0,0,.376-1.269,2.108,2.108,0,0,0-.728-1.65,3.412,3.412,0,0,0-2.3-.647h-4.476Z" transform="translate(-293.634 -3091.068)" fill="#323133"/>
      <path id="Path_624" data-name="Path 624" d="M386.564,3098.247a7.687,7.687,0,0,1,1.89-5.513,6.429,6.429,0,0,1,4.881-1.992,6.776,6.776,0,0,1,3.531.936,6.118,6.118,0,0,1,2.4,2.609,8.48,8.48,0,0,1,.825,3.8,8.337,8.337,0,0,1-.868,3.85,5.932,5.932,0,0,1-2.46,2.57,7.03,7.03,0,0,1-3.434.873,6.688,6.688,0,0,1-3.569-.965,6.205,6.205,0,0,1-2.383-2.633A7.984,7.984,0,0,1,386.564,3098.247Zm1.93.029a5.665,5.665,0,0,0,1.375,4.028,4.8,4.8,0,0,0,6.926-.014,6.009,6.009,0,0,0,1.365-4.216,7.25,7.25,0,0,0-.583-3.015,4.483,4.483,0,0,0-1.707-2,4.625,4.625,0,0,0-2.523-.709,4.786,4.786,0,0,0-3.42,1.365Q388.493,3095.083,388.493,3098.276Z" transform="translate(-311.426 -3090.742)" fill="#323133"/>
      <path id="Path_625" data-name="Path 625" d="M423.2,3105.461v-14.142h1.92l7.428,11.1v-11.1h1.794v14.142h-1.92l-7.428-11.113v11.113Z" transform="translate(-332.144 -3091.068)" fill="#323133"/>
      <path id="Path_626" data-name="Path 626" d="M456.816,3105.461v-14.142h1.871v14.142Z" transform="translate(-351.156 -3091.068)" fill="#323133"/>
      <path id="Path_627" data-name="Path 627" d="M478.1,3100.189l1.872.473a6.3,6.3,0,0,1-2.117,3.516,5.835,5.835,0,0,1-3.738,1.211,6.718,6.718,0,0,1-3.719-.931,5.806,5.806,0,0,1-2.18-2.7,9.612,9.612,0,0,1-.748-3.791,8.334,8.334,0,0,1,.844-3.854,5.786,5.786,0,0,1,2.4-2.5,7.017,7.017,0,0,1,3.429-.854,5.8,5.8,0,0,1,3.57,1.08,5.611,5.611,0,0,1,2.016,3.039l-1.843.435a4.368,4.368,0,0,0-1.428-2.248,3.805,3.805,0,0,0-2.354-.7,4.571,4.571,0,0,0-2.725.782,4.126,4.126,0,0,0-1.539,2.1,8.446,8.446,0,0,0-.444,2.715,8.63,8.63,0,0,0,.526,3.15,3.915,3.915,0,0,0,1.635,2.011,4.586,4.586,0,0,0,2.4.666,4.025,4.025,0,0,0,2.662-.907A4.638,4.638,0,0,0,478.1,3100.189Z" transform="translate(-357.182 -3090.755)" fill="#323133"/>
      <path id="Path_628" data-name="Path 628" d="M497.98,3105.461l5.431-14.142h2.016l5.788,14.142h-2.132l-1.65-4.283H501.52l-1.553,4.283Zm4.081-5.807h4.794l-1.476-3.917q-.675-1.784-1-2.933a17.958,17.958,0,0,1-.762,2.7Z" transform="translate(-374.435 -3091.068)" fill="#323133"/>
      <path id="Path_629" data-name="Path 629" d="M540.543,3100.6l1.766-.155a3.888,3.888,0,0,0,.583,1.741,3.181,3.181,0,0,0,1.423,1.1,5.387,5.387,0,0,0,2.17.419,5.208,5.208,0,0,0,1.891-.318,2.621,2.621,0,0,0,1.22-.873,2.025,2.025,0,0,0,.4-1.21,1.841,1.841,0,0,0-.386-1.163,2.86,2.86,0,0,0-1.273-.834,24.911,24.911,0,0,0-2.518-.69,12.876,12.876,0,0,1-2.73-.882,3.824,3.824,0,0,1-1.51-1.317,3.228,3.228,0,0,1-.5-1.76,3.6,3.6,0,0,1,.608-2,3.766,3.766,0,0,1,1.775-1.413,6.742,6.742,0,0,1,2.6-.482,7.094,7.094,0,0,1,2.773.506,4.007,4.007,0,0,1,1.847,1.491,4.288,4.288,0,0,1,.695,2.229l-1.794.135a2.9,2.9,0,0,0-.979-2.026,3.812,3.812,0,0,0-2.465-.685,3.958,3.958,0,0,0-2.474.622,1.867,1.867,0,0,0-.777,1.5,1.61,1.61,0,0,0,.55,1.254,7.453,7.453,0,0,0,2.822,1.008,18.7,18.7,0,0,1,3.13.9,4.286,4.286,0,0,1,1.823,1.442,3.513,3.513,0,0,1,.588,2.011,3.844,3.844,0,0,1-.646,2.127,4.258,4.258,0,0,1-1.857,1.553,6.468,6.468,0,0,1-2.725.555,8.138,8.138,0,0,1-3.217-.56,4.5,4.5,0,0,1-2.035-1.683A4.768,4.768,0,0,1,540.543,3100.6Z" transform="translate(-398.505 -3090.755)" fill="#323133"/>
      <path id="Path_630" data-name="Path 630" d="M571.827,3114.16v-14.171h1.582v1.331a3.9,3.9,0,0,1,1.264-1.172,3.472,3.472,0,0,1,1.707-.391,4.049,4.049,0,0,1,2.315.675,4.145,4.145,0,0,1,1.515,1.905,6.961,6.961,0,0,1,.511,2.7,6.856,6.856,0,0,1-.564,2.832,4.252,4.252,0,0,1-1.64,1.929,4.207,4.207,0,0,1-2.262.67,3.27,3.27,0,0,1-1.558-.366,3.534,3.534,0,0,1-1.134-.927v4.988Zm1.572-8.991a4.458,4.458,0,0,0,.8,2.923,2.457,2.457,0,0,0,1.939.945,2.51,2.51,0,0,0,1.982-.979,4.644,4.644,0,0,0,.825-3.034,4.528,4.528,0,0,0-.806-2.933,2.424,2.424,0,0,0-1.924-.974,2.5,2.5,0,0,0-1.963,1.037A4.64,4.64,0,0,0,573.4,3105.169Z" transform="translate(-416.197 -3095.84)" fill="#323133"/>
      <path id="Path_631" data-name="Path 631" d="M594.053,3105.461l5.431-14.142H601.5l5.788,14.142h-2.132l-1.65-4.283h-5.913l-1.553,4.283Zm4.08-5.807h4.795l-1.476-3.917q-.675-1.784-1-2.933a18,18,0,0,1-.763,2.7Z" transform="translate(-428.767 -3091.068)" fill="#323133"/>
    </g>
  </g>
</svg>
