<svg xmlns="http://www.w3.org/2000/svg" width="213.014" height="48.659" viewBox="0 0 213.014 48.659">
  <g id="mediolanum_hp" transform="translate(-1598.106 -106.051)" opacity="0.5">
    <g id="g7025" transform="translate(1598.106 106.051)">
      <path id="path6477" d="M1640.87,139.832a20.718,20.718,0,1,1,.167-18.575,11.86,11.86,0,0,1,3.118-1.824,24.325,24.325,0,1,0-.2,22.282,12.1,12.1,0,0,1-3.09-1.883" transform="translate(-1598.106 -106.051)" fill="#323133" opacity="0.5"/>
      <g id="g7005" transform="translate(9.899 3.893)">
        <path id="path6481" d="M1713.473,151.518a3.646,3.646,0,0,0-3.851-3.081,3.915,3.915,0,0,0-4.106,3.081Zm-3.439,6.777a6.625,6.625,0,0,0,4.567-1.7l3.08,3.081a9.714,9.714,0,0,1-7.548,2.927c-6.109,0-10.01-3.9-10.01-9.241a9.169,9.169,0,0,1,9.5-9.242c6.159,0,9.652,4.878,9.241,10.988h-13.4c.513,1.949,2,3.182,4.571,3.182" transform="translate(-1668.974 -132.698)" fill="#323133"/>
        <path id="path6485" d="M1841.277,153.365c0-2.825-1.643-4.878-4.312-4.878s-4.313,2.053-4.313,4.878,1.643,4.877,4.313,4.877,4.312-2.055,4.312-4.877m-13.912,0c0-5.339,4.209-9.242,9.6-9.242s9.6,3.9,9.6,9.242-4.212,9.241-9.6,9.241-9.6-3.9-9.6-9.241" transform="translate(-1745.017 -132.697)" fill="#323133"/>
        <path id="path6489" d="M1913.344,153.365c0-2.876-1.49-4.725-4.107-4.725s-4.211,1.849-4.211,4.725,1.591,4.723,4.211,4.723,4.107-1.847,4.107-4.723m-13.606,0c0-5.339,3.593-9.242,8.162-9.242,2.671,0,4.362.923,5.34,2.465v-2h5.134v17.559h-5.134v-2c-.977,1.539-2.669,2.463-5.34,2.463-4.569,0-8.162-3.9-8.162-9.241" transform="translate(-1788.269 -132.697)" fill="#323133"/>
        <path id="path6493" d="M1622.707,144.584a8.15,8.15,0,0,1,1.1,4.082l.006.006v13.469h5.133v-9.446c0-2.619,1.131-3.952,3.441-3.952,2.155,0,2.824,1.18,2.824,3.182v10.216h5.132v-9.446c0-2.619,1.132-3.952,3.44-3.952,2.157,0,2.825,1.18,2.825,3.182v10.216h5.134V151.412c0-4.417-2.466-7.291-6.522-7.291a7.234,7.234,0,0,0-6.365,2.977,5.148,5.148,0,0,0-4.979-2.977,5.441,5.441,0,0,0-4.931,2.465v-2h-6.243Z" transform="translate(-1622.707 -132.696)" fill="#323133"/>
        <path id="path6497" d="M1760.392,144.277c-2.617,0-4.311-1.849-4.311-4.723s1.694-4.726,4.311-4.726,4.211,1.849,4.211,4.726-1.59,4.723-4.211,4.723m4.111-23.264h-1.108a8.145,8.145,0,0,1,1.1,4.08v7.685c-.975-1.543-2.772-2.467-5.442-2.467-4.568,0-8.264,3.9-8.264,9.243s3.7,9.241,8.264,9.241c2.67,0,4.467-.924,5.442-2.463v2h5.134v-27.32Z" transform="translate(-1699.255 -118.886)" fill="#323133"/>
        <path id="path6501" d="M1809.534,127.482a3.234,3.234,0,1,0,0-6.468,3.234,3.234,0,0,0,0,6.468" transform="translate(-1732.428 -118.886)" fill="#323133"/>
        <path id="path6505" d="M1806.332,145.271h-1.112a8.148,8.148,0,0,1,1.1,3.964V162.83h5.133V145.271Z" transform="translate(-1731.783 -133.383)" fill="#323133"/>
        <path id="path6509" d="M1879.6,121.014h-1.111a8.124,8.124,0,0,1,1.1,3.915v23.406h5.134V121.014Z" transform="translate(-1775.572 -118.886)" fill="#323133"/>
        <path id="path6513" d="M1964.608,144.124c-2.464,0-4.362.822-5.494,2.72v-2.258h-6.245a8.163,8.163,0,0,1,1.107,4.081l0,.009v13.469h5.133V152.7c0-2.619,1.385-3.952,3.852-3.952a2.816,2.816,0,0,1,3.13,3.132v10.267h5.135V151.518c0-4.674-2.721-7.394-6.623-7.394" transform="translate(-1820.022 -132.698)" fill="#323133"/>
        <path id="path6517" d="M2014.831,145.269a8.148,8.148,0,0,1,1.1,4.082l0,0v5.466c0,2.669-.975,4-3.337,4s-3.337-1.335-3.337-4v-9.55h-6.246a8.134,8.134,0,0,1,1.106,4.082l.006.006v5.613c0,5.238,2.823,8.319,8.265,8.319s8.674-3.081,8.674-8.319v-9.7h-6.238Z" transform="translate(-1849.993 -133.381)" fill="#323133"/>
        <path id="path6521" d="M2055.337,144.584a8.172,8.172,0,0,1,1.1,4.082l.006.006v13.469h5.133v-9.446c0-2.619,1.131-3.952,3.441-3.952,2.155,0,2.823,1.18,2.823,3.182v10.216h5.135v-9.446c0-2.619,1.129-3.952,3.437-3.952,2.158,0,2.825,1.18,2.825,3.182v10.216h5.135V151.412c0-4.417-2.466-7.291-6.519-7.291a7.235,7.235,0,0,0-6.367,2.977,5.15,5.15,0,0,0-4.979-2.977,5.44,5.44,0,0,0-4.93,2.465v-2h-6.243Z" transform="translate(-1881.26 -132.696)" fill="#323133"/>
        <path id="path6525" d="M2024,122.684c.7,0,1.115-.272,1.115-.869s-.467-.893-1.243-.893h-1.971v1.762Zm-.3-3.33a.906.906,0,0,0,.972-.817.762.762,0,0,0-.817-.764h-1.956v1.582Zm3.124,2.617c0,1.426-1.192,2.372-2.953,2.372h-3.721V117.98a2.28,2.28,0,0,0-.776-1.866h4.482a2.324,2.324,0,0,1,2.527,2.268,1.742,1.742,0,0,1-.907,1.555,2.34,2.34,0,0,1,1.348,2.034" transform="translate(-1859.771 -115.958)" fill="#323133"/>
        <path id="path6529" d="M2043.424,118.447l-.92,2.23h1.815Zm-1.568,3.823-.855,2.073h-1.88l2.864-6.674a1.441,1.441,0,0,0-.376-1.554h2.578l3.5,8.228h-1.88l-.842-2.073Z" transform="translate(-1871.57 -115.958)" fill="#323133"/>
        <path id="path6533" d="M2069.372,124.342h-1.244l-4.6-5.17v5.17h-1.752v-6.363a2.312,2.312,0,0,0-.75-1.865h1.994l4.6,5.2v-3.331a2.318,2.318,0,0,0-.779-1.865h2.527Z" transform="translate(-1884.661 -115.958)" fill="#323133"/>
        <path id="path6537" d="M2092.909,122.607a4.451,4.451,0,0,1-3.628,1.659,4.272,4.272,0,1,1,0-8.54,4.675,4.675,0,0,1,3.563,1.633l-1.36,1.115-.506.4a1.159,1.159,0,0,0-.673-1.232l.064.027a2.77,2.77,0,0,0-1.088-.233,2.559,2.559,0,1,0,0,5.118,2.819,2.819,0,0,0,2.2-1.076Z" transform="translate(-1898.906 -115.726)" fill="#323133"/>
        <path id="path6541" d="M2110.424,118.447l-.92,2.23h1.815Zm-1.568,3.823-.855,2.073h-1.879l2.864-6.674a1.441,1.441,0,0,0-.376-1.554h2.578l3.5,8.228h-1.879l-.842-2.073Z" transform="translate(-1911.611 -115.958)" fill="#323133"/>
      </g>
    </g>
  </g>
</svg>
