<svg xmlns="http://www.w3.org/2000/svg" width="256.538" height="58.112" viewBox="0 0 256.538 58.112">
  <g id="museoe_hp" transform="translate(-900.274 -550.217)" opacity="0.5">
    <path id="Path_2815" data-name="Path 2815" d="M903.646,606.912a3.363,3.363,0,0,1-3.122-4.617l.008-.02L919.6,556.7a3.378,3.378,0,0,1,6.468.928l3.7,34.12,18.087-36.39a3.378,3.378,0,0,1,6.371,1.074l5.458,43.779h31.378l-26.123-11.151a3.345,3.345,0,0,1,.749-6.378l29.7-5.169-31.8-16.232a3.342,3.342,0,0,1,1.161-6.308l42.334-4.734a3.35,3.35,0,1,1,.76,6.657h-.006l-31.236,3.493,30.8,15.719a3.344,3.344,0,0,1-.958,6.28L978,587.341l30.788,13.143a3.347,3.347,0,0,1-1.331,6.428H956.705a3.365,3.365,0,0,1-3.347-2.938l-4.44-35.617-18.239,36.689a3.377,3.377,0,0,1-6.375-1.127l-3.528-32.563-14.015,33.491a3.374,3.374,0,0,1-3.115,2.065" fill="#323133" fill-rule="evenodd"/>
    <path id="Path_2816" data-name="Path 2816" d="M1132.528,551.637h8.464l5.053,16.031h.07l5.087-16.031h8.255v.862h-3.5v20.953h3.5v.861h-11.107v-.861h3.607V552.109h-.07l-7.023,22.2h-.808l-7.025-22.2h-.07v21.342h3.607v.861h-8.042v-.861h3.537V552.5h-3.537Zm47.862.9h-3.857v-.9h8.434v.9h-3.715v14.242a16.358,16.358,0,0,1-.467,4.566,5.129,5.129,0,0,1-1.7,2.476,7.76,7.76,0,0,1-2.952,1.456,13.717,13.717,0,0,1-3.549.457q-3.874,0-5.668-1.212a4.929,4.929,0,0,1-2.21-2.984,21.7,21.7,0,0,1-.415-4.762V552.535h-3.418v-.9h11.289v.9h-3.714v13.837a29.677,29.677,0,0,0,.264,4.495,4.642,4.642,0,0,0,1.428,2.723,5.254,5.254,0,0,0,3.681,1.09,7.875,7.875,0,0,0,3.663-.837,4.749,4.749,0,0,0,2.263-2.238,14.285,14.285,0,0,0,.643-5.233V552.533Zm24.361-2.04.1,5.978h-.829q-1.763-5.377-6.22-5.377a5.256,5.256,0,0,0-3.83,1.332,3.878,3.878,0,0,0-1.365,2.757,2.813,2.813,0,0,0,1.137,2.249,9.331,9.331,0,0,0,4.149,1.434,18.933,18.933,0,0,1,4.59,1.237,6.313,6.313,0,0,1,2.66,2.43,7.094,7.094,0,0,1,1.082,3.9,7.709,7.709,0,0,1-7.873,7.883,9.2,9.2,0,0,1-5.444-1.973l-1.655,1.441h-.619v-6.438h.759a9.825,9.825,0,0,0,2.906,4.569,6.315,6.315,0,0,0,4.087,1.528,6.489,6.489,0,0,0,4.043-1.416,4.346,4.346,0,0,0,1.841-3.581,4.124,4.124,0,0,0-1.277-3.066,7.65,7.65,0,0,0-4.14-1.716,21.45,21.45,0,0,1-4.4-1.1,5.924,5.924,0,0,1-2.623-2.18,5.852,5.852,0,0,1-1.093-3.444,6.761,6.761,0,0,1,7.065-6.716,8.61,8.61,0,0,1,5.092,1.683,6.152,6.152,0,0,0,1.126-1.409Zm11.386,2.007v9.72h2.283a8.49,8.49,0,0,0,2.045-.211,2.713,2.713,0,0,0,1.511-1.14,5.485,5.485,0,0,0,.764-2.91h.98v9.606h-.98q-.153-2.741-1.179-3.611a4.779,4.779,0,0,0-3.141-.872h-2.284V573.45h5.152q4.376,0,6.066-1.65a7.915,7.915,0,0,0,2.009-5.082h.962l-.246,7.594h-22.431v-.863h4.018V552.5h-4.018v-.863h21.507l.436,6.053h-.963a6.272,6.272,0,0,0-2.021-3.974q-1.526-1.215-5.092-1.216Zm29.777,21.814a10.329,10.329,0,0,1-8.035-3.743,11.926,11.926,0,0,1-3.3-8.005,12.164,12.164,0,0,1,3.467-8.733,10.852,10.852,0,0,1,8.053-3.615,10.344,10.344,0,0,1,7.735,3.676,11.99,11.99,0,0,1-.009,16.785,10.582,10.582,0,0,1-7.907,3.634m.072-23.22a7.4,7.4,0,0,0-3.593.868,4.555,4.555,0,0,0-2.166,3.015,33.213,33.213,0,0,0-.573,7.485,41.919,41.919,0,0,0,.327,5.892,6.636,6.636,0,0,0,1.666,3.641,5.472,5.472,0,0,0,4.2,1.443,7.8,7.8,0,0,0,3.5-.875,4.592,4.592,0,0,0,2.293-3.444,42.013,42.013,0,0,0,.538-7.891,22.451,22.451,0,0,0-.665-6.663,4.733,4.733,0,0,0-2.129-2.653,6.861,6.861,0,0,0-3.4-.817m-63.852,33.142v.861h3.662v20.954h-3.662v.861h11.339v-.861h-3.7V585.1h3.7v-.861Zm33.63,22.676h-18.038v-.861l13.512-20.954h-5.547q-3.034,0-4.228,1.191a7.732,7.732,0,0,0-1.738,4.033h-.826l.369-6.087h16.883v.608l-13.723,21.209h5.756a11.279,11.279,0,0,0,3.72-.466,4.471,4.471,0,0,0,2.2-2.32,11.053,11.053,0,0,0,1.184-3.8h.861Zm3.221-22.676v.861h3.662v20.954h-3.662v.861h11.338v-.861h-3.7V585.1h3.7v-.861Zm26.929,24.094a10.33,10.33,0,0,1-8.035-3.742,11.92,11.92,0,0,1-3.3-8,12.16,12.16,0,0,1,3.467-8.733,10.836,10.836,0,0,1,8.054-3.616,10.355,10.355,0,0,1,7.735,3.676,11.993,11.993,0,0,1-.01,16.786,10.578,10.578,0,0,1-7.907,3.633m.072-23.218a7.387,7.387,0,0,0-3.593.866,4.56,4.56,0,0,0-2.166,3.015,33.223,33.223,0,0,0-.573,7.487,41.622,41.622,0,0,0,.329,5.889,6.644,6.644,0,0,0,1.664,3.641,5.469,5.469,0,0,0,4.2,1.443,7.79,7.79,0,0,0,3.5-.875,4.6,4.6,0,0,0,2.295-3.444,42.178,42.178,0,0,0,.536-7.891,22.446,22.446,0,0,0-.665-6.663,4.729,4.729,0,0,0-2.129-2.653,6.854,6.854,0,0,0-3.4-.816m-104.97-.014v9.724h2.284a8.5,8.5,0,0,0,2.045-.211,2.721,2.721,0,0,0,1.511-1.142,5.5,5.5,0,0,0,.763-2.91h.982v9.606h-.982q-.151-2.741-1.179-3.611a4.779,4.779,0,0,0-3.141-.87h-2.283v10.367h5.15q4.378,0,6.068-1.652a7.9,7.9,0,0,0,2.009-5.079h.963l-.246,7.593h-22.431v-.861h4.019V585.1h-4.019v-.861h21.507l.434,6.052h-.963a6.269,6.269,0,0,0-2.018-3.973q-1.528-1.217-5.1-1.218Zm31.658,14.989h-3.907v-.875h11.95v.875h-3.341q0,4.414-2.841,6.329a10.469,10.469,0,0,1-5.939,1.915,9.428,9.428,0,0,1-7.543-3.606,12.754,12.754,0,0,1-3.014-8.434,12.567,12.567,0,0,1,3.082-8.474,9.721,9.721,0,0,1,7.679-3.581,8.366,8.366,0,0,1,4.547,1.374,2.226,2.226,0,0,0,.912.411c.369,0,.734-.325,1.1-.977h.775l.241,6.25h-.879q-1.429-6.183-6.765-6.183a5.613,5.613,0,0,0-4.047,1.246,5.356,5.356,0,0,0-1.558,3.142,38.99,38.99,0,0,0-.285,5.419,52.2,52.2,0,0,0,.422,8.4,5.094,5.094,0,0,0,1.731,3.1,5,5,0,0,0,3.2,1.038,5.735,5.735,0,0,0,2.694-.616,2.759,2.759,0,0,0,1.481-1.847,16.607,16.607,0,0,0,.3-3.667Z" transform="translate(-100.441 -0.001)" fill="#323133" fill-rule="evenodd" opacity="0.5"/>
  </g>
</svg>
