<svg xmlns="http://www.w3.org/2000/svg" width="150.16" height="122.652" viewBox="0 0 150.16 122.652">
  <g id="polo900_hp" transform="translate(3399 -8576.309)">
    <path id="Path_2725" data-name="Path 2725" d="M252.664,495.9a25.019,25.019,0,1,0,6.309,49.187V526.118a6.512,6.512,0,0,1,4.01-5.986,25.007,25.007,0,0,1,7.362-16.914,24.912,24.912,0,0,0-17.681-7.314" transform="translate(-3611.885 8080.404)" fill="#323133" opacity="0.5"/>
    <path id="Path_2726" data-name="Path 2726" d="M326.165,495.9a24.873,24.873,0,0,0-17.62,7.29,25,25,0,0,1,1.676,33.59V540.2a24.887,24.887,0,0,0,15.969,5.758,25.5,25.5,0,0,0,6.3-.85V526.119a6.5,6.5,0,0,1,4.022-5.986,24.923,24.923,0,0,1,7.3-16.914,24.825,24.825,0,0,0-17.645-7.314" transform="translate(-3650.085 8080.404)" fill="#323133" opacity="0.5"/>
    <path id="Path_2727" data-name="Path 2727" d="M302.014,509.693h0a24.889,24.889,0,0,0-7.326,16.9,6.6,6.6,0,0,1,2.49-.491,6.5,6.5,0,0,1,6.512,6.488h0v10.69a25,25,0,0,0-1.676-33.59" transform="translate(-3643.555 8073.906)" fill="#323133" opacity="0.25"/>
    <path id="Path_2728" data-name="Path 2728" d="M392.913,495.9a24.874,24.874,0,0,0-17.645,7.29,25,25,0,0,1,1.676,33.59V540.2a24.884,24.884,0,0,0,15.969,5.758,25.487,25.487,0,0,0,6.309-.826V526.119a6.512,6.512,0,1,1,13.024-.01v10.675a25.007,25.007,0,0,0-19.332-40.88" transform="translate(-3681.531 8080.404)" fill="#323133" opacity="0.5"/>
    <path id="Path_2729" data-name="Path 2729" d="M368.726,509.693h0a24.921,24.921,0,0,0-7.314,16.915,6.382,6.382,0,0,1,2.49-.5,6.5,6.5,0,0,1,6.512,6.488h0v10.69a24.983,24.983,0,0,0-1.688-33.59" transform="translate(-3675.001 8073.906)" fill="#323133" opacity="0.25"/>
    <path id="Path_2730" data-name="Path 2730" d="M259.171,590l-.06.06-31.327,26.862,44.722-17.381L272.147,590H259.171Z" transform="translate(-3612.024 8036.058)" fill="#323133" opacity="0.5"/>
    <path id="Path_2731" data-name="Path 2731" d="M200.155,699.842c1.2-.144,2.035-.8,2.035-1.76V684.543c0-1.365-.144-1.64-2.323-2.071v-.706h7.027c3.256,0,6.943,1.053,6.943,5.219,0,4.549-4.274,6.057-7.338,5.746v-.79c3.28-.1,4.561-2.131,4.561-4.369,0-3.4-2.669-4.717-5.662-4.717h-.431l-.311.3v14.939a8.425,8.425,0,0,1-.132,1.449l2.681.251-.107.79-6.943.228Z" transform="translate(-3598.867 7992.81)" fill="#323133" opacity="0.5"/>
    <path id="Path_2732" data-name="Path 2732" d="M234.937,692.7a5.806,5.806,0,0,1,6.249,5.326h0a5.357,5.357,0,0,1,0,.874c0,3.519-2.179,7.182-6.7,7.182-4,0-6.2-2.813-6.2-6.428,0-3.316,1.831-7,6.655-7m0,12.461c2.395,0,3.711-2.394,3.711-5.458,0-2.813-1.137-5.986-4-5.986-2.61,0-3.711,2.67-3.711,5.387s1.2,6.117,4,6.117" transform="translate(-3612.259 7987.678)" fill="#323133" opacity="0.5"/>
    <path id="Path_2733" data-name="Path 2733" d="M255.818,698.121a1.664,1.664,0,0,0,1.747-1.577v-.016a.712.712,0,0,0,0-.227V681.936c0-1.2,0-1.927-.85-1.927h-1.2v-.766a26.329,26.329,0,0,0,4.561-1.281l.084.1a13.153,13.153,0,0,0-.287,3.22V696.3a8.186,8.186,0,0,1-.144,1.52l2.394.252-.12.706-6.225.24Z" transform="translate(-3625.095 7994.603)" fill="#323133" opacity="0.5"/>
    <path id="Path_2734" data-name="Path 2734" d="M277.412,692.7a5.817,5.817,0,0,1,6.26,5.338h0a5.1,5.1,0,0,1,0,.862c0,3.519-2.178,7.182-6.715,7.182-3.987,0-6.2-2.813-6.2-6.428,0-3.316,1.843-7,6.655-7m0,12.461c2.394,0,3.711-2.394,3.711-5.458,0-2.813-1.2-5.986-3.986-5.986s-3.711,2.67-3.711,5.387,1.2,6.117,3.986,6.117" transform="translate(-3632.276 7987.678)" fill="#323133" opacity="0.5"/>
    <path id="Path_2735" data-name="Path 2735" d="M318.513,685.779a14.156,14.156,0,0,1,2.011.168v-4.01c0-1.2,0-1.927-.85-1.927h-1.2v-.766a26.336,26.336,0,0,0,4.513-1.281l.083.1a13.89,13.89,0,0,0-.275,3.22v14.927c0,1.616.646,1.616,1.58,1.616h.79l-.084.767c-3.077.311-4.525.538-4.525.538l-.036-.107c.06-.491.1-.994.108-1.5v-.6a4.646,4.646,0,0,1-4.046,2.3c-3.484,0-5.327-3.065-5.327-6.153A7.015,7.015,0,0,1,318,685.85h.514m2.011,10.535v-8c0-1.293-1.2-1.5-2.047-1.5-2.885,0-4.788,2.071-4.788,5.351,0,2.717,1.3,5.351,3.854,5.351a4.356,4.356,0,0,0,2.945-1.2" transform="translate(-3651.363 7994.603)" fill="#323133" opacity="0.5"/>
    <path id="Path_2736" data-name="Path 2736" d="M346.27,692.715a4.716,4.716,0,0,1,4.932,4.477v.228a9.55,9.55,0,0,1-1.3.371l-7.087.982-.287.335c.119,2.574,1.413,5.1,4.585,5.1a5.5,5.5,0,0,0,3.687-1.365l.311.6a5.675,5.675,0,0,1-4.789,2.669c-4.022,0-5.985-3.148-5.985-6.464,0-3.855,2.549-6.967,5.985-6.967m-3.591,5.075,5.986-.766s-.216-3.232-2.705-3.232c-1.9,0-2.981,1.867-3.232,4" transform="translate(-3665.067 7987.667)" fill="#323133" opacity="0.5"/>
    <path id="Path_2737" data-name="Path 2737" d="M364.054,698.121a1.664,1.664,0,0,0,1.747-1.577v-.016a.714.714,0,0,0,0-.227V681.936c0-1.2,0-1.927-.838-1.927h-1.2v-.766a26.348,26.348,0,0,0,4.561-1.281l.084.1a13.164,13.164,0,0,0-.323,3.22V696.3a9.367,9.367,0,0,1-.1,1.52l2.394.252-.12.706-6.225.168Z" transform="translate(-3676.11 7994.603)" fill="#323133" opacity="0.5"/>
    <path id="Path_2738" data-name="Path 2738" d="M392.43,679.408l2.179-1.2a3.854,3.854,0,0,1,1.352,2.861,5.471,5.471,0,0,1-2.8,4.358l-.67-.659c1.2-.934,1.831-1.76,1.831-2.466s-.622-1.3-1.891-1.927Z" transform="translate(-3689.619 7994.486)" fill="#323133" opacity="0.5"/>
    <path id="Path_2739" data-name="Path 2739" d="M410.678,700.085c0-3.842-1.472-7.445-3.818-7.445-1.844,0-2.9,2.394-2.9,4.7,0,2.634,1.3,6.284,4.621,4.956l.191.91a5.044,5.044,0,0,1-2.621.706c-3.148,0-4.645-2.718-4.645-5.7s2.011-6.536,5.746-6.536c4.022,0,5.985,3.8,5.985,8.092,0,5.447-3.244,11.049-10.1,11.049l-.168-.982c5.519-.347,7.7-5.219,7.7-9.756" transform="translate(-3693.898 7988.137)" fill="#323133" opacity="0.5"/>
    <path id="Path_2740" data-name="Path 2740" d="M436.133,691.66c4.07,0,6.141,3.268,6.141,6.632,0,3.591-2.179,7.374-6.572,7.374-4.082,0-6.141-3.436-6.141-6.8,0-3.592,2.179-7.183,6.572-7.183m3.735,6.895c0-2.753-1.484-5.554-3.938-5.554s-3.962,2.825-3.962,5.6,1.46,5.722,3.926,5.722,3.974-2.861,3.974-5.77" transform="translate(-3707.118 7988.147)" fill="#323133" opacity="0.5"/>
    <path id="Path_2741" data-name="Path 2741" d="M466.382,691.66c4.082,0,6.153,3.268,6.153,6.632,0,3.591-2.178,7.374-6.572,7.374-4.082,0-6.153-3.436-6.153-6.8,0-3.592,2.19-7.183,6.572-7.183m3.746,6.895c0-2.753-1.472-5.554-3.938-5.554s-3.974,2.825-3.974,5.6,1.484,5.722,3.95,5.722,3.962-2.861,3.962-5.77" transform="translate(-3721.375 7988.147)" fill="#323133" opacity="0.5"/>
  </g>
</svg>
