<svg xmlns="http://www.w3.org/2000/svg" width="209.428" height="36.485" viewBox="0 0 209.428 36.485">
  <g id="youngp_hp" opacity="0.5">
    <g id="Group_2052" data-name="Group 2052" transform="translate(0)">
      <g id="Group_2051" data-name="Group 2051">
        <g id="Group_2039" data-name="Group 2039" transform="translate(19.834 14.183)">
          <g id="Group_2038" data-name="Group 2038">
            <path id="Path_1642" data-name="Path 1642" d="M1682.51,3027.044v-.056a8.171,8.171,0,0,1,16.31-.055v.055a8.171,8.171,0,0,1-16.31.056Zm11.267,0v-.056a3.2,3.2,0,0,0-3.063-3.325l-.069,0a3.091,3.091,0,0,0-3.089,3.094c0,.059,0,.119.005.179v.055a3.2,3.2,0,0,0,3.067,3.326l.071,0a3.09,3.09,0,0,0,3.082-3.1c0-.059,0-.117-.006-.175Z" transform="translate(-1682.51 -3019.294)" fill="#323133"/>
          </g>
        </g>
        <g id="Group_2041" data-name="Group 2041" transform="translate(38.235 14.485)">
          <g id="Group_2040" data-name="Group 2040">
            <path id="Path_1643" data-name="Path 1643" d="M1724.861,3029.646v-9.655h5.18v7.993c0,1.61.846,2.479,2.1,2.479a2.181,2.181,0,0,0,2.157-2.479v-7.993h5.182v14.761H1734.3v-2.02a5.434,5.434,0,0,1-4.421,2.349C1726.745,3035.074,1724.861,3033,1724.861,3029.646Z" transform="translate(-1724.861 -3019.99)" fill="#323133"/>
          </g>
        </g>
        <g id="Group_2043" data-name="Group 2043">
          <g id="Group_2042" data-name="Group 2042">
            <path id="Path_1644" data-name="Path 1644" d="M1666.46,2991.2l-4.549-4.548-13.211,13.215-7.293-7.293-4.548,4.549,11.842,11.841,4.548-4.549h0Z" transform="translate(-1636.859 -2986.651)" fill="#323133"/>
          </g>
        </g>
        <g id="Group_2045" data-name="Group 2045" transform="translate(0.001 20.502)">
          <g id="Group_2044" data-name="Group 2044" transform="translate(0 0)">
            <rect id="Rectangle_1680" data-name="Rectangle 1680" width="6.433" height="6.433" transform="translate(0 4.549) rotate(-45)" fill="#323133"/>
          </g>
        </g>
        <g id="Group_2050" data-name="Group 2050" transform="translate(55.651 14.146)">
          <g id="Group_2047" data-name="Group 2047" transform="translate(0 0.008)">
            <g id="Group_2046" data-name="Group 2046">
              <path id="Path_1645" data-name="Path 1645" d="M1774.551,3019.229a5.481,5.481,0,0,0-4.42,2.4v-2.073h-5.184v14.761h5.184v-7.992a2.183,2.183,0,0,1,1.867-2.459,2.158,2.158,0,0,1,.315-.021c1.229,0,2.076.872,2.076,2.479v7.992h5.183v-9.656C1779.571,3021.3,1777.688,3019.229,1774.551,3019.229Z" transform="translate(-1764.947 -3019.229)" fill="#323133"/>
            </g>
          </g>
          <g id="Group_2049" data-name="Group 2049" transform="translate(16.415)">
            <g id="Group_2048" data-name="Group 2048">
              <path id="Path_1646" data-name="Path 1646" d="M1814.558,3019.547v1.688h-.057a4.98,4.98,0,0,0-4.29-2.017,7.545,7.545,0,0,0-7.48,7.61c0,.1,0,.191.008.286a7.11,7.11,0,0,0,5.666,7.3,7.931,7.931,0,0,0,1.523.147,7.072,7.072,0,0,0,1.093-.1,5.642,5.642,0,0,0,2.3-.886,7.46,7.46,0,0,0,.851-.667c.13-.117.261-.209.391-.338l.012-.031v1.922a3.145,3.145,0,0,1-3.086,3.2,2.993,2.993,0,0,1-1.94-.732,1.763,1.763,0,0,1-.572-.624,1.5,1.5,0,0,1-.181-.326H1803c.454,3.835,4.944,5.568,8.294,5.568,5.372,0,8.438-2.5,8.438-8.694v-13.309Zm-6.474,7.393v-.055a3.132,3.132,0,0,1,2.987-3.27c.065,0,.129,0,.194,0a3.242,3.242,0,0,1,3.237,3.248c0,.027,0,.053,0,.08V3027a3.131,3.131,0,0,1-2.987,3.27q-.1,0-.192,0a3.245,3.245,0,0,1-3.239-3.251C1808.082,3026.992,1808.083,3026.967,1808.083,3026.94Z" transform="translate(-1802.729 -3019.211)" fill="#323133"/>
            </g>
          </g>
        </g>
      </g>
    </g>
    <g id="Group_2053" data-name="Group 2053" transform="translate(100.46 7.042)" opacity="0.5">
      <path id="Path_1647" data-name="Path 1647" d="M1870.9,3016.5v8.892h-2.82v-21.951h7.482a6.766,6.766,0,0,1,4.844,1.9,6.342,6.342,0,0,1,.329,8.963q-.159.171-.329.329a6.753,6.753,0,0,1-4.844,1.871Zm0-10.367v7.667h4.725a3.729,3.729,0,0,0,2.789-1.135,3.849,3.849,0,0,0-2.789-6.532Z" transform="translate(-1868.082 -3003.187)" fill="#323133"/>
      <path id="Path_1648" data-name="Path 1648" d="M1909.933,3003.444V3025.4h-2.821v-21.957Z" transform="translate(-1890.155 -3003.19)" fill="#323133"/>
      <path id="Path_1649" data-name="Path 1649" d="M1925.739,3018.238a7,7,0,0,1,4.937,1.67,5.94,5.94,0,0,1,1.81,4.585v9.264h-2.7v-2.088h-.123a5.386,5.386,0,0,1-4.662,2.574,6.055,6.055,0,0,1-4.156-1.472,4.7,4.7,0,0,1-1.672-3.679,4.468,4.468,0,0,1,1.764-3.711,7.427,7.427,0,0,1,4.706-1.38,8.328,8.328,0,0,1,4.14.921v-.646a3.218,3.218,0,0,0-1.164-2.5,4,4,0,0,0-2.731-1.024,4.321,4.321,0,0,0-3.741,1.992l-2.479-1.565A6.924,6.924,0,0,1,1925.739,3018.238Zm-3.654,10.917a2.251,2.251,0,0,0,.936,1.84,3.439,3.439,0,0,0,2.192.734,4.491,4.491,0,0,0,3.173-1.318,4.132,4.132,0,0,0,1.395-3.1,5.8,5.8,0,0,0-3.68-1.044,4.779,4.779,0,0,0-2.87.828,2.46,2.46,0,0,0-1.142,2.058Z" transform="translate(-1896.975 -3011.549)" fill="#323133"/>
      <path id="Path_1650" data-name="Path 1650" d="M1961.131,3025.309a4.3,4.3,0,0,1-3.035-1.135,4.176,4.176,0,0,1-1.258-3.158v-8.4H1954.2v-2.577h2.637v-4.6h2.821v4.6h6.747v-2.176a4.807,4.807,0,0,1,1.425-3.618,5.051,5.051,0,0,1,3.665-1.38,5.344,5.344,0,0,1,2.514.521l-.766,2.479a3.667,3.667,0,0,0-1.656-.367,2.2,2.2,0,0,0-1.7.72,2.732,2.732,0,0,0-.661,1.917v1.9h3.926v2.577h-3.938v12.451h-2.82V3012.61h-6.747v7.575a2.76,2.76,0,0,0,.536,1.9,1.676,1.676,0,0,0,1.272.583,3.372,3.372,0,0,0,1.349-.277l.89,2.514A7.727,7.727,0,0,1,1961.131,3025.309Z" transform="translate(-1916.785 -3002.858)" fill="#323133"/>
      <path id="Path_1651" data-name="Path 1651" d="M1999.919,3026.261a7.944,7.944,0,0,1,2.176-5.733,7.417,7.417,0,0,1,5.552-2.27,7.317,7.317,0,0,1,5.519,2.27,8.551,8.551,0,0,1,0,11.468,7.32,7.32,0,0,1-5.519,2.269A7.419,7.419,0,0,1,2002.1,3032,7.945,7.945,0,0,1,1999.919,3026.261Zm2.821,0a5.5,5.5,0,0,0,1.41,3.925,4.816,4.816,0,0,0,6.808.185c.063-.06.125-.121.184-.185a6.124,6.124,0,0,0,0-7.819,4.753,4.753,0,0,0-6.715-.278q-.145.133-.278.278A5.461,5.461,0,0,0,2002.74,3026.261Z" transform="translate(-1942.637 -3011.565)" fill="#323133"/>
      <path id="Path_1652" data-name="Path 1652" d="M2043.543,3033.847h-2.82v-15.028h2.7v2.455h.122a4.072,4.072,0,0,1,1.764-2.04,4.9,4.9,0,0,1,2.621-.843,5.28,5.28,0,0,1,2.088.367l-.86,2.729a4.631,4.631,0,0,0-1.656-.215,3.651,3.651,0,0,0-2.775,1.289,4.305,4.305,0,0,0-1.181,3Z" transform="translate(-1965.715 -3011.641)" fill="#323133"/>
      <path id="Path_1653" data-name="Path 1653" d="M2069.163,3033.76h-2.82v-15.028h2.7v2.088h.122a5.018,5.018,0,0,1,1.979-1.84,5.527,5.527,0,0,1,5.566.03,4.533,4.533,0,0,1,1.841,2.118,5.858,5.858,0,0,1,5.181-2.882,5.078,5.078,0,0,1,4.016,1.594,6.635,6.635,0,0,1,1.412,4.541v9.382h-2.822v-8.955a4.83,4.83,0,0,0-.766-3.052,3.159,3.159,0,0,0-2.576-.934,3.368,3.368,0,0,0-2.728,1.381,5.04,5.04,0,0,0-1.1,3.25v8.31h-2.821v-8.955a4.824,4.824,0,0,0-.768-3.052,3.157,3.157,0,0,0-2.575-.934,3.37,3.37,0,0,0-2.729,1.38,5.048,5.048,0,0,0-1.1,3.25Z" transform="translate(-1980.204 -3011.555)" fill="#323133"/>
    </g>
  </g>
</svg>
